<ttFont>
    <TTGlyph name=".notAccess" xMin="11" yMin="0" xMax="542" yMax="533">
      <contour>
        <pt x="274" y="450" on="1"/>
        <pt x="174" y="205" on="1"/>
        <pt x="375" y="205" on="1"/>
      </contour>
      <contour>
        <pt x="464" y="0" on="1"/>
        <pt x="406" y="142" on="1"/>
        <pt x="145" y="142" on="1"/>
        <pt x="87" y="0" on="1"/>
        <pt x="11" y="0" on="1"/>
        <pt x="234" y="533" on="1"/>
        <pt x="316" y="533" on="1"/>
        <pt x="542" y="0" on="1"/>
      </contour>
    </TTGlyph>
    <TTGlyph name=".notdef" xMin="100" yMin="0" xMax="1300" yMax="1800">
      <contour>
        <pt x="150" y="50" on="1"/>
        <pt x="1250" y="50" on="1"/>
        <pt x="1250" y="1750" on="1"/>
        <pt x="150" y="1750" on="1"/>
      </contour>
      <contour>
        <pt x="100" y="1800" on="1"/>
        <pt x="1300" y="1800" on="1"/>
        <pt x="1300" y="0" on="1"/>
        <pt x="100" y="0" on="1"/>
      </contour>
    </TTGlyph>
    <TTGlyph name="A" xMin="-40" yMin="0" xMax="1092" yMax="1317">
      <contour>
        <pt x="371" y="439" on="1"/>
        <pt x="233" y="121" on="1"/>
        <pt x="220" y="90" on="0"/>
        <pt x="279" y="64" on="0"/>
        <pt x="355" y="53" on="1"/>
        <pt x="348" y="0" on="1"/>
        <pt x="-40" y="0" on="1"/>
        <pt x="-33" y="53" on="1"/>
        <pt x="31" y="65" on="0"/>
        <pt x="105" y="92" on="0"/>
        <pt x="118" y="121" on="1"/>
        <pt x="599" y="1221" on="1"/>
        <pt x="616" y="1236" on="0"/>
        <pt x="659" y="1264" on="0"/>
        <pt x="704" y="1289" on="0"/>
        <pt x="747" y="1310" on="0"/>
        <pt x="764" y="1317" on="1"/>
        <pt x="983" y="121" on="1"/>
        <pt x="986" y="107" on="0"/>
        <pt x="997" y="86" on="0"/>
        <pt x="1021" y="69" on="0"/>
        <pt x="1060" y="57" on="0"/>
        <pt x="1092" y="53" on="1"/>
        <pt x="1086" y="0" on="1"/>
        <pt x="676" y="0" on="1"/>
        <pt x="682" y="53" on="1"/>
        <pt x="753" y="58" on="0"/>
        <pt x="813" y="89" on="0"/>
        <pt x="807" y="121" on="1"/>
        <pt x="751" y="439" on="1"/>
      </contour>
      <contour>
        <pt x="732" y="540" on="1"/>
        <pt x="640" y="1060" on="1"/>
        <pt x="415" y="540" on="1"/>
      </contour>
    </TTGlyph>
    <TTGlyph name="AE" xMin="-36" yMin="0" xMax="1487" yMax="1260">
      <contour>
        <pt x="817" y="1137" on="1"/>
        <pt x="818" y="1148" on="0"/>
        <pt x="804" y="1159" on="0"/>
        <pt x="781" y="1156" on="0"/>
        <pt x="757" y="1138" on="0"/>
        <pt x="748" y="1120" on="1"/>
        <pt x="556" y="735" on="1"/>
        <pt x="763" y="735" on="1"/>
      </contour>
      <contour>
        <pt x="1416" y="264" on="1"/>
        <pt x="1406" y="221" on="0"/>
        <pt x="1385" y="139" on="0"/>
        <pt x="1365" y="68" on="0"/>
        <pt x="1348" y="15" on="0"/>
        <pt x="1342" y="0" on="1"/>
        <pt x="534" y="0" on="1"/>
        <pt x="542" y="53" on="1"/>
        <pt x="605" y="67" on="0"/>
        <pt x="677" y="100" on="0"/>
        <pt x="679" y="114" on="1"/>
        <pt x="750" y="645" on="1"/>
        <pt x="511" y="645" on="1"/>
        <pt x="247" y="121" on="1"/>
        <pt x="231" y="92" on="0"/>
        <pt x="279" y="62" on="0"/>
        <pt x="348" y="53" on="1"/>
        <pt x="342" y="0" on="1"/>
        <pt x="-36" y="0" on="1"/>
        <pt x="-29" y="53" on="1"/>
        <pt x="31" y="64" on="0"/>
        <pt x="104" y="92" on="0"/>
        <pt x="119" y="121" on="1"/>
        <pt x="625" y="1123" on="1"/>
        <pt x="633" y="1140" on="0"/>
        <pt x="620" y="1163" on="0"/>
        <pt x="581" y="1182" on="0"/>
        <pt x="517" y="1198" on="0"/>
        <pt x="474" y="1207" on="1"/>
        <pt x="481" y="1260" on="1"/>
        <pt x="1462" y="1260" on="1"/>
        <pt x="1487" y="1233" on="1"/>
        <pt x="1482" y="1207" on="0"/>
        <pt x="1466" y="1140" on="0"/>
        <pt x="1447" y="1071" on="0"/>
        <pt x="1427" y="1009" on="0"/>
        <pt x="1419" y="990" on="1"/>
        <pt x="1368" y="990" on="1"/>
        <pt x="1375" y="1082" on="0"/>
        <pt x="1351" y="1159" on="0"/>
        <pt x="1315" y="1159" on="1"/>
        <pt x="994" y="1159" on="1"/>
        <pt x="936" y="735" on="1"/>
        <pt x="1301" y="735" on="1"/>
        <pt x="1324" y="705" on="1"/>
        <pt x="1314" y="691" on="0"/>
        <pt x="1288" y="658" on="0"/>
        <pt x="1261" y="626" on="0"/>
        <pt x="1234" y="598" on="0"/>
        <pt x="1224" y="590" on="1"/>
        <pt x="1201" y="619" on="0"/>
        <pt x="1129" y="645" on="0"/>
        <pt x="1063" y="645" on="1"/>
        <pt x="924" y="645" on="1"/>
        <pt x="857" y="164" on="1"/>
        <pt x="855" y="149" on="0"/>
        <pt x="866" y="126" on="0"/>
        <pt x="903" y="109" on="0"/>
        <pt x="976" y="100" on="0"/>
        <pt x="1036" y="100" on="1"/>
        <pt x="1141" y="100" on="1"/>
        <pt x="1183" y="100" on="0"/>
        <pt x="1244" y="114" on="0"/>
        <pt x="1295" y="154" on="0"/>
        <pt x="1342" y="226" on="0"/>
        <pt x="1370" y="285" on="1"/>
      </contour>
    </TTGlyph>
    <TTGlyph name="AEacute" xMin="-36" yMin="0" xMax="1487" yMax="1716">
      <component glyphName="AE" x="0" y="0" flags="0x0"/>
      <component glyphName="acutecomb.LP" x="1352" y="320" flags="0x0"/>
    </TTGlyph>
    <TTGlyph name="Aacute" xMin="-40" yMin="0" xMax="1092" yMax="1716">
      <component glyphName="A" x="0" y="0" flags="0x0"/>
      <component glyphName="acutecomb.LP" x="1054" y="320" flags="0x0"/>
    </TTGlyph>
    <TTGlyph name="Abreve" xMin="-40" yMin="0" xMax="1092" yMax="1708">
      <component glyphName="A" x="0" y="0" flags="0x0"/>
      <component glyphName="uni0306" x="1064" y="320" flags="0x0"/>
    </TTGlyph>
    <TTGlyph name="Acircumflex" xMin="-40" yMin="0" xMax="1092" yMax="1697">
      <component glyphName="A" x="0" y="0" flags="0x0"/>
      <component glyphName="uni0302.LP" x="1056" y="320" flags="0x0"/>
    </TTGlyph>
    <TTGlyph name="Adieresis" xMin="-40" yMin="0" xMax="1092" yMax="1631">
      <component glyphName="A" x="0" y="0" flags="0x0"/>
      <component glyphName="uni0308.LP" x="1061" y="320" flags="0x0"/>
    </TTGlyph>
    <TTGlyph name="Agrave" xMin="-40" yMin="0" xMax="1092" yMax="1716">
      <component glyphName="A" x="0" y="0" flags="0x0"/>
      <component glyphName="gravecomb.LP" x="976" y="320" flags="0x0"/>
    </TTGlyph>
    <TTGlyph name="Amacron" xMin="-40" yMin="0" xMax="1092" yMax="1580">
      <component glyphName="A" x="0" y="0" flags="0x0"/>
      <component glyphName="uni0304.LP" x="1066" y="320" flags="0x0"/>
    </TTGlyph>
    <TTGlyph name="Aring" xMin="-40" yMin="0" xMax="1092" yMax="1744">
      <component glyphName="A" x="0" y="0" flags="0x0"/>
      <component glyphName="uni030A" x="1055" y="320" flags="0x0"/>
    </TTGlyph>
    <TTGlyph name="Aringacute" xMin="-40" yMin="0" xMax="1100" yMax="2151">
      <component glyphName="A" x="0" y="0" flags="0x0"/>
      <component glyphName="uni030A" x="1055" y="320" flags="0x0"/>
      <component glyphName="acutecomb.LP" x="1109" y="755" flags="0x0"/>
    </TTGlyph>
    <TTGlyph name="Atilde" xMin="-40" yMin="0" xMax="1092" yMax="1642">
      <component glyphName="A" x="0" y="0" flags="0x0"/>
      <component glyphName="tildecomb.LP" x="1056" y="320" flags="0x0"/>
    </TTGlyph>
    <TTGlyph name="B" xMin="-3" yMin="-31" xMax="964" yMax="1290">
      <contour>
        <pt x="964" y="410" on="1"/>
        <pt x="964" y="312" on="0"/>
        <pt x="885" y="150" on="0"/>
        <pt x="751" y="34" on="0"/>
        <pt x="571" y="-31" on="0"/>
        <pt x="471" y="-31" on="1"/>
        <pt x="451" y="-31" on="0"/>
        <pt x="394" y="-29" on="0"/>
        <pt x="329" y="-24" on="0"/>
        <pt x="259" y="-19" on="0"/>
        <pt x="226" y="-16" on="1"/>
        <pt x="148" y="-9" on="0"/>
        <pt x="61" y="0" on="1"/>
        <pt x="-3" y="0" on="1"/>
        <pt x="4" y="53" on="1"/>
        <pt x="67" y="67" on="0"/>
        <pt x="140" y="100" on="0"/>
        <pt x="142" y="114" on="1"/>
        <pt x="289" y="1185" on="1"/>
        <pt x="246" y="1180" on="0"/>
        <pt x="174" y="1166" on="0"/>
        <pt x="139" y="1158" on="1"/>
        <pt x="139" y="1227" on="1"/>
        <pt x="231" y="1253" on="0"/>
        <pt x="449" y="1290" on="0"/>
        <pt x="588" y="1290" on="1"/>
        <pt x="765" y="1290" on="0"/>
        <pt x="958" y="1158" on="0"/>
        <pt x="958" y="1040" on="1"/>
        <pt x="958" y="988" on="0"/>
        <pt x="925" y="891" on="0"/>
        <pt x="864" y="808" on="0"/>
        <pt x="779" y="743" on="0"/>
        <pt x="727" y="723" on="1"/>
        <pt x="779" y="712" on="0"/>
        <pt x="867" y="657" on="0"/>
        <pt x="929" y="574" on="0"/>
        <pt x="964" y="470" on="0"/>
      </contour>
      <contour>
        <pt x="528" y="644" on="1"/>
        <pt x="484" y="644" on="0"/>
        <pt x="419" y="635" on="0"/>
        <pt x="388" y="630" on="1"/>
        <pt x="317" y="114" on="1"/>
        <pt x="315" y="107" on="0"/>
        <pt x="329" y="94" on="1"/>
        <pt x="365" y="76" on="0"/>
        <pt x="460" y="63" on="0"/>
        <pt x="502" y="63" on="1"/>
        <pt x="566" y="63" on="0"/>
        <pt x="668" y="115" on="0"/>
        <pt x="740" y="202" on="0"/>
        <pt x="778" y="314" on="0"/>
        <pt x="778" y="375" on="1"/>
        <pt x="778" y="425" on="0"/>
        <pt x="751" y="521" on="0"/>
        <pt x="692" y="597" on="0"/>
        <pt x="597" y="644" on="0"/>
      </contour>
      <contour>
        <pt x="556" y="1199" on="1"/>
        <pt x="508" y="1199" on="1"/>
        <pt x="486" y="1199" on="0"/>
        <pt x="466" y="1198" on="1"/>
        <pt x="402" y="730" on="1"/>
        <pt x="434" y="730" on="1"/>
        <pt x="498" y="730" on="0"/>
        <pt x="620" y="753" on="0"/>
        <pt x="715" y="812" on="0"/>
        <pt x="772" y="911" on="0"/>
        <pt x="772" y="987" on="1"/>
        <pt x="772" y="1047" on="0"/>
        <pt x="730" y="1128" on="0"/>
        <pt x="667" y="1177" on="0"/>
        <pt x="590" y="1199" on="0"/>
      </contour>
    </TTGlyph>
    <TTGlyph name="C" xMin="71" yMin="-27" xMax="1040" yMax="1290">
      <contour>
        <pt x="1036" y="1190" on="1"/>
        <pt x="1040" y="1185" on="0"/>
        <pt x="1016" y="1143" on="0"/>
        <pt x="978" y="1091" on="0"/>
        <pt x="937" y="1041" on="0"/>
        <pt x="924" y="1030" on="1"/>
        <pt x="884" y="1040" on="1"/>
        <pt x="866" y="1065" on="0"/>
        <pt x="820" y="1111" on="0"/>
        <pt x="762" y="1144" on="0"/>
        <pt x="693" y="1164" on="0"/>
        <pt x="652" y="1164" on="1"/>
        <pt x="612" y="1164" on="0"/>
        <pt x="521" y="1131" on="0"/>
        <pt x="481" y="1100" on="1"/>
        <pt x="418" y="1051" on="0"/>
        <pt x="331" y="903" on="0"/>
        <pt x="276" y="740" on="0"/>
        <pt x="252" y="579" on="0"/>
        <pt x="252" y="516" on="1"/>
        <pt x="252" y="407" on="0"/>
        <pt x="310" y="252" on="0"/>
        <pt x="400" y="154" on="0"/>
        <pt x="508" y="109" on="0"/>
        <pt x="558" y="109" on="1"/>
        <pt x="585" y="109" on="0"/>
        <pt x="651" y="123" on="0"/>
        <pt x="732" y="159" on="0"/>
        <pt x="828" y="219" on="0"/>
        <pt x="886" y="264" on="1"/>
        <pt x="891" y="262" on="0"/>
        <pt x="900" y="247" on="0"/>
        <pt x="908" y="230" on="0"/>
        <pt x="915" y="214" on="0"/>
        <pt x="917" y="211" on="1"/>
        <pt x="849" y="143" on="0"/>
        <pt x="727" y="52" on="0"/>
        <pt x="614" y="-4" on="0"/>
        <pt x="512" y="-27" on="0"/>
        <pt x="465" y="-27" on="1"/>
        <pt x="386" y="-27" on="0"/>
        <pt x="243" y="38" on="0"/>
        <pt x="135" y="162" on="0"/>
        <pt x="71" y="343" on="0"/>
        <pt x="71" y="459" on="1"/>
        <pt x="71" y="553" on="0"/>
        <pt x="109" y="748" on="0"/>
        <pt x="188" y="933" on="0"/>
        <pt x="311" y="1100" on="0"/>
        <pt x="395" y="1167" on="1"/>
        <pt x="468" y="1224" on="0"/>
        <pt x="647" y="1290" on="0"/>
        <pt x="741" y="1290" on="1"/>
        <pt x="840" y="1290" on="0"/>
        <pt x="992" y="1232" on="0"/>
      </contour>
    </TTGlyph>
    <TTGlyph name="Cacute" xMin="71" yMin="-27" xMax="1040" yMax="1716">
      <component glyphName="C" x="0" y="0" flags="0x0"/>
      <component glyphName="acutecomb.LP" x="1044" y="320" flags="0x0"/>
    </TTGlyph>
    <TTGlyph name="Ccaron" xMin="71" yMin="-27" xMax="1040" yMax="1726">
      <component glyphName="C" x="0" y="0" flags="0x0"/>
      <component glyphName="uni030C.LP" x="1051" y="320" flags="0x0"/>
    </TTGlyph>
    <TTGlyph name="Ccedilla" xMin="71" yMin="-411" xMax="1040" yMax="1290">
      <contour>
        <pt x="605" y="-221" on="1"/>
        <pt x="605" y="-274" on="0"/>
        <pt x="541" y="-362" on="0"/>
        <pt x="438" y="-411" on="0"/>
        <pt x="308" y="-411" on="0"/>
        <pt x="243" y="-375" on="1"/>
        <pt x="241" y="-326" on="1"/>
        <pt x="290" y="-348" on="0"/>
        <pt x="367" y="-352" on="0"/>
        <pt x="421" y="-329" on="0"/>
        <pt x="450" y="-289" on="0"/>
        <pt x="450" y="-266" on="1"/>
        <pt x="450" y="-241" on="0"/>
        <pt x="406" y="-213" on="0"/>
        <pt x="365" y="-215" on="1"/>
        <pt x="379" y="-179" on="0"/>
        <pt x="400" y="-123" on="0"/>
        <pt x="416" y="-72" on="0"/>
        <pt x="422" y="-48" on="1"/>
        <pt x="425" y="-37" on="0"/>
        <pt x="427" y="-25" on="1"/>
        <pt x="369" y="-19" on="0"/>
        <pt x="314" y="5" on="1"/>
        <pt x="243" y="38" on="0"/>
        <pt x="135" y="162" on="0"/>
        <pt x="71" y="343" on="0"/>
        <pt x="71" y="459" on="1"/>
        <pt x="71" y="553" on="0"/>
        <pt x="109" y="748" on="0"/>
        <pt x="188" y="933" on="0"/>
        <pt x="311" y="1100" on="0"/>
        <pt x="395" y="1167" on="1"/>
        <pt x="468" y="1224" on="0"/>
        <pt x="647" y="1290" on="0"/>
        <pt x="741" y="1290" on="1"/>
        <pt x="840" y="1290" on="0"/>
        <pt x="992" y="1232" on="0"/>
        <pt x="1036" y="1190" on="1"/>
        <pt x="1040" y="1185" on="0"/>
        <pt x="1016" y="1143" on="0"/>
        <pt x="978" y="1091" on="0"/>
        <pt x="937" y="1041" on="0"/>
        <pt x="924" y="1030" on="1"/>
        <pt x="884" y="1040" on="1"/>
        <pt x="866" y="1065" on="0"/>
        <pt x="820" y="1111" on="0"/>
        <pt x="762" y="1144" on="0"/>
        <pt x="693" y="1164" on="0"/>
        <pt x="652" y="1164" on="1"/>
        <pt x="612" y="1164" on="0"/>
        <pt x="521" y="1131" on="0"/>
        <pt x="481" y="1100" on="1"/>
        <pt x="418" y="1051" on="0"/>
        <pt x="331" y="903" on="0"/>
        <pt x="276" y="740" on="0"/>
        <pt x="252" y="579" on="0"/>
        <pt x="252" y="516" on="1"/>
        <pt x="252" y="407" on="0"/>
        <pt x="310" y="252" on="0"/>
        <pt x="400" y="154" on="0"/>
        <pt x="508" y="109" on="0"/>
        <pt x="558" y="109" on="1"/>
        <pt x="585" y="109" on="0"/>
        <pt x="651" y="123" on="0"/>
        <pt x="732" y="159" on="0"/>
        <pt x="828" y="219" on="0"/>
        <pt x="886" y="264" on="1"/>
        <pt x="891" y="262" on="0"/>
        <pt x="900" y="247" on="0"/>
        <pt x="908" y="230" on="0"/>
        <pt x="915" y="214" on="0"/>
        <pt x="917" y="211" on="1"/>
        <pt x="849" y="143" on="0"/>
        <pt x="727" y="52" on="0"/>
        <pt x="614" y="-4" on="0"/>
        <pt x="563" y="-15" on="1"/>
        <pt x="534" y="-22" on="0"/>
        <pt x="506" y="-25" on="1"/>
        <pt x="502" y="-45" on="0"/>
        <pt x="499" y="-61" on="1"/>
        <pt x="493" y="-87" on="0"/>
        <pt x="487" y="-108" on="1"/>
        <pt x="542" y="-110" on="0"/>
        <pt x="605" y="-172" on="0"/>
      </contour>
    </TTGlyph>
    <TTGlyph name="Ccircumflex" xMin="71" yMin="-27" xMax="1040" yMax="1697">
      <component glyphName="C" x="0" y="0" flags="0x0"/>
      <component glyphName="uni0302.LP" x="1046" y="320" flags="0x0"/>
    </TTGlyph>
    <TTGlyph name="Cdotaccent" xMin="71" yMin="-27" xMax="1040" yMax="1631">
      <component glyphName="C" x="0" y="0" flags="0x0"/>
      <component glyphName="uni0307.LP" x="1047" y="320" flags="0x0"/>
    </TTGlyph>
    <TTGlyph name="D" xMin="-3" yMin="0" xMax="1112" yMax="1290">
      <contour>
        <pt x="527" y="1199" on="1"/>
        <pt x="512" y="1199" on="0"/>
        <pt x="482" y="1198" on="0"/>
        <pt x="467" y="1197" on="1"/>
        <pt x="324" y="147" on="1"/>
        <pt x="322" y="132" on="0"/>
        <pt x="333" y="112" on="0"/>
        <pt x="366" y="98" on="0"/>
        <pt x="425" y="92" on="0"/>
        <pt x="470" y="92" on="1"/>
        <pt x="542" y="92" on="0"/>
        <pt x="665" y="147" on="0"/>
        <pt x="765" y="241" on="0"/>
        <pt x="842" y="367" on="0"/>
        <pt x="893" y="508" on="0"/>
        <pt x="920" y="657" on="0"/>
        <pt x="920" y="727" on="1"/>
        <pt x="920" y="834" on="0"/>
        <pt x="871" y="1008" on="0"/>
        <pt x="773" y="1132" on="0"/>
        <pt x="625" y="1199" on="0"/>
      </contour>
      <contour>
        <pt x="1112" y="748" on="1"/>
        <pt x="1112" y="660" on="0"/>
        <pt x="1075" y="481" on="0"/>
        <pt x="1004" y="315" on="0"/>
        <pt x="898" y="169" on="0"/>
        <pt x="760" y="62" on="0"/>
        <pt x="590" y="0" on="0"/>
        <pt x="491" y="0" on="1"/>
        <pt x="-3" y="0" on="1"/>
        <pt x="5" y="53" on="1"/>
        <pt x="68" y="67" on="0"/>
        <pt x="141" y="100" on="0"/>
        <pt x="143" y="114" on="1"/>
        <pt x="290" y="1182" on="1"/>
        <pt x="141" y="1164" on="1"/>
        <pt x="141" y="1237" on="1"/>
        <pt x="256" y="1265" on="0"/>
        <pt x="493" y="1290" on="0"/>
        <pt x="596" y="1290" on="1"/>
        <pt x="722" y="1290" on="0"/>
        <pt x="915" y="1213" on="0"/>
        <pt x="1046" y="1072" on="0"/>
        <pt x="1112" y="872" on="0"/>
      </contour>
    </TTGlyph>
    <TTGlyph name="Dcaron" xMin="-3" yMin="0" xMax="1112" yMax="1726">
      <component glyphName="D" x="0" y="0" flags="0x0"/>
      <component glyphName="uni030C.LP" x="1033" y="320" flags="0x0"/>
    </TTGlyph>
    <TTGlyph name="Dcroat" xMin="-3" yMin="0" xMax="1112" yMax="1290">
      <contour>
        <pt x="527" y="1199" on="1"/>
        <pt x="512" y="1199" on="0"/>
        <pt x="482" y="1198" on="0"/>
        <pt x="467" y="1197" on="1"/>
        <pt x="400" y="710" on="1"/>
        <pt x="634" y="710" on="1"/>
        <pt x="656" y="684" on="1"/>
        <pt x="620" y="609" on="1"/>
        <pt x="387" y="609" on="1"/>
        <pt x="324" y="147" on="1"/>
        <pt x="322" y="132" on="0"/>
        <pt x="333" y="112" on="0"/>
        <pt x="366" y="98" on="0"/>
        <pt x="425" y="92" on="0"/>
        <pt x="470" y="92" on="1"/>
        <pt x="542" y="92" on="0"/>
        <pt x="665" y="147" on="0"/>
        <pt x="765" y="241" on="0"/>
        <pt x="842" y="367" on="0"/>
        <pt x="893" y="508" on="0"/>
        <pt x="920" y="657" on="0"/>
        <pt x="920" y="727" on="1"/>
        <pt x="920" y="834" on="0"/>
        <pt x="871" y="1008" on="0"/>
        <pt x="773" y="1132" on="0"/>
        <pt x="625" y="1199" on="0"/>
      </contour>
      <contour>
        <pt x="1112" y="748" on="1"/>
        <pt x="1112" y="660" on="0"/>
        <pt x="1075" y="481" on="0"/>
        <pt x="1004" y="315" on="0"/>
        <pt x="898" y="169" on="0"/>
        <pt x="760" y="62" on="0"/>
        <pt x="590" y="0" on="0"/>
        <pt x="491" y="0" on="1"/>
        <pt x="-3" y="0" on="1"/>
        <pt x="5" y="53" on="1"/>
        <pt x="68" y="67" on="0"/>
        <pt x="141" y="100" on="0"/>
        <pt x="143" y="114" on="1"/>
        <pt x="211" y="609" on="1"/>
        <pt x="87" y="609" on="1"/>
        <pt x="67" y="636" on="1"/>
        <pt x="102" y="710" on="1"/>
        <pt x="225" y="710" on="1"/>
        <pt x="290" y="1182" on="1"/>
        <pt x="141" y="1164" on="1"/>
        <pt x="141" y="1237" on="1"/>
        <pt x="256" y="1265" on="0"/>
        <pt x="493" y="1290" on="0"/>
        <pt x="596" y="1290" on="1"/>
        <pt x="722" y="1290" on="0"/>
        <pt x="915" y="1213" on="0"/>
        <pt x="1046" y="1072" on="0"/>
        <pt x="1112" y="872" on="0"/>
      </contour>
    </TTGlyph>
    <TTGlyph name="Delta" xMin="38" yMin="0" xMax="1002" yMax="1317">
      <contour>
        <pt x="798" y="176" on="1"/>
        <pt x="764" y="337" on="0"/>
        <pt x="731" y="494" on="1"/>
        <pt x="717" y="561" on="0"/>
        <pt x="687" y="705" on="0"/>
        <pt x="658" y="847" on="0"/>
        <pt x="631" y="980" on="0"/>
        <pt x="620" y="1037" on="1"/>
        <pt x="590" y="974" on="0"/>
        <pt x="524" y="832" on="0"/>
        <pt x="457" y="688" on="0"/>
        <pt x="390" y="545" on="0"/>
        <pt x="360" y="480" on="1"/>
        <pt x="289" y="328" on="0"/>
        <pt x="217" y="176" on="1"/>
        <pt x="208" y="157" on="0"/>
        <pt x="202" y="136" on="0"/>
        <pt x="218" y="125" on="0"/>
        <pt x="264" y="123" on="0"/>
        <pt x="307" y="123" on="1"/>
        <pt x="690" y="123" on="1"/>
        <pt x="734" y="123" on="0"/>
        <pt x="782" y="125" on="0"/>
        <pt x="802" y="136" on="0"/>
        <pt x="801" y="157" on="0"/>
      </contour>
      <contour>
        <pt x="973" y="0" on="1"/>
        <pt x="47" y="0" on="1"/>
        <pt x="38" y="54" on="1"/>
        <pt x="151" y="290" on="0"/>
        <pt x="255" y="510" on="1"/>
        <pt x="299" y="604" on="0"/>
        <pt x="393" y="802" on="0"/>
        <pt x="482" y="992" on="0"/>
        <pt x="561" y="1162" on="0"/>
        <pt x="591" y="1227" on="1"/>
        <pt x="623" y="1255" on="0"/>
        <pt x="704" y="1300" on="0"/>
        <pt x="739" y="1317" on="1"/>
        <pt x="753" y="1243" on="0"/>
        <pt x="791" y="1056" on="0"/>
        <pt x="833" y="851" on="0"/>
        <pt x="878" y="638" on="0"/>
        <pt x="899" y="538" on="1"/>
        <pt x="948" y="303" on="0"/>
        <pt x="1002" y="54" on="1"/>
      </contour>
    </TTGlyph>
    <TTGlyph name="E" xMin="-3" yMin="0" xMax="962" yMax="1260">
      <contour>
        <pt x="886" y="264" on="1"/>
        <pt x="876" y="221" on="0"/>
        <pt x="855" y="139" on="0"/>
        <pt x="835" y="68" on="0"/>
        <pt x="818" y="15" on="0"/>
        <pt x="812" y="0" on="1"/>
        <pt x="-3" y="0" on="1"/>
        <pt x="5" y="53" on="1"/>
        <pt x="68" y="67" on="0"/>
        <pt x="142" y="100" on="0"/>
        <pt x="144" y="114" on="1"/>
        <pt x="287" y="1145" on="1"/>
        <pt x="289" y="1157" on="0"/>
        <pt x="229" y="1193" on="0"/>
        <pt x="164" y="1207" on="1"/>
        <pt x="171" y="1260" on="1"/>
        <pt x="935" y="1260" on="1"/>
        <pt x="962" y="1233" on="1"/>
        <pt x="957" y="1207" on="0"/>
        <pt x="941" y="1140" on="0"/>
        <pt x="921" y="1071" on="0"/>
        <pt x="900" y="1009" on="0"/>
        <pt x="892" y="990" on="1"/>
        <pt x="840" y="990" on="1"/>
        <pt x="849" y="1082" on="0"/>
        <pt x="822" y="1159" on="0"/>
        <pt x="787" y="1159" on="1"/>
        <pt x="460" y="1159" on="1"/>
        <pt x="402" y="735" on="1"/>
        <pt x="775" y="735" on="1"/>
        <pt x="797" y="705" on="1"/>
        <pt x="787" y="691" on="0"/>
        <pt x="762" y="658" on="0"/>
        <pt x="735" y="626" on="0"/>
        <pt x="708" y="599" on="0"/>
        <pt x="697" y="590" on="1"/>
        <pt x="682" y="606" on="0"/>
        <pt x="648" y="628" on="0"/>
        <pt x="598" y="640" on="0"/>
        <pt x="527" y="645" on="0"/>
        <pt x="475" y="645" on="1"/>
        <pt x="390" y="645" on="1"/>
        <pt x="325" y="164" on="1"/>
        <pt x="323" y="149" on="0"/>
        <pt x="333" y="126" on="0"/>
        <pt x="371" y="109" on="0"/>
        <pt x="444" y="100" on="0"/>
        <pt x="504" y="100" on="1"/>
        <pt x="615" y="100" on="1"/>
        <pt x="657" y="100" on="0"/>
        <pt x="717" y="114" on="0"/>
        <pt x="766" y="154" on="0"/>
        <pt x="811" y="226" on="0"/>
        <pt x="839" y="285" on="1"/>
      </contour>
    </TTGlyph>
    <TTGlyph name="Eacute" xMin="-3" yMin="0" xMax="962" yMax="1716">
      <component glyphName="E" x="0" y="0" flags="0x0"/>
      <component glyphName="acutecomb.LP" x="953" y="320" flags="0x0"/>
    </TTGlyph>
    <TTGlyph name="Ebreve" xMin="-3" yMin="0" xMax="962" yMax="1708">
      <component glyphName="E" x="0" y="0" flags="0x0"/>
      <component glyphName="uni0306" x="963" y="320" flags="0x0"/>
    </TTGlyph>
    <TTGlyph name="Ecaron" xMin="-3" yMin="0" xMax="962" yMax="1726">
      <component glyphName="E" x="0" y="0" flags="0x0"/>
      <component glyphName="uni030C.LP" x="960" y="320" flags="0x0"/>
    </TTGlyph>
    <TTGlyph name="Ecircumflex" xMin="-3" yMin="0" xMax="962" yMax="1697">
      <component glyphName="E" x="0" y="0" flags="0x0"/>
      <component glyphName="uni0302.LP" x="955" y="320" flags="0x0"/>
    </TTGlyph>
    <TTGlyph name="Edieresis" xMin="-3" yMin="0" xMax="962" yMax="1631">
      <component glyphName="E" x="0" y="0" flags="0x0"/>
      <component glyphName="uni0308.LP" x="960" y="320" flags="0x0"/>
    </TTGlyph>
    <TTGlyph name="Edotaccent" xMin="-3" yMin="0" xMax="962" yMax="1631">
      <component glyphName="E" x="0" y="0" flags="0x0"/>
      <component glyphName="uni0307.LP" x="956" y="320" flags="0x0"/>
    </TTGlyph>
    <TTGlyph name="Egrave" xMin="-3" yMin="0" xMax="962" yMax="1716">
      <component glyphName="E" x="0" y="0" flags="0x0"/>
      <component glyphName="gravecomb.LP" x="875" y="320" flags="0x0"/>
    </TTGlyph>
    <TTGlyph name="Emacron" xMin="-3" yMin="0" xMax="976" yMax="1580">
      <component glyphName="E" x="0" y="0" flags="0x0"/>
      <component glyphName="uni0304.LP" x="965" y="320" flags="0x0"/>
    </TTGlyph>
    <TTGlyph name="Eng" xMin="0" yMin="-447" xMax="1136" yMax="1290">
      <contour>
        <pt x="1136" y="1042" on="1"/>
        <pt x="1136" y="1001" on="0"/>
        <pt x="1130" y="950" on="1"/>
        <pt x="1030" y="222" on="1"/>
        <pt x="1016" y="119" on="0"/>
        <pt x="954" y="-56" on="0"/>
        <pt x="870" y="-200" on="0"/>
        <pt x="769" y="-312" on="0"/>
        <pt x="715" y="-352" on="1"/>
        <pt x="691" y="-371" on="0"/>
        <pt x="624" y="-405" on="0"/>
        <pt x="551" y="-431" on="0"/>
        <pt x="474" y="-447" on="0"/>
        <pt x="439" y="-447" on="1"/>
        <pt x="395" y="-447" on="0"/>
        <pt x="312" y="-420" on="0"/>
        <pt x="248" y="-382" on="0"/>
        <pt x="209" y="-341" on="0"/>
        <pt x="209" y="-326" on="1"/>
        <pt x="209" y="-318" on="0"/>
        <pt x="245" y="-275" on="0"/>
        <pt x="295" y="-230" on="0"/>
        <pt x="347" y="-195" on="0"/>
        <pt x="363" y="-195" on="1"/>
        <pt x="374" y="-195" on="0"/>
        <pt x="404" y="-232" on="0"/>
        <pt x="449" y="-276" on="0"/>
        <pt x="510" y="-313" on="0"/>
        <pt x="551" y="-313" on="1"/>
        <pt x="667" y="-313" on="0"/>
        <pt x="818" y="-81" on="0"/>
        <pt x="851" y="160" on="1"/>
        <pt x="943" y="842" on="1"/>
        <pt x="948" y="878" on="0"/>
        <pt x="954" y="949" on="0"/>
        <pt x="954" y="975" on="1"/>
        <pt x="954" y="1019" on="0"/>
        <pt x="938" y="1080" on="0"/>
        <pt x="908" y="1117" on="0"/>
        <pt x="866" y="1134" on="0"/>
        <pt x="840" y="1134" on="1"/>
        <pt x="812" y="1134" on="0"/>
        <pt x="730" y="1102" on="0"/>
        <pt x="637" y="1041" on="0"/>
        <pt x="541" y="952" on="0"/>
        <pt x="458" y="836" on="0"/>
        <pt x="398" y="696" on="0"/>
        <pt x="387" y="614" on="1"/>
        <pt x="319" y="114" on="1"/>
        <pt x="317" y="102" on="0"/>
        <pt x="379" y="67" on="0"/>
        <pt x="442" y="53" on="1"/>
        <pt x="435" y="0" on="1"/>
        <pt x="0" y="0" on="1"/>
        <pt x="7" y="53" on="1"/>
        <pt x="70" y="67" on="0"/>
        <pt x="144" y="100" on="0"/>
        <pt x="146" y="114" on="1"/>
        <pt x="271" y="1018" on="1"/>
        <pt x="280" y="1076" on="0"/>
        <pt x="276" y="1139" on="0"/>
        <pt x="242" y="1160" on="0"/>
        <pt x="174" y="1148" on="0"/>
        <pt x="117" y="1133" on="1"/>
        <pt x="104" y="1198" on="1"/>
        <pt x="156" y="1217" on="0"/>
        <pt x="255" y="1251" on="0"/>
        <pt x="338" y="1276" on="0"/>
        <pt x="400" y="1290" on="0"/>
        <pt x="416" y="1290" on="1"/>
        <pt x="441" y="1290" on="0"/>
        <pt x="459" y="1235" on="0"/>
        <pt x="459" y="1184" on="1"/>
        <pt x="459" y="1167" on="0"/>
        <pt x="455" y="1111" on="0"/>
        <pt x="448" y="1045" on="0"/>
        <pt x="437" y="974" on="0"/>
        <pt x="430" y="943" on="1"/>
        <pt x="493" y="1037" on="0"/>
        <pt x="629" y="1169" on="0"/>
        <pt x="763" y="1252" on="0"/>
        <pt x="886" y="1290" on="0"/>
        <pt x="934" y="1290" on="1"/>
        <pt x="968" y="1290" on="0"/>
        <pt x="1039" y="1267" on="0"/>
        <pt x="1098" y="1210" on="0"/>
        <pt x="1136" y="1114" on="0"/>
      </contour>
    </TTGlyph>
    <TTGlyph name="Eng.BaselineHook" xMin="0" yMin="-30" xMax="1191" yMax="1290">
      <contour>
        <pt x="0" y="0" on="1"/>
        <pt x="7" y="53" on="1"/>
        <pt x="70" y="67" on="0"/>
        <pt x="144" y="100" on="0"/>
        <pt x="146" y="114" on="1"/>
        <pt x="271" y="1018" on="1"/>
        <pt x="276" y="1057" on="0"/>
        <pt x="278" y="1110" on="0"/>
        <pt x="269" y="1142" on="0"/>
        <pt x="248" y="1156" on="0"/>
        <pt x="229" y="1156" on="1"/>
        <pt x="211" y="1156" on="0"/>
        <pt x="154" y="1144" on="0"/>
        <pt x="117" y="1133" on="1"/>
        <pt x="104" y="1198" on="1"/>
        <pt x="156" y="1217" on="0"/>
        <pt x="255" y="1251" on="0"/>
        <pt x="338" y="1276" on="0"/>
        <pt x="400" y="1290" on="0"/>
        <pt x="416" y="1290" on="1"/>
        <pt x="441" y="1290" on="0"/>
        <pt x="459" y="1236" on="0"/>
        <pt x="459" y="1187" on="1"/>
        <pt x="459" y="1171" on="0"/>
        <pt x="455" y="1112" on="0"/>
        <pt x="447" y="1042" on="0"/>
        <pt x="436" y="969" on="0"/>
        <pt x="429" y="939" on="1"/>
        <pt x="492" y="1028" on="0"/>
        <pt x="639" y="1160" on="0"/>
        <pt x="783" y="1247" on="0"/>
        <pt x="913" y="1290" on="0"/>
        <pt x="959" y="1290" on="1"/>
        <pt x="998" y="1290" on="0"/>
        <pt x="1081" y="1267" on="0"/>
        <pt x="1148" y="1210" on="0"/>
        <pt x="1191" y="1114" on="0"/>
        <pt x="1191" y="1042" on="1"/>
        <pt x="1191" y="1022" on="0"/>
        <pt x="1189" y="961" on="0"/>
        <pt x="1185" y="935" on="1"/>
        <pt x="1115" y="427" on="1"/>
        <pt x="1100" y="316" on="0"/>
        <pt x="1013" y="133" on="0"/>
        <pt x="949" y="74" on="1"/>
        <pt x="926" y="53" on="0"/>
        <pt x="876" y="15" on="0"/>
        <pt x="818" y="-13" on="0"/>
        <pt x="749" y="-30" on="0"/>
        <pt x="709" y="-30" on="1"/>
        <pt x="676" y="-30" on="0"/>
        <pt x="614" y="1" on="0"/>
        <pt x="566" y="45" on="0"/>
        <pt x="537" y="94" on="0"/>
        <pt x="537" y="112" on="1"/>
        <pt x="537" y="121" on="0"/>
        <pt x="575" y="159" on="0"/>
        <pt x="628" y="198" on="0"/>
        <pt x="682" y="228" on="0"/>
        <pt x="698" y="228" on="1"/>
        <pt x="704" y="217" on="0"/>
        <pt x="718" y="176" on="0"/>
        <pt x="742" y="136" on="0"/>
        <pt x="778" y="105" on="0"/>
        <pt x="807" y="105" on="1"/>
        <pt x="838" y="105" on="0"/>
        <pt x="881" y="154" on="0"/>
        <pt x="910" y="231" on="0"/>
        <pt x="929" y="327" on="0"/>
        <pt x="935" y="374" on="1"/>
        <pt x="997" y="827" on="1"/>
        <pt x="1002" y="865" on="0"/>
        <pt x="1008" y="946" on="0"/>
        <pt x="1008" y="975" on="1"/>
        <pt x="1008" y="1019" on="0"/>
        <pt x="987" y="1080" on="0"/>
        <pt x="950" y="1117" on="0"/>
        <pt x="897" y="1134" on="0"/>
        <pt x="865" y="1134" on="1"/>
        <pt x="839" y="1134" on="0"/>
        <pt x="755" y="1101" on="0"/>
        <pt x="656" y="1039" on="0"/>
        <pt x="552" y="948" on="0"/>
        <pt x="463" y="833" on="0"/>
        <pt x="398" y="694" on="0"/>
        <pt x="387" y="614" on="1"/>
        <pt x="319" y="114" on="1"/>
        <pt x="318" y="106" on="0"/>
        <pt x="331" y="87" on="0"/>
        <pt x="354" y="70" on="0"/>
        <pt x="384" y="56" on="0"/>
        <pt x="400" y="53" on="1"/>
        <pt x="393" y="0" on="1"/>
      </contour>
    </TTGlyph>
    <TTGlyph name="Eng.Kom" xMin="41" yMin="-30" xMax="1126" yMax="1290">
      <contour>
        <pt x="41" y="530" on="1"/>
        <pt x="48" y="583" on="1"/>
        <pt x="117" y="597" on="0"/>
        <pt x="199" y="630" on="0"/>
        <pt x="201" y="644" on="1"/>
        <pt x="252" y="1012" on="1"/>
        <pt x="259" y="1069" on="0"/>
        <pt x="260" y="1134" on="0"/>
        <pt x="229" y="1160" on="0"/>
        <pt x="159" y="1151" on="0"/>
        <pt x="97" y="1133" on="1"/>
        <pt x="85" y="1198" on="1"/>
        <pt x="135" y="1216" on="0"/>
        <pt x="233" y="1250" on="0"/>
        <pt x="316" y="1275" on="0"/>
        <pt x="381" y="1290" on="0"/>
        <pt x="398" y="1290" on="1"/>
        <pt x="423" y="1290" on="0"/>
        <pt x="439" y="1229" on="0"/>
        <pt x="439" y="1185" on="1"/>
        <pt x="438" y="1129" on="0"/>
        <pt x="429" y="1037" on="0"/>
        <pt x="422" y="982" on="1"/>
        <pt x="489" y="1071" on="0"/>
        <pt x="619" y="1190" on="0"/>
        <pt x="744" y="1261" on="0"/>
        <pt x="861" y="1290" on="0"/>
        <pt x="915" y="1290" on="1"/>
        <pt x="954" y="1290" on="0"/>
        <pt x="1030" y="1263" on="0"/>
        <pt x="1090" y="1205" on="0"/>
        <pt x="1126" y="1113" on="0"/>
        <pt x="1126" y="1048" on="1"/>
        <pt x="1126" y="1032" on="0"/>
        <pt x="1125" y="996" on="0"/>
        <pt x="1123" y="979" on="1"/>
        <pt x="1069" y="587" on="1"/>
        <pt x="1056" y="491" on="0"/>
        <pt x="1000" y="334" on="0"/>
        <pt x="927" y="208" on="0"/>
        <pt x="841" y="111" on="0"/>
        <pt x="797" y="75" on="1"/>
        <pt x="734" y="25" on="0"/>
        <pt x="584" y="-30" on="0"/>
        <pt x="486" y="-30" on="1"/>
        <pt x="414" y="-30" on="0"/>
        <pt x="295" y="9" on="0"/>
        <pt x="209" y="63" on="0"/>
        <pt x="162" y="119" on="0"/>
        <pt x="162" y="135" on="1"/>
        <pt x="162" y="145" on="0"/>
        <pt x="199" y="197" on="0"/>
        <pt x="249" y="252" on="0"/>
        <pt x="301" y="295" on="0"/>
        <pt x="316" y="295" on="1"/>
        <pt x="322" y="295" on="0"/>
        <pt x="343" y="266" on="0"/>
        <pt x="374" y="221" on="0"/>
        <pt x="415" y="170" on="0"/>
        <pt x="470" y="125" on="0"/>
        <pt x="537" y="96" on="0"/>
        <pt x="578" y="96" on="1"/>
        <pt x="708" y="96" on="0"/>
        <pt x="857" y="300" on="0"/>
        <pt x="887" y="514" on="1"/>
        <pt x="935" y="855" on="1"/>
        <pt x="937" y="870" on="0"/>
        <pt x="941" y="906" on="0"/>
        <pt x="944" y="941" on="0"/>
        <pt x="946" y="973" on="0"/>
        <pt x="946" y="984" on="1"/>
        <pt x="946" y="1065" on="0"/>
        <pt x="878" y="1134" on="0"/>
        <pt x="816" y="1134" on="1"/>
        <pt x="785" y="1134" on="0"/>
        <pt x="702" y="1103" on="0"/>
        <pt x="611" y="1046" on="0"/>
        <pt x="521" y="965" on="0"/>
        <pt x="445" y="867" on="0"/>
        <pt x="391" y="754" on="0"/>
        <pt x="382" y="692" on="1"/>
        <pt x="375" y="644" on="1"/>
        <pt x="375" y="643" on="1"/>
        <pt x="375" y="631" on="0"/>
        <pt x="447" y="597" on="0"/>
        <pt x="517" y="583" on="1"/>
        <pt x="510" y="530" on="1"/>
      </contour>
    </TTGlyph>
    <TTGlyph name="Eng.UCStyle" xMin="-1" yMin="-385" xMax="1313" yMax="1260">
      <contour>
        <pt x="1306" y="1207" on="1"/>
        <pt x="1239" y="1197" on="0"/>
        <pt x="1173" y="1162" on="0"/>
        <pt x="1171" y="1145" on="1"/>
        <pt x="1047" y="237" on="1"/>
        <pt x="1030" y="109" on="0"/>
        <pt x="992" y="-64" on="0"/>
        <pt x="944" y="-183" on="0"/>
        <pt x="883" y="-261" on="0"/>
        <pt x="843" y="-293" on="1"/>
        <pt x="816" y="-314" on="0"/>
        <pt x="755" y="-348" on="0"/>
        <pt x="693" y="-372" on="0"/>
        <pt x="636" y="-385" on="0"/>
        <pt x="614" y="-385" on="1"/>
        <pt x="584" y="-385" on="0"/>
        <pt x="526" y="-366" on="0"/>
        <pt x="482" y="-339" on="0"/>
        <pt x="455" y="-310" on="0"/>
        <pt x="456" y="-300" on="1"/>
        <pt x="457" y="-291" on="0"/>
        <pt x="490" y="-255" on="0"/>
        <pt x="534" y="-216" on="0"/>
        <pt x="579" y="-184" on="0"/>
        <pt x="592" y="-180" on="1"/>
        <pt x="631" y="-208" on="0"/>
        <pt x="696" y="-247" on="0"/>
        <pt x="737" y="-247" on="1"/>
        <pt x="756" y="-247" on="0"/>
        <pt x="798" y="-225" on="0"/>
        <pt x="839" y="-167" on="0"/>
        <pt x="879" y="-65" on="0"/>
        <pt x="896" y="16" on="1"/>
        <pt x="883" y="23" on="0"/>
        <pt x="866" y="44" on="0"/>
        <pt x="859" y="57" on="1"/>
        <pt x="378" y="977" on="1"/>
        <pt x="260" y="114" on="1"/>
        <pt x="258" y="102" on="0"/>
        <pt x="311" y="64" on="0"/>
        <pt x="380" y="53" on="1"/>
        <pt x="373" y="0" on="1"/>
        <pt x="-1" y="0" on="1"/>
        <pt x="7" y="53" on="1"/>
        <pt x="75" y="62" on="0"/>
        <pt x="141" y="100" on="0"/>
        <pt x="143" y="114" on="1"/>
        <pt x="285" y="1141" on="1"/>
        <pt x="259" y="1171" on="0"/>
        <pt x="198" y="1200" on="0"/>
        <pt x="158" y="1207" on="1"/>
        <pt x="165" y="1260" on="1"/>
        <pt x="369" y="1260" on="1"/>
        <pt x="389" y="1260" on="0"/>
        <pt x="412" y="1257" on="0"/>
        <pt x="430" y="1242" on="0"/>
        <pt x="448" y="1210" on="0"/>
        <pt x="462" y="1182" on="1"/>
        <pt x="936" y="276" on="1"/>
        <pt x="1054" y="1145" on="1"/>
        <pt x="1055" y="1151" on="0"/>
        <pt x="1044" y="1168" on="0"/>
        <pt x="1016" y="1185" on="0"/>
        <pt x="969" y="1201" on="0"/>
        <pt x="933" y="1207" on="1"/>
        <pt x="940" y="1260" on="1"/>
        <pt x="1313" y="1260" on="1"/>
      </contour>
    </TTGlyph>
    <TTGlyph name="Eth" xMin="-3" yMin="0" xMax="1112" yMax="1290">
      <contour>
        <pt x="527" y="1199" on="1"/>
        <pt x="512" y="1199" on="0"/>
        <pt x="482" y="1198" on="0"/>
        <pt x="467" y="1197" on="1"/>
        <pt x="400" y="710" on="1"/>
        <pt x="634" y="710" on="1"/>
        <pt x="656" y="684" on="1"/>
        <pt x="620" y="609" on="1"/>
        <pt x="387" y="609" on="1"/>
        <pt x="324" y="147" on="1"/>
        <pt x="322" y="132" on="0"/>
        <pt x="333" y="112" on="0"/>
        <pt x="366" y="98" on="0"/>
        <pt x="425" y="92" on="0"/>
        <pt x="470" y="92" on="1"/>
        <pt x="542" y="92" on="0"/>
        <pt x="665" y="147" on="0"/>
        <pt x="765" y="241" on="0"/>
        <pt x="842" y="367" on="0"/>
        <pt x="893" y="508" on="0"/>
        <pt x="920" y="657" on="0"/>
        <pt x="920" y="727" on="1"/>
        <pt x="920" y="834" on="0"/>
        <pt x="871" y="1008" on="0"/>
        <pt x="773" y="1132" on="0"/>
        <pt x="625" y="1199" on="0"/>
      </contour>
      <contour>
        <pt x="1112" y="748" on="1"/>
        <pt x="1112" y="660" on="0"/>
        <pt x="1075" y="481" on="0"/>
        <pt x="1004" y="315" on="0"/>
        <pt x="898" y="169" on="0"/>
        <pt x="760" y="62" on="0"/>
        <pt x="590" y="0" on="0"/>
        <pt x="491" y="0" on="1"/>
        <pt x="-3" y="0" on="1"/>
        <pt x="5" y="53" on="1"/>
        <pt x="68" y="67" on="0"/>
        <pt x="141" y="100" on="0"/>
        <pt x="143" y="114" on="1"/>
        <pt x="211" y="609" on="1"/>
        <pt x="87" y="609" on="1"/>
        <pt x="67" y="636" on="1"/>
        <pt x="102" y="710" on="1"/>
        <pt x="225" y="710" on="1"/>
        <pt x="290" y="1182" on="1"/>
        <pt x="141" y="1164" on="1"/>
        <pt x="141" y="1237" on="1"/>
        <pt x="256" y="1265" on="0"/>
        <pt x="493" y="1290" on="0"/>
        <pt x="596" y="1290" on="1"/>
        <pt x="722" y="1290" on="0"/>
        <pt x="915" y="1213" on="0"/>
        <pt x="1046" y="1072" on="0"/>
        <pt x="1112" y="872" on="0"/>
      </contour>
    </TTGlyph>
    <TTGlyph name="Euro" xMin="-18" yMin="-30" xMax="903" yMax="1235">
      <contour>
        <pt x="544" y="456" on="1"/>
        <pt x="256" y="456" on="1"/>
        <pt x="254" y="356" on="0"/>
        <pt x="287" y="219" on="0"/>
        <pt x="347" y="135" on="0"/>
        <pt x="427" y="98" on="0"/>
        <pt x="471" y="98" on="1"/>
        <pt x="498" y="98" on="0"/>
        <pt x="552" y="113" on="0"/>
        <pt x="618" y="149" on="0"/>
        <pt x="698" y="210" on="0"/>
        <pt x="751" y="256" on="1"/>
        <pt x="761" y="248" on="0"/>
        <pt x="776" y="213" on="0"/>
        <pt x="782" y="204" on="1"/>
        <pt x="718" y="136" on="0"/>
        <pt x="615" y="46" on="0"/>
        <pt x="522" y="-8" on="0"/>
        <pt x="435" y="-30" on="0"/>
        <pt x="387" y="-30" on="1"/>
        <pt x="318" y="-30" on="0"/>
        <pt x="201" y="29" on="0"/>
        <pt x="118" y="149" on="0"/>
        <pt x="76" y="332" on="0"/>
        <pt x="82" y="456" on="1"/>
        <pt x="0" y="456" on="1"/>
        <pt x="-18" y="484" on="1"/>
        <pt x="-12" y="499" on="0"/>
        <pt x="6" y="541" on="0"/>
        <pt x="14" y="557" on="1"/>
        <pt x="91" y="557" on="1"/>
        <pt x="93" y="569" on="1"/>
        <pt x="97" y="598" on="0"/>
        <pt x="107" y="654" on="0"/>
        <pt x="112" y="681" on="1"/>
        <pt x="58" y="681" on="1"/>
        <pt x="40" y="709" on="1"/>
        <pt x="46" y="724" on="0"/>
        <pt x="64" y="766" on="0"/>
        <pt x="72" y="782" on="1"/>
        <pt x="139" y="782" on="1"/>
        <pt x="173" y="895" on="0"/>
        <pt x="277" y="1065" on="0"/>
        <pt x="408" y="1178" on="0"/>
        <pt x="564" y="1235" on="0"/>
        <pt x="651" y="1235" on="1"/>
        <pt x="696" y="1235" on="0"/>
        <pt x="769" y="1219" on="0"/>
        <pt x="829" y="1192" on="0"/>
        <pt x="878" y="1156" on="0"/>
        <pt x="899" y="1135" on="1"/>
        <pt x="903" y="1130" on="0"/>
        <pt x="880" y="1092" on="0"/>
        <pt x="844" y="1044" on="0"/>
        <pt x="804" y="999" on="0"/>
        <pt x="792" y="987" on="1"/>
        <pt x="753" y="996" on="1"/>
        <pt x="735" y="1024" on="0"/>
        <pt x="699" y="1069" on="0"/>
        <pt x="655" y="1101" on="0"/>
        <pt x="599" y="1118" on="0"/>
        <pt x="560" y="1118" on="1"/>
        <pt x="530" y="1118" on="0"/>
        <pt x="461" y="1090" on="0"/>
        <pt x="392" y="1015" on="0"/>
        <pt x="327" y="885" on="0"/>
        <pt x="302" y="782" on="1"/>
        <pt x="625" y="782" on="1"/>
        <pt x="647" y="757" on="1"/>
        <pt x="612" y="681" on="1"/>
        <pt x="281" y="681" on="1"/>
        <pt x="277" y="661" on="0"/>
        <pt x="271" y="620" on="0"/>
        <pt x="268" y="598" on="1"/>
        <pt x="266" y="587" on="0"/>
        <pt x="265" y="577" on="1"/>
        <pt x="263" y="557" on="1"/>
        <pt x="558" y="557" on="1"/>
        <pt x="580" y="532" on="1"/>
      </contour>
    </TTGlyph>
    <TTGlyph name="F" xMin="-3" yMin="0" xMax="970" yMax="1260">
      <contour>
        <pt x="970" y="1233" on="1"/>
        <pt x="965" y="1207" on="0"/>
        <pt x="949" y="1140" on="0"/>
        <pt x="929" y="1071" on="0"/>
        <pt x="909" y="1009" on="0"/>
        <pt x="901" y="990" on="1"/>
        <pt x="850" y="990" on="1"/>
        <pt x="857" y="1082" on="0"/>
        <pt x="830" y="1159" on="0"/>
        <pt x="795" y="1159" on="1"/>
        <pt x="460" y="1159" on="1"/>
        <pt x="402" y="735" on="1"/>
        <pt x="729" y="735" on="1"/>
        <pt x="754" y="705" on="1"/>
        <pt x="743" y="690" on="0"/>
        <pt x="717" y="657" on="0"/>
        <pt x="690" y="625" on="0"/>
        <pt x="664" y="599" on="0"/>
        <pt x="654" y="590" on="1"/>
        <pt x="638" y="606" on="0"/>
        <pt x="602" y="628" on="0"/>
        <pt x="557" y="640" on="0"/>
        <pt x="502" y="645" on="0"/>
        <pt x="468" y="645" on="1"/>
        <pt x="389" y="645" on="1"/>
        <pt x="317" y="114" on="1"/>
        <pt x="315" y="102" on="0"/>
        <pt x="381" y="72" on="0"/>
        <pt x="468" y="53" on="1"/>
        <pt x="461" y="0" on="1"/>
        <pt x="-3" y="0" on="1"/>
        <pt x="5" y="53" on="1"/>
        <pt x="68" y="67" on="0"/>
        <pt x="142" y="100" on="0"/>
        <pt x="144" y="114" on="1"/>
        <pt x="287" y="1145" on="1"/>
        <pt x="289" y="1157" on="0"/>
        <pt x="229" y="1193" on="0"/>
        <pt x="164" y="1207" on="1"/>
        <pt x="171" y="1260" on="1"/>
        <pt x="944" y="1260" on="1"/>
      </contour>
    </TTGlyph>
    <TTGlyph name="G" xMin="71" yMin="-31" xMax="1084" yMax="1290">
      <contour>
        <pt x="1078" y="542" on="1"/>
        <pt x="1024" y="526" on="0"/>
        <pt x="974" y="483" on="0"/>
        <pt x="971" y="460" on="1"/>
        <pt x="967" y="433" on="0"/>
        <pt x="956" y="347" on="0"/>
        <pt x="944" y="257" on="0"/>
        <pt x="934" y="178" on="0"/>
        <pt x="932" y="159" on="1"/>
        <pt x="856" y="98" on="0"/>
        <pt x="736" y="24" on="0"/>
        <pt x="636" y="-17" on="0"/>
        <pt x="550" y="-31" on="0"/>
        <pt x="510" y="-31" on="1"/>
        <pt x="424" y="-31" on="0"/>
        <pt x="265" y="38" on="0"/>
        <pt x="144" y="168" on="0"/>
        <pt x="71" y="358" on="0"/>
        <pt x="71" y="478" on="1"/>
        <pt x="71" y="573" on="0"/>
        <pt x="115" y="763" on="0"/>
        <pt x="195" y="937" on="0"/>
        <pt x="306" y="1087" on="0"/>
        <pt x="374" y="1141" on="1"/>
        <pt x="459" y="1210" on="0"/>
        <pt x="668" y="1290" on="0"/>
        <pt x="796" y="1290" on="1"/>
        <pt x="827" y="1290" on="0"/>
        <pt x="903" y="1276" on="0"/>
        <pt x="980" y="1250" on="0"/>
        <pt x="1049" y="1212" on="0"/>
        <pt x="1075" y="1188" on="1"/>
        <pt x="1081" y="1183" on="0"/>
        <pt x="1057" y="1140" on="0"/>
        <pt x="1018" y="1089" on="0"/>
        <pt x="975" y="1041" on="0"/>
        <pt x="961" y="1030" on="1"/>
        <pt x="923" y="1038" on="1"/>
        <pt x="876" y="1105" on="0"/>
        <pt x="751" y="1169" on="0"/>
        <pt x="657" y="1169" on="1"/>
        <pt x="617" y="1169" on="0"/>
        <pt x="512" y="1118" on="0"/>
        <pt x="459" y="1073" on="1"/>
        <pt x="412" y="1034" on="0"/>
        <pt x="335" y="904" on="0"/>
        <pt x="280" y="751" on="0"/>
        <pt x="250" y="591" on="0"/>
        <pt x="250" y="521" on="1"/>
        <pt x="250" y="414" on="0"/>
        <pt x="312" y="258" on="0"/>
        <pt x="409" y="157" on="0"/>
        <pt x="529" y="108" on="0"/>
        <pt x="588" y="108" on="1"/>
        <pt x="636" y="108" on="0"/>
        <pt x="731" y="135" on="0"/>
        <pt x="766" y="161" on="1"/>
        <pt x="806" y="460" on="1"/>
        <pt x="807" y="470" on="0"/>
        <pt x="798" y="490" on="0"/>
        <pt x="754" y="510" on="0"/>
        <pt x="667" y="530" on="0"/>
        <pt x="592" y="542" on="1"/>
        <pt x="598" y="595" on="1"/>
        <pt x="1084" y="595" on="1"/>
      </contour>
    </TTGlyph>
    <TTGlyph name="Gbreve" xMin="71" yMin="-31" xMax="1084" yMax="1708">
      <component glyphName="G" x="0" y="0" flags="0x0"/>
      <component glyphName="uni0306" x="1089" y="320" flags="0x0"/>
    </TTGlyph>
    <TTGlyph name="Gcaron" xMin="71" yMin="-31" xMax="1084" yMax="1726">
      <component glyphName="G" x="0" y="0" flags="0x0"/>
      <component glyphName="uni030C.LP" x="1086" y="320" flags="0x0"/>
    </TTGlyph>
    <TTGlyph name="Gcircumflex" xMin="71" yMin="-31" xMax="1084" yMax="1697">
      <component glyphName="G" x="0" y="0" flags="0x0"/>
      <component glyphName="uni0302.LP" x="1081" y="320" flags="0x0"/>
    </TTGlyph>
    <TTGlyph name="Gdotaccent" xMin="71" yMin="-31" xMax="1084" yMax="1631">
      <component glyphName="G" x="0" y="0" flags="0x0"/>
      <component glyphName="uni0307.LP" x="1082" y="320" flags="0x0"/>
    </TTGlyph>
    <TTGlyph name="H" xMin="-3" yMin="0" xMax="1312" yMax="1260">
      <contour>
        <pt x="599" y="1207" on="1"/>
        <pt x="536" y="1193" on="0"/>
        <pt x="462" y="1159" on="0"/>
        <pt x="459" y="1145" on="1"/>
        <pt x="400" y="710" on="1"/>
        <pt x="931" y="710" on="1"/>
        <pt x="991" y="1145" on="1"/>
        <pt x="993" y="1157" on="0"/>
        <pt x="933" y="1193" on="0"/>
        <pt x="869" y="1207" on="1"/>
        <pt x="875" y="1260" on="1"/>
        <pt x="1312" y="1260" on="1"/>
        <pt x="1305" y="1207" on="1"/>
        <pt x="1241" y="1193" on="0"/>
        <pt x="1167" y="1159" on="0"/>
        <pt x="1165" y="1145" on="1"/>
        <pt x="1023" y="114" on="1"/>
        <pt x="1021" y="102" on="0"/>
        <pt x="1081" y="67" on="0"/>
        <pt x="1146" y="53" on="1"/>
        <pt x="1139" y="0" on="1"/>
        <pt x="703" y="0" on="1"/>
        <pt x="711" y="53" on="1"/>
        <pt x="775" y="67" on="0"/>
        <pt x="847" y="100" on="0"/>
        <pt x="849" y="114" on="1"/>
        <pt x="917" y="609" on="1"/>
        <pt x="386" y="609" on="1"/>
        <pt x="319" y="114" on="1"/>
        <pt x="316" y="102" on="0"/>
        <pt x="376" y="67" on="0"/>
        <pt x="440" y="53" on="1"/>
        <pt x="433" y="0" on="1"/>
        <pt x="-3" y="0" on="1"/>
        <pt x="5" y="53" on="1"/>
        <pt x="68" y="67" on="0"/>
        <pt x="142" y="100" on="0"/>
        <pt x="144" y="114" on="1"/>
        <pt x="287" y="1145" on="1"/>
        <pt x="289" y="1157" on="0"/>
        <pt x="229" y="1193" on="0"/>
        <pt x="164" y="1207" on="1"/>
        <pt x="171" y="1260" on="1"/>
        <pt x="607" y="1260" on="1"/>
      </contour>
    </TTGlyph>
    <TTGlyph name="Hcircumflex" xMin="-3" yMin="0" xMax="1312" yMax="1697">
      <component glyphName="H" x="0" y="0" flags="0x0"/>
      <component glyphName="uni0302.LP" x="1105" y="320" flags="0x0"/>
    </TTGlyph>
    <TTGlyph name="I" xMin="18" yMin="0" xMax="626" yMax="1260">
      <contour>
        <pt x="619" y="1207" on="1"/>
        <pt x="556" y="1193" on="0"/>
        <pt x="482" y="1159" on="0"/>
        <pt x="480" y="1145" on="1"/>
        <pt x="337" y="114" on="1"/>
        <pt x="335" y="102" on="0"/>
        <pt x="395" y="67" on="0"/>
        <pt x="460" y="53" on="1"/>
        <pt x="453" y="0" on="1"/>
        <pt x="18" y="0" on="1"/>
        <pt x="26" y="53" on="1"/>
        <pt x="89" y="67" on="0"/>
        <pt x="162" y="100" on="0"/>
        <pt x="165" y="114" on="1"/>
        <pt x="305" y="1145" on="1"/>
        <pt x="307" y="1157" on="0"/>
        <pt x="247" y="1193" on="0"/>
        <pt x="184" y="1207" on="1"/>
        <pt x="192" y="1260" on="1"/>
        <pt x="626" y="1260" on="1"/>
      </contour>
    </TTGlyph>
    <TTGlyph name="IJ" xMin="18" yMin="-386" xMax="1245" yMax="1260">
      <component glyphName="I" x="0" y="0" flags="0x0"/>
      <component glyphName="J" x="593" y="0" flags="0x0"/>
    </TTGlyph>
    <TTGlyph name="Iacute" xMin="18" yMin="0" xMax="757" yMax="1716">
      <component glyphName="I" x="0" y="0" flags="0x0"/>
      <component glyphName="acutecomb.LP" x="766" y="320" flags="0x0"/>
    </TTGlyph>
    <TTGlyph name="Ibreve" xMin="18" yMin="0" xMax="762" yMax="1708">
      <component glyphName="I" x="0" y="0" flags="0x0"/>
      <component glyphName="uni0306" x="776" y="320" flags="0x0"/>
    </TTGlyph>
    <TTGlyph name="Icircumflex" xMin="18" yMin="0" xMax="714" yMax="1697">
      <component glyphName="I" x="0" y="0" flags="0x0"/>
      <component glyphName="uni0302.LP" x="768" y="320" flags="0x0"/>
    </TTGlyph>
    <TTGlyph name="Idieresis" xMin="18" yMin="0" xMax="735" yMax="1631">
      <component glyphName="I" x="0" y="0" flags="0x0"/>
      <component glyphName="uni0308.LP" x="773" y="320" flags="0x0"/>
    </TTGlyph>
    <TTGlyph name="Idotaccent" xMin="18" yMin="0" xMax="626" yMax="1631">
      <component glyphName="I" x="0" y="0" flags="0x0"/>
      <component glyphName="uni0307.LP" x="769" y="320" flags="0x0"/>
    </TTGlyph>
    <TTGlyph name="Igrave" xMin="18" yMin="0" xMax="626" yMax="1716">
      <component glyphName="I" x="0" y="0" flags="0x0"/>
      <component glyphName="gravecomb.LP" x="688" y="320" flags="0x0"/>
    </TTGlyph>
    <TTGlyph name="Imacron" xMin="18" yMin="0" xMax="723" yMax="1613">
      <component glyphName="I" x="0" y="0" flags="0x0"/>
      <component glyphName="uni0304.Short" x="778" y="320" flags="0x0"/>
    </TTGlyph>
    <TTGlyph name="Itilde" xMin="18" yMin="0" xMax="779" yMax="1642">
      <component glyphName="I" x="0" y="0" flags="0x0"/>
      <component glyphName="tildecomb.LP" x="768" y="320" flags="0x0"/>
    </TTGlyph>
    <TTGlyph name="J" xMin="-289" yMin="-386" xMax="652" yMax="1260">
      <contour>
        <pt x="644" y="1207" on="1"/>
        <pt x="581" y="1193" on="0"/>
        <pt x="506" y="1159" on="0"/>
        <pt x="504" y="1145" on="1"/>
        <pt x="375" y="205" on="1"/>
        <pt x="359" y="89" on="0"/>
        <pt x="304" y="-71" on="0"/>
        <pt x="234" y="-182" on="0"/>
        <pt x="154" y="-257" on="0"/>
        <pt x="113" y="-289" on="1"/>
        <pt x="86" y="-310" on="0"/>
        <pt x="20" y="-346" on="0"/>
        <pt x="-47" y="-372" on="0"/>
        <pt x="-108" y="-386" on="0"/>
        <pt x="-130" y="-386" on="1"/>
        <pt x="-161" y="-386" on="0"/>
        <pt x="-218" y="-367" on="0"/>
        <pt x="-262" y="-340" on="0"/>
        <pt x="-289" y="-311" on="0"/>
        <pt x="-289" y="-301" on="1"/>
        <pt x="-289" y="-291" on="0"/>
        <pt x="-255" y="-251" on="0"/>
        <pt x="-210" y="-211" on="0"/>
        <pt x="-163" y="-181" on="0"/>
        <pt x="-151" y="-181" on="1"/>
        <pt x="-141" y="-181" on="0"/>
        <pt x="-117" y="-202" on="0"/>
        <pt x="-84" y="-227" on="0"/>
        <pt x="-39" y="-248" on="0"/>
        <pt x="-8" y="-248" on="1"/>
        <pt x="16" y="-248" on="0"/>
        <pt x="72" y="-217" on="0"/>
        <pt x="127" y="-133" on="0"/>
        <pt x="176" y="16" on="0"/>
        <pt x="192" y="133" on="1"/>
        <pt x="331" y="1145" on="1"/>
        <pt x="332" y="1151" on="0"/>
        <pt x="320" y="1165" on="0"/>
        <pt x="283" y="1181" on="0"/>
        <pt x="217" y="1198" on="0"/>
        <pt x="163" y="1207" on="1"/>
        <pt x="169" y="1260" on="1"/>
        <pt x="652" y="1260" on="1"/>
      </contour>
    </TTGlyph>
    <TTGlyph name="K" xMin="-3" yMin="-14" xMax="1188" yMax="1260">
      <contour>
        <pt x="599" y="1207" on="1"/>
        <pt x="536" y="1193" on="0"/>
        <pt x="462" y="1159" on="0"/>
        <pt x="459" y="1145" on="1"/>
        <pt x="392" y="652" on="1"/>
        <pt x="834" y="1118" on="1"/>
        <pt x="859" y="1145" on="0"/>
        <pt x="877" y="1177" on="0"/>
        <pt x="864" y="1195" on="0"/>
        <pt x="822" y="1204" on="0"/>
        <pt x="787" y="1207" on="1"/>
        <pt x="794" y="1260" on="1"/>
        <pt x="1188" y="1260" on="1"/>
        <pt x="1181" y="1207" on="1"/>
        <pt x="1150" y="1203" on="0"/>
        <pt x="1105" y="1195" on="0"/>
        <pt x="1068" y="1181" on="0"/>
        <pt x="1037" y="1161" on="0"/>
        <pt x="1021" y="1145" on="1"/>
        <pt x="543" y="672" on="1"/>
        <pt x="894" y="172" on="1"/>
        <pt x="908" y="152" on="0"/>
        <pt x="943" y="132" on="0"/>
        <pt x="990" y="130" on="0"/>
        <pt x="1052" y="147" on="0"/>
        <pt x="1093" y="164" on="1"/>
        <pt x="1114" y="116" on="1"/>
        <pt x="1078" y="88" on="0"/>
        <pt x="1000" y="40" on="0"/>
        <pt x="927" y="6" on="0"/>
        <pt x="865" y="-14" on="0"/>
        <pt x="845" y="-14" on="1"/>
        <pt x="815" y="-14" on="0"/>
        <pt x="774" y="9" on="0"/>
        <pt x="752" y="46" on="1"/>
        <pt x="389" y="632" on="1"/>
        <pt x="319" y="114" on="1"/>
        <pt x="316" y="102" on="0"/>
        <pt x="376" y="67" on="0"/>
        <pt x="440" y="53" on="1"/>
        <pt x="433" y="0" on="1"/>
        <pt x="-3" y="0" on="1"/>
        <pt x="5" y="53" on="1"/>
        <pt x="68" y="67" on="0"/>
        <pt x="142" y="100" on="0"/>
        <pt x="144" y="114" on="1"/>
        <pt x="287" y="1145" on="1"/>
        <pt x="289" y="1157" on="0"/>
        <pt x="229" y="1193" on="0"/>
        <pt x="164" y="1207" on="1"/>
        <pt x="171" y="1260" on="1"/>
        <pt x="607" y="1260" on="1"/>
      </contour>
    </TTGlyph>
    <TTGlyph name="L" xMin="-3" yMin="0" xMax="878" yMax="1260">
      <contour>
        <pt x="878" y="264" on="1"/>
        <pt x="868" y="221" on="0"/>
        <pt x="847" y="139" on="0"/>
        <pt x="826" y="68" on="0"/>
        <pt x="808" y="15" on="0"/>
        <pt x="802" y="0" on="1"/>
        <pt x="-3" y="0" on="1"/>
        <pt x="5" y="53" on="1"/>
        <pt x="68" y="67" on="0"/>
        <pt x="142" y="100" on="0"/>
        <pt x="144" y="114" on="1"/>
        <pt x="287" y="1145" on="1"/>
        <pt x="289" y="1157" on="0"/>
        <pt x="229" y="1193" on="0"/>
        <pt x="164" y="1207" on="1"/>
        <pt x="171" y="1260" on="1"/>
        <pt x="607" y="1260" on="1"/>
        <pt x="599" y="1207" on="1"/>
        <pt x="536" y="1193" on="0"/>
        <pt x="462" y="1159" on="0"/>
        <pt x="459" y="1145" on="1"/>
        <pt x="325" y="167" on="1"/>
        <pt x="323" y="149" on="0"/>
        <pt x="335" y="124" on="0"/>
        <pt x="372" y="107" on="0"/>
        <pt x="437" y="100" on="0"/>
        <pt x="487" y="100" on="1"/>
        <pt x="607" y="100" on="1"/>
        <pt x="649" y="100" on="0"/>
        <pt x="708" y="114" on="0"/>
        <pt x="757" y="154" on="0"/>
        <pt x="803" y="226" on="0"/>
        <pt x="831" y="285" on="1"/>
      </contour>
    </TTGlyph>
    <TTGlyph name="Lacute" xMin="-3" yMin="0" xMax="912" yMax="1716">
      <component glyphName="L" x="0" y="0" flags="0x0"/>
      <component glyphName="acutecomb.LP" x="921" y="320" flags="0x0"/>
    </TTGlyph>
    <TTGlyph name="Lslash" xMin="-3" yMin="0" xMax="878" yMax="1260">
      <contour>
        <pt x="691" y="837" on="1"/>
        <pt x="688" y="826" on="0"/>
        <pt x="674" y="796" on="0"/>
        <pt x="658" y="765" on="0"/>
        <pt x="641" y="737" on="0"/>
        <pt x="634" y="729" on="1"/>
        <pt x="384" y="598" on="1"/>
        <pt x="325" y="167" on="1"/>
        <pt x="323" y="149" on="0"/>
        <pt x="335" y="124" on="0"/>
        <pt x="372" y="107" on="0"/>
        <pt x="437" y="100" on="0"/>
        <pt x="487" y="100" on="1"/>
        <pt x="607" y="100" on="1"/>
        <pt x="649" y="100" on="0"/>
        <pt x="708" y="114" on="0"/>
        <pt x="757" y="154" on="0"/>
        <pt x="803" y="226" on="0"/>
        <pt x="831" y="285" on="1"/>
        <pt x="878" y="264" on="1"/>
        <pt x="868" y="221" on="0"/>
        <pt x="847" y="139" on="0"/>
        <pt x="826" y="68" on="0"/>
        <pt x="808" y="15" on="0"/>
        <pt x="802" y="0" on="1"/>
        <pt x="-3" y="0" on="1"/>
        <pt x="5" y="53" on="1"/>
        <pt x="68" y="67" on="0"/>
        <pt x="142" y="100" on="0"/>
        <pt x="144" y="114" on="1"/>
        <pt x="197" y="500" on="1"/>
        <pt x="74" y="435" on="1"/>
        <pt x="51" y="457" on="1"/>
        <pt x="54" y="469" on="0"/>
        <pt x="69" y="502" on="0"/>
        <pt x="85" y="534" on="0"/>
        <pt x="102" y="562" on="0"/>
        <pt x="108" y="569" on="1"/>
        <pt x="215" y="624" on="1"/>
        <pt x="287" y="1145" on="1"/>
        <pt x="289" y="1157" on="0"/>
        <pt x="229" y="1193" on="0"/>
        <pt x="164" y="1207" on="1"/>
        <pt x="171" y="1260" on="1"/>
        <pt x="607" y="1260" on="1"/>
        <pt x="599" y="1207" on="1"/>
        <pt x="536" y="1193" on="0"/>
        <pt x="462" y="1159" on="0"/>
        <pt x="459" y="1145" on="1"/>
        <pt x="401" y="721" on="1"/>
        <pt x="671" y="862" on="1"/>
      </contour>
    </TTGlyph>
    <TTGlyph name="M" xMin="5" yMin="0" xMax="1571" yMax="1260">
      <contour>
        <pt x="1565" y="1207" on="1"/>
        <pt x="1539" y="1207" on="0"/>
        <pt x="1471" y="1189" on="0"/>
        <pt x="1435" y="1174" on="1"/>
        <pt x="1313" y="114" on="1"/>
        <pt x="1311" y="102" on="0"/>
        <pt x="1376" y="67" on="0"/>
        <pt x="1441" y="53" on="1"/>
        <pt x="1434" y="0" on="1"/>
        <pt x="1000" y="0" on="1"/>
        <pt x="1007" y="53" on="1"/>
        <pt x="1071" y="67" on="0"/>
        <pt x="1151" y="100" on="0"/>
        <pt x="1153" y="114" on="1"/>
        <pt x="1258" y="1023" on="1"/>
        <pt x="724" y="0" on="1"/>
        <pt x="668" y="0" on="1"/>
        <pt x="396" y="1015" on="1"/>
        <pt x="265" y="114" on="1"/>
        <pt x="263" y="102" on="0"/>
        <pt x="322" y="67" on="0"/>
        <pt x="387" y="53" on="1"/>
        <pt x="380" y="0" on="1"/>
        <pt x="5" y="0" on="1"/>
        <pt x="12" y="53" on="1"/>
        <pt x="77" y="67" on="0"/>
        <pt x="148" y="100" on="0"/>
        <pt x="150" y="114" on="1"/>
        <pt x="304" y="1170" on="1"/>
        <pt x="273" y="1190" on="0"/>
        <pt x="207" y="1207" on="0"/>
        <pt x="181" y="1207" on="1"/>
        <pt x="188" y="1260" on="1"/>
        <pt x="472" y="1260" on="1"/>
        <pt x="481" y="1260" on="0"/>
        <pt x="492" y="1254" on="0"/>
        <pt x="503" y="1236" on="0"/>
        <pt x="513" y="1203" on="0"/>
        <pt x="520" y="1176" on="1"/>
        <pt x="762" y="302" on="1"/>
        <pt x="1221" y="1176" on="1"/>
        <pt x="1235" y="1203" on="0"/>
        <pt x="1255" y="1236" on="0"/>
        <pt x="1270" y="1254" on="0"/>
        <pt x="1284" y="1260" on="0"/>
        <pt x="1293" y="1260" on="1"/>
        <pt x="1571" y="1260" on="1"/>
      </contour>
    </TTGlyph>
    <TTGlyph name="N" xMin="-1" yMin="-31" xMax="1313" yMax="1260">
      <contour>
        <pt x="1306" y="1207" on="1"/>
        <pt x="1239" y="1197" on="0"/>
        <pt x="1173" y="1162" on="0"/>
        <pt x="1171" y="1145" on="1"/>
        <pt x="1008" y="-31" on="1"/>
        <pt x="951" y="-24" on="0"/>
        <pt x="882" y="13" on="0"/>
        <pt x="859" y="57" on="1"/>
        <pt x="378" y="977" on="1"/>
        <pt x="260" y="114" on="1"/>
        <pt x="258" y="102" on="0"/>
        <pt x="311" y="64" on="0"/>
        <pt x="380" y="53" on="1"/>
        <pt x="373" y="0" on="1"/>
        <pt x="-1" y="0" on="1"/>
        <pt x="7" y="53" on="1"/>
        <pt x="75" y="62" on="0"/>
        <pt x="141" y="100" on="0"/>
        <pt x="143" y="114" on="1"/>
        <pt x="285" y="1141" on="1"/>
        <pt x="259" y="1171" on="0"/>
        <pt x="198" y="1200" on="0"/>
        <pt x="158" y="1207" on="1"/>
        <pt x="165" y="1260" on="1"/>
        <pt x="369" y="1260" on="1"/>
        <pt x="389" y="1260" on="0"/>
        <pt x="412" y="1257" on="0"/>
        <pt x="430" y="1242" on="0"/>
        <pt x="448" y="1210" on="0"/>
        <pt x="462" y="1182" on="1"/>
        <pt x="936" y="282" on="1"/>
        <pt x="1054" y="1145" on="1"/>
        <pt x="1055" y="1151" on="0"/>
        <pt x="1044" y="1168" on="0"/>
        <pt x="1016" y="1185" on="0"/>
        <pt x="969" y="1201" on="0"/>
        <pt x="933" y="1207" on="1"/>
        <pt x="940" y="1260" on="1"/>
        <pt x="1313" y="1260" on="1"/>
      </contour>
    </TTGlyph>
    <TTGlyph name="Nacute" xMin="-1" yMin="-31" xMax="1313" yMax="1716">
      <component glyphName="N" x="0" y="0" flags="0x0"/>
      <component glyphName="acutecomb.LP" x="1097" y="320" flags="0x0"/>
    </TTGlyph>
    <TTGlyph name="Ncaron" xMin="-1" yMin="-31" xMax="1313" yMax="1726">
      <component glyphName="N" x="0" y="0" flags="0x0"/>
      <component glyphName="uni030C.LP" x="1104" y="320" flags="0x0"/>
    </TTGlyph>
    <TTGlyph name="Ntilde" xMin="-1" yMin="-31" xMax="1313" yMax="1642">
      <component glyphName="N" x="0" y="0" flags="0x0"/>
      <component glyphName="tildecomb.LP" x="1099" y="320" flags="0x0"/>
    </TTGlyph>
    <TTGlyph name="O" xMin="85" yMin="-31" xMax="1109" yMax="1290">
      <contour>
        <pt x="930" y="756" on="1"/>
        <pt x="930" y="840" on="0"/>
        <pt x="895" y="989" on="0"/>
        <pt x="828" y="1099" on="0"/>
        <pt x="729" y="1163" on="0"/>
        <pt x="665" y="1163" on="1"/>
        <pt x="594" y="1163" on="0"/>
        <pt x="480" y="1105" on="0"/>
        <pt x="391" y="1006" on="0"/>
        <pt x="328" y="878" on="0"/>
        <pt x="287" y="737" on="0"/>
        <pt x="267" y="595" on="0"/>
        <pt x="267" y="532" on="1"/>
        <pt x="267" y="439" on="0"/>
        <pt x="304" y="281" on="0"/>
        <pt x="373" y="167" on="0"/>
        <pt x="471" y="103" on="0"/>
        <pt x="531" y="103" on="1"/>
        <pt x="604" y="103" on="0"/>
        <pt x="719" y="164" on="0"/>
        <pt x="808" y="267" on="0"/>
        <pt x="871" y="401" on="0"/>
        <pt x="911" y="546" on="0"/>
        <pt x="930" y="692" on="0"/>
      </contour>
      <contour>
        <pt x="1109" y="774" on="1"/>
        <pt x="1109" y="703" on="0"/>
        <pt x="1084" y="557" on="0"/>
        <pt x="1036" y="415" on="0"/>
        <pt x="966" y="282" on="0"/>
        <pt x="921" y="225" on="1"/>
        <pt x="879" y="171" on="0"/>
        <pt x="781" y="78" on="0"/>
        <pt x="670" y="9" on="0"/>
        <pt x="548" y="-31" on="0"/>
        <pt x="481" y="-31" on="1"/>
        <pt x="383" y="-31" on="0"/>
        <pt x="235" y="51" on="0"/>
        <pt x="135" y="192" on="0"/>
        <pt x="85" y="380" on="0"/>
        <pt x="85" y="485" on="1"/>
        <pt x="85" y="552" on="0"/>
        <pt x="109" y="694" on="0"/>
        <pt x="153" y="833" on="0"/>
        <pt x="216" y="963" on="0"/>
        <pt x="256" y="1018" on="1"/>
        <pt x="298" y="1074" on="0"/>
        <pt x="396" y="1173" on="0"/>
        <pt x="511" y="1247" on="0"/>
        <pt x="641" y="1290" on="0"/>
        <pt x="715" y="1290" on="1"/>
        <pt x="816" y="1290" on="0"/>
        <pt x="965" y="1208" on="0"/>
        <pt x="1062" y="1067" on="0"/>
        <pt x="1109" y="879" on="0"/>
      </contour>
    </TTGlyph>
    <TTGlyph name="OE" xMin="83" yMin="-31" xMax="1522" yMax="1290">
      <contour>
        <pt x="526" y="103" on="1"/>
        <pt x="597" y="103" on="0"/>
        <pt x="698" y="130" on="0"/>
        <pt x="746" y="163" on="1"/>
        <pt x="870" y="1076" on="1"/>
        <pt x="830" y="1120" on="0"/>
        <pt x="722" y="1163" on="0"/>
        <pt x="660" y="1163" on="1"/>
        <pt x="593" y="1163" on="0"/>
        <pt x="483" y="1110" on="0"/>
        <pt x="397" y="1020" on="0"/>
        <pt x="333" y="899" on="0"/>
        <pt x="290" y="764" on="0"/>
        <pt x="267" y="621" on="0"/>
        <pt x="264" y="553" on="1"/>
        <pt x="260" y="454" on="0"/>
        <pt x="295" y="289" on="0"/>
        <pt x="364" y="170" on="0"/>
        <pt x="464" y="103" on="0"/>
      </contour>
      <contour>
        <pt x="1494" y="1260" on="1"/>
        <pt x="1522" y="1233" on="1"/>
        <pt x="1517" y="1207" on="0"/>
        <pt x="1501" y="1140" on="0"/>
        <pt x="1481" y="1071" on="0"/>
        <pt x="1461" y="1009" on="0"/>
        <pt x="1453" y="990" on="1"/>
        <pt x="1401" y="990" on="1"/>
        <pt x="1410" y="1082" on="0"/>
        <pt x="1385" y="1159" on="0"/>
        <pt x="1350" y="1159" on="1"/>
        <pt x="1055" y="1159" on="1"/>
        <pt x="996" y="735" on="1"/>
        <pt x="1334" y="735" on="1"/>
        <pt x="1357" y="705" on="1"/>
        <pt x="1347" y="691" on="0"/>
        <pt x="1321" y="658" on="0"/>
        <pt x="1294" y="625" on="0"/>
        <pt x="1268" y="598" on="0"/>
        <pt x="1257" y="590" on="1"/>
        <pt x="1245" y="605" on="0"/>
        <pt x="1218" y="625" on="0"/>
        <pt x="1179" y="639" on="0"/>
        <pt x="1124" y="645" on="0"/>
        <pt x="1086" y="645" on="1"/>
        <pt x="984" y="645" on="1"/>
        <pt x="918" y="164" on="1"/>
        <pt x="916" y="149" on="0"/>
        <pt x="918" y="126" on="0"/>
        <pt x="945" y="109" on="0"/>
        <pt x="1009" y="100" on="0"/>
        <pt x="1069" y="100" on="1"/>
        <pt x="1176" y="100" on="1"/>
        <pt x="1218" y="100" on="0"/>
        <pt x="1278" y="114" on="0"/>
        <pt x="1329" y="154" on="0"/>
        <pt x="1375" y="226" on="0"/>
        <pt x="1403" y="285" on="1"/>
        <pt x="1449" y="264" on="1"/>
        <pt x="1440" y="221" on="0"/>
        <pt x="1419" y="139" on="0"/>
        <pt x="1399" y="68" on="0"/>
        <pt x="1382" y="15" on="0"/>
        <pt x="1376" y="0" on="1"/>
        <pt x="772" y="0" on="1"/>
        <pt x="718" y="0" on="0"/>
        <pt x="643" y="-10" on="0"/>
        <pt x="581" y="-21" on="0"/>
        <pt x="519" y="-31" on="0"/>
        <pt x="477" y="-31" on="1"/>
        <pt x="378" y="-31" on="0"/>
        <pt x="229" y="55" on="0"/>
        <pt x="130" y="200" on="0"/>
        <pt x="83" y="394" on="0"/>
        <pt x="87" y="502" on="1"/>
        <pt x="90" y="602" on="0"/>
        <pt x="139" y="797" on="0"/>
        <pt x="221" y="972" on="0"/>
        <pt x="335" y="1120" on="0"/>
        <pt x="471" y="1229" on="0"/>
        <pt x="626" y="1290" on="0"/>
        <pt x="709" y="1290" on="1"/>
        <pt x="748" y="1290" on="0"/>
        <pt x="802" y="1281" on="0"/>
        <pt x="852" y="1269" on="0"/>
        <pt x="906" y="1260" on="0"/>
        <pt x="944" y="1260" on="1"/>
      </contour>
    </TTGlyph>
    <TTGlyph name="Oacute" xMin="85" yMin="-31" xMax="1109" yMax="1716">
      <component glyphName="O" x="0" y="0" flags="0x0"/>
      <component glyphName="acutecomb.LP" x="1060" y="320" flags="0x0"/>
    </TTGlyph>
    <TTGlyph name="Obreve" xMin="85" yMin="-31" xMax="1109" yMax="1708">
      <component glyphName="O" x="0" y="0" flags="0x0"/>
      <component glyphName="uni0306" x="1070" y="320" flags="0x0"/>
    </TTGlyph>
    <TTGlyph name="Ocircumflex" xMin="85" yMin="-31" xMax="1109" yMax="1697">
      <component glyphName="O" x="0" y="0" flags="0x0"/>
      <component glyphName="uni0302.LP" x="1062" y="320" flags="0x0"/>
    </TTGlyph>
    <TTGlyph name="Odieresis" xMin="85" yMin="-31" xMax="1109" yMax="1631">
      <component glyphName="O" x="0" y="0" flags="0x0"/>
      <component glyphName="uni0308.LP" x="1067" y="320" flags="0x0"/>
    </TTGlyph>
    <TTGlyph name="Ograve" xMin="85" yMin="-31" xMax="1109" yMax="1716">
      <component glyphName="O" x="0" y="0" flags="0x0"/>
      <component glyphName="gravecomb.LP" x="982" y="320" flags="0x0"/>
    </TTGlyph>
    <TTGlyph name="Ohorn" xMin="85" yMin="-31" xMax="1280" yMax="1503">
      <contour>
        <pt x="930" y="756" on="1"/>
        <pt x="930" y="840" on="0"/>
        <pt x="895" y="989" on="0"/>
        <pt x="828" y="1099" on="0"/>
        <pt x="729" y="1163" on="0"/>
        <pt x="665" y="1163" on="1"/>
        <pt x="594" y="1163" on="0"/>
        <pt x="480" y="1105" on="0"/>
        <pt x="391" y="1006" on="0"/>
        <pt x="328" y="878" on="0"/>
        <pt x="287" y="737" on="0"/>
        <pt x="267" y="595" on="0"/>
        <pt x="267" y="532" on="1"/>
        <pt x="267" y="439" on="0"/>
        <pt x="304" y="281" on="0"/>
        <pt x="373" y="167" on="0"/>
        <pt x="471" y="103" on="0"/>
        <pt x="531" y="103" on="1"/>
        <pt x="604" y="103" on="0"/>
        <pt x="719" y="164" on="0"/>
        <pt x="808" y="267" on="0"/>
        <pt x="871" y="401" on="0"/>
        <pt x="911" y="546" on="0"/>
        <pt x="930" y="692" on="0"/>
      </contour>
      <contour>
        <pt x="1280" y="1418" on="1"/>
        <pt x="1280" y="1373" on="0"/>
        <pt x="1242" y="1290" on="0"/>
        <pt x="1173" y="1216" on="0"/>
        <pt x="1078" y="1151" on="0"/>
        <pt x="1021" y="1124" on="1"/>
        <pt x="1066" y="1055" on="0"/>
        <pt x="1109" y="875" on="0"/>
        <pt x="1109" y="774" on="1"/>
        <pt x="1109" y="703" on="0"/>
        <pt x="1084" y="557" on="0"/>
        <pt x="1036" y="415" on="0"/>
        <pt x="966" y="282" on="0"/>
        <pt x="921" y="225" on="1"/>
        <pt x="879" y="171" on="0"/>
        <pt x="781" y="78" on="0"/>
        <pt x="670" y="9" on="0"/>
        <pt x="548" y="-31" on="0"/>
        <pt x="481" y="-31" on="1"/>
        <pt x="383" y="-31" on="0"/>
        <pt x="235" y="51" on="0"/>
        <pt x="135" y="192" on="0"/>
        <pt x="85" y="380" on="0"/>
        <pt x="85" y="485" on="1"/>
        <pt x="85" y="552" on="0"/>
        <pt x="109" y="694" on="0"/>
        <pt x="153" y="833" on="0"/>
        <pt x="216" y="963" on="0"/>
        <pt x="256" y="1018" on="1"/>
        <pt x="298" y="1074" on="0"/>
        <pt x="396" y="1173" on="0"/>
        <pt x="511" y="1247" on="0"/>
        <pt x="641" y="1290" on="0"/>
        <pt x="715" y="1290" on="1"/>
        <pt x="800" y="1290" on="0"/>
        <pt x="929" y="1232" on="0"/>
        <pt x="977" y="1181" on="1"/>
        <pt x="1094" y="1233" on="0"/>
        <pt x="1094" y="1333" on="1"/>
        <pt x="1094" y="1351" on="0"/>
        <pt x="1076" y="1398" on="0"/>
        <pt x="1047" y="1413" on="1"/>
        <pt x="1235" y="1503" on="1"/>
        <pt x="1260" y="1488" on="0"/>
        <pt x="1280" y="1440" on="0"/>
      </contour>
    </TTGlyph>
    <TTGlyph name="Ohungarumlaut" xMin="85" yMin="-31" xMax="1149" yMax="1782">
      <component glyphName="O" x="0" y="0" flags="0x0"/>
      <component glyphName="uni030B" x="1068" y="320" flags="0x0"/>
    </TTGlyph>
    <TTGlyph name="Omacron" xMin="85" yMin="-31" xMax="1109" yMax="1580">
      <component glyphName="O" x="0" y="0" flags="0x0"/>
      <component glyphName="uni0304.LP" x="1072" y="320" flags="0x0"/>
    </TTGlyph>
    <TTGlyph name="Omega" xMin="18" yMin="0" xMax="1149" yMax="1290">
      <component glyphName="uni03A9" x="0" y="0" flags="0x0"/>
    </TTGlyph>
    <TTGlyph name="Oslash" xMin="23" yMin="-53" xMax="1180" yMax="1313">
      <contour>
        <pt x="930" y="756" on="1"/>
        <pt x="930" y="803" on="0"/>
        <pt x="919" y="891" on="0"/>
        <pt x="908" y="931" on="1"/>
        <pt x="346" y="211" on="1"/>
        <pt x="381" y="160" on="0"/>
        <pt x="474" y="103" on="0"/>
        <pt x="531" y="103" on="1"/>
        <pt x="604" y="103" on="0"/>
        <pt x="719" y="164" on="0"/>
        <pt x="808" y="267" on="0"/>
        <pt x="871" y="401" on="0"/>
        <pt x="911" y="546" on="0"/>
        <pt x="930" y="692" on="0"/>
      </contour>
      <contour>
        <pt x="267" y="532" on="1"/>
        <pt x="267" y="418" on="0"/>
        <pt x="294" y="328" on="1"/>
        <pt x="857" y="1051" on="1"/>
        <pt x="823" y="1103" on="0"/>
        <pt x="727" y="1163" on="0"/>
        <pt x="665" y="1163" on="1"/>
        <pt x="594" y="1163" on="0"/>
        <pt x="480" y="1105" on="0"/>
        <pt x="391" y="1006" on="0"/>
        <pt x="328" y="878" on="0"/>
        <pt x="287" y="737" on="0"/>
        <pt x="267" y="595" on="0"/>
      </contour>
      <contour>
        <pt x="1109" y="774" on="1"/>
        <pt x="1109" y="703" on="0"/>
        <pt x="1084" y="557" on="0"/>
        <pt x="1036" y="415" on="0"/>
        <pt x="966" y="282" on="0"/>
        <pt x="921" y="225" on="1"/>
        <pt x="879" y="171" on="0"/>
        <pt x="781" y="78" on="0"/>
        <pt x="670" y="9" on="0"/>
        <pt x="548" y="-31" on="0"/>
        <pt x="481" y="-31" on="1"/>
        <pt x="404" y="-31" on="0"/>
        <pt x="281" y="20" on="0"/>
        <pt x="233" y="66" on="1"/>
        <pt x="180" y="-2" on="1"/>
        <pt x="170" y="-10" on="0"/>
        <pt x="134" y="-26" on="0"/>
        <pt x="94" y="-39" on="0"/>
        <pt x="56" y="-50" on="0"/>
        <pt x="44" y="-53" on="1"/>
        <pt x="23" y="-19" on="1"/>
        <pt x="161" y="159" on="1"/>
        <pt x="123" y="226" on="0"/>
        <pt x="85" y="392" on="0"/>
        <pt x="85" y="485" on="1"/>
        <pt x="85" y="552" on="0"/>
        <pt x="109" y="694" on="0"/>
        <pt x="153" y="833" on="0"/>
        <pt x="216" y="963" on="0"/>
        <pt x="256" y="1018" on="1"/>
        <pt x="298" y="1074" on="0"/>
        <pt x="396" y="1173" on="0"/>
        <pt x="511" y="1247" on="0"/>
        <pt x="641" y="1290" on="0"/>
        <pt x="715" y="1290" on="1"/>
        <pt x="795" y="1290" on="0"/>
        <pt x="920" y="1239" on="0"/>
        <pt x="967" y="1192" on="1"/>
        <pt x="1023" y="1264" on="1"/>
        <pt x="1037" y="1272" on="0"/>
        <pt x="1072" y="1287" on="0"/>
        <pt x="1108" y="1300" on="0"/>
        <pt x="1142" y="1310" on="0"/>
        <pt x="1156" y="1313" on="1"/>
        <pt x="1180" y="1279" on="1"/>
        <pt x="1038" y="1097" on="1"/>
        <pt x="1074" y="1030" on="0"/>
        <pt x="1109" y="865" on="0"/>
      </contour>
    </TTGlyph>
    <TTGlyph name="Oslashacute" xMin="23" yMin="-53" xMax="1180" yMax="1716">
      <component glyphName="Oslash" x="0" y="0" flags="0x0"/>
      <component glyphName="acutecomb.LP" x="1063" y="320" flags="0x0"/>
    </TTGlyph>
    <TTGlyph name="Otilde" xMin="85" yMin="-31" xMax="1109" yMax="1642">
      <component glyphName="O" x="0" y="0" flags="0x0"/>
      <component glyphName="tildecomb.LP" x="1062" y="320" flags="0x0"/>
    </TTGlyph>
    <TTGlyph name="P" xMin="-3" yMin="0" xMax="1013" yMax="1290">
      <contour>
        <pt x="1013" y="942" on="1"/>
        <pt x="1013" y="857" on="0"/>
        <pt x="944" y="707" on="0"/>
        <pt x="826" y="595" on="0"/>
        <pt x="668" y="530" on="0"/>
        <pt x="578" y="530" on="1"/>
        <pt x="540" y="530" on="0"/>
        <pt x="462" y="549" on="0"/>
        <pt x="435" y="564" on="1"/>
        <pt x="422" y="648" on="1"/>
        <pt x="456" y="634" on="0"/>
        <pt x="519" y="615" on="0"/>
        <pt x="552" y="615" on="1"/>
        <pt x="616" y="615" on="0"/>
        <pt x="721" y="657" on="0"/>
        <pt x="795" y="733" on="0"/>
        <pt x="836" y="840" on="0"/>
        <pt x="836" y="905" on="1"/>
        <pt x="836" y="989" on="0"/>
        <pt x="783" y="1101" on="0"/>
        <pt x="695" y="1170" on="0"/>
        <pt x="578" y="1199" on="0"/>
        <pt x="514" y="1199" on="1"/>
        <pt x="490" y="1199" on="1"/>
        <pt x="479" y="1199" on="0"/>
        <pt x="468" y="1198" on="1"/>
        <pt x="319" y="114" on="1"/>
        <pt x="317" y="108" on="0"/>
        <pt x="329" y="94" on="0"/>
        <pt x="363" y="78" on="0"/>
        <pt x="423" y="62" on="0"/>
        <pt x="470" y="53" on="1"/>
        <pt x="463" y="0" on="1"/>
        <pt x="-3" y="0" on="1"/>
        <pt x="5" y="53" on="1"/>
        <pt x="68" y="67" on="0"/>
        <pt x="141" y="100" on="0"/>
        <pt x="143" y="114" on="1"/>
        <pt x="290" y="1184" on="1"/>
        <pt x="255" y="1179" on="0"/>
        <pt x="180" y="1165" on="0"/>
        <pt x="139" y="1155" on="1"/>
        <pt x="139" y="1225" on="1"/>
        <pt x="228" y="1255" on="0"/>
        <pt x="442" y="1290" on="0"/>
        <pt x="572" y="1290" on="1"/>
        <pt x="675" y="1290" on="0"/>
        <pt x="838" y="1246" on="0"/>
        <pt x="952" y="1158" on="0"/>
        <pt x="1013" y="1028" on="0"/>
      </contour>
    </TTGlyph>
    <TTGlyph name="Pi" xMin="-5" yMin="0" xMax="1247" yMax="1260">
      <contour>
        <pt x="-5" y="0" on="1"/>
        <pt x="2" y="53" on="1"/>
        <pt x="65" y="67" on="0"/>
        <pt x="137" y="100" on="0"/>
        <pt x="139" y="114" on="1"/>
        <pt x="282" y="1145" on="1"/>
        <pt x="284" y="1157" on="0"/>
        <pt x="225" y="1193" on="0"/>
        <pt x="162" y="1207" on="1"/>
        <pt x="169" y="1260" on="1"/>
        <pt x="1247" y="1260" on="1"/>
        <pt x="1240" y="1207" on="1"/>
        <pt x="1176" y="1193" on="0"/>
        <pt x="1103" y="1159" on="0"/>
        <pt x="1101" y="1145" on="1"/>
        <pt x="958" y="114" on="1"/>
        <pt x="956" y="102" on="0"/>
        <pt x="1016" y="67" on="0"/>
        <pt x="1079" y="53" on="1"/>
        <pt x="1073" y="0" on="1"/>
        <pt x="644" y="0" on="1"/>
        <pt x="651" y="53" on="1"/>
        <pt x="714" y="67" on="0"/>
        <pt x="785" y="100" on="0"/>
        <pt x="787" y="114" on="1"/>
        <pt x="924" y="1100" on="1"/>
        <pt x="925" y="1112" on="0"/>
        <pt x="906" y="1136" on="0"/>
        <pt x="866" y="1156" on="0"/>
        <pt x="803" y="1169" on="0"/>
        <pt x="761" y="1169" on="1"/>
        <pt x="617" y="1169" on="1"/>
        <pt x="576" y="1168" on="0"/>
        <pt x="514" y="1155" on="0"/>
        <pt x="472" y="1136" on="0"/>
        <pt x="448" y="1112" on="0"/>
        <pt x="447" y="1100" on="1"/>
        <pt x="310" y="114" on="1"/>
        <pt x="308" y="102" on="0"/>
        <pt x="367" y="67" on="0"/>
        <pt x="430" y="53" on="1"/>
        <pt x="424" y="0" on="1"/>
      </contour>
    </TTGlyph>
    <TTGlyph name="Q" xMin="85" yMin="-307" xMax="1154" yMax="1290">
      <contour>
        <pt x="930" y="756" on="1"/>
        <pt x="930" y="840" on="0"/>
        <pt x="895" y="989" on="0"/>
        <pt x="828" y="1099" on="0"/>
        <pt x="729" y="1163" on="0"/>
        <pt x="665" y="1163" on="1"/>
        <pt x="594" y="1163" on="0"/>
        <pt x="480" y="1105" on="0"/>
        <pt x="391" y="1006" on="0"/>
        <pt x="328" y="878" on="0"/>
        <pt x="287" y="737" on="0"/>
        <pt x="267" y="595" on="0"/>
        <pt x="267" y="532" on="1"/>
        <pt x="267" y="439" on="0"/>
        <pt x="304" y="281" on="0"/>
        <pt x="373" y="167" on="0"/>
        <pt x="471" y="103" on="0"/>
        <pt x="531" y="103" on="1"/>
        <pt x="604" y="103" on="0"/>
        <pt x="719" y="164" on="0"/>
        <pt x="808" y="267" on="0"/>
        <pt x="871" y="401" on="0"/>
        <pt x="911" y="546" on="0"/>
        <pt x="930" y="692" on="0"/>
      </contour>
      <contour>
        <pt x="1154" y="-120" on="1"/>
        <pt x="1125" y="-164" on="0"/>
        <pt x="1067" y="-233" on="0"/>
        <pt x="1014" y="-281" on="0"/>
        <pt x="970" y="-307" on="0"/>
        <pt x="955" y="-307" on="1"/>
        <pt x="897" y="-307" on="0"/>
        <pt x="790" y="-246" on="0"/>
        <pt x="686" y="-159" on="0"/>
        <pt x="584" y="-63" on="0"/>
        <pt x="530" y="-28" on="1"/>
        <pt x="506" y="-31" on="0"/>
        <pt x="481" y="-31" on="1"/>
        <pt x="383" y="-31" on="0"/>
        <pt x="235" y="51" on="0"/>
        <pt x="135" y="192" on="0"/>
        <pt x="85" y="380" on="0"/>
        <pt x="85" y="485" on="1"/>
        <pt x="85" y="552" on="0"/>
        <pt x="109" y="694" on="0"/>
        <pt x="153" y="833" on="0"/>
        <pt x="216" y="963" on="0"/>
        <pt x="256" y="1018" on="1"/>
        <pt x="298" y="1074" on="0"/>
        <pt x="396" y="1173" on="0"/>
        <pt x="511" y="1247" on="0"/>
        <pt x="641" y="1290" on="0"/>
        <pt x="715" y="1290" on="1"/>
        <pt x="816" y="1290" on="0"/>
        <pt x="965" y="1208" on="0"/>
        <pt x="1062" y="1067" on="0"/>
        <pt x="1109" y="879" on="0"/>
        <pt x="1109" y="774" on="1"/>
        <pt x="1109" y="703" on="0"/>
        <pt x="1084" y="557" on="0"/>
        <pt x="1036" y="415" on="0"/>
        <pt x="966" y="282" on="0"/>
        <pt x="921" y="225" on="1"/>
        <pt x="869" y="159" on="0"/>
        <pt x="748" y="52" on="0"/>
        <pt x="678" y="17" on="1"/>
        <pt x="720" y="-6" on="0"/>
        <pt x="799" y="-64" on="0"/>
        <pt x="874" y="-115" on="0"/>
        <pt x="948" y="-150" on="0"/>
        <pt x="984" y="-150" on="1"/>
        <pt x="996" y="-150" on="0"/>
        <pt x="1020" y="-143" on="0"/>
        <pt x="1053" y="-126" on="0"/>
        <pt x="1096" y="-97" on="0"/>
        <pt x="1127" y="-75" on="1"/>
      </contour>
    </TTGlyph>
    <TTGlyph name="R" xMin="-3" yMin="-14" xMax="1105" yMax="1290">
      <contour>
        <pt x="530" y="1199" on="1"/>
        <pt x="514" y="1199" on="0"/>
        <pt x="483" y="1198" on="0"/>
        <pt x="467" y="1198" on="1"/>
        <pt x="397" y="687" on="1"/>
        <pt x="451" y="672" on="0"/>
        <pt x="505" y="672" on="1"/>
        <pt x="565" y="672" on="0"/>
        <pt x="674" y="706" on="0"/>
        <pt x="758" y="774" on="0"/>
        <pt x="808" y="875" on="0"/>
        <pt x="808" y="942" on="1"/>
        <pt x="808" y="1016" on="0"/>
        <pt x="756" y="1115" on="0"/>
        <pt x="675" y="1174" on="0"/>
        <pt x="576" y="1199" on="0"/>
      </contour>
      <contour>
        <pt x="1105" y="112" on="1"/>
        <pt x="1066" y="86" on="0"/>
        <pt x="985" y="40" on="0"/>
        <pt x="913" y="6" on="0"/>
        <pt x="857" y="-14" on="0"/>
        <pt x="844" y="-14" on="1"/>
        <pt x="827" y="-14" on="0"/>
        <pt x="795" y="-4" on="0"/>
        <pt x="763" y="24" on="0"/>
        <pt x="730" y="76" on="0"/>
        <pt x="712" y="117" on="1"/>
        <pt x="501" y="586" on="1"/>
        <pt x="472" y="588" on="0"/>
        <pt x="412" y="595" on="0"/>
        <pt x="386" y="602" on="1"/>
        <pt x="319" y="114" on="1"/>
        <pt x="316" y="102" on="0"/>
        <pt x="379" y="67" on="0"/>
        <pt x="442" y="53" on="1"/>
        <pt x="435" y="0" on="1"/>
        <pt x="-3" y="0" on="1"/>
        <pt x="5" y="53" on="1"/>
        <pt x="68" y="67" on="0"/>
        <pt x="141" y="100" on="0"/>
        <pt x="143" y="114" on="1"/>
        <pt x="289" y="1183" on="1"/>
        <pt x="250" y="1178" on="0"/>
        <pt x="174" y="1165" on="0"/>
        <pt x="138" y="1157" on="1"/>
        <pt x="139" y="1227" on="1"/>
        <pt x="184" y="1240" on="0"/>
        <pt x="281" y="1263" on="0"/>
        <pt x="389" y="1280" on="0"/>
        <pt x="509" y="1290" on="0"/>
        <pt x="577" y="1290" on="1"/>
        <pt x="670" y="1290" on="0"/>
        <pt x="821" y="1249" on="0"/>
        <pt x="926" y="1168" on="0"/>
        <pt x="983" y="1049" on="0"/>
        <pt x="983" y="971" on="1"/>
        <pt x="983" y="929" on="0"/>
        <pt x="945" y="817" on="0"/>
        <pt x="865" y="709" on="0"/>
        <pt x="739" y="619" on="0"/>
        <pt x="652" y="599" on="1"/>
        <pt x="881" y="194" on="1"/>
        <pt x="898" y="164" on="0"/>
        <pt x="930" y="133" on="0"/>
        <pt x="974" y="127" on="0"/>
        <pt x="1036" y="143" on="0"/>
        <pt x="1084" y="160" on="1"/>
      </contour>
    </TTGlyph>
    <TTGlyph name="Racute" xMin="-3" yMin="-14" xMax="1105" yMax="1716">
      <component glyphName="R" x="0" y="0" flags="0x0"/>
      <component glyphName="acutecomb.LP" x="981" y="320" flags="0x0"/>
    </TTGlyph>
    <TTGlyph name="Rcaron" xMin="-3" yMin="-14" xMax="1105" yMax="1726">
      <component glyphName="R" x="0" y="0" flags="0x0"/>
      <component glyphName="uni030C.LP" x="988" y="320" flags="0x0"/>
    </TTGlyph>
    <TTGlyph name="S" xMin="40" yMin="-31" xMax="908" yMax="1290">
      <contour>
        <pt x="902" y="1198" on="1"/>
        <pt x="908" y="1193" on="0"/>
        <pt x="886" y="1147" on="0"/>
        <pt x="849" y="1093" on="0"/>
        <pt x="809" y="1045" on="0"/>
        <pt x="798" y="1039" on="1"/>
        <pt x="759" y="1045" on="1"/>
        <pt x="728" y="1104" on="0"/>
        <pt x="625" y="1181" on="0"/>
        <pt x="565" y="1181" on="1"/>
        <pt x="512" y="1181" on="0"/>
        <pt x="431" y="1148" on="0"/>
        <pt x="376" y="1094" on="0"/>
        <pt x="348" y="1028" on="0"/>
        <pt x="348" y="995" on="1"/>
        <pt x="348" y="973" on="0"/>
        <pt x="362" y="925" on="0"/>
        <pt x="406" y="873" on="0"/>
        <pt x="487" y="814" on="0"/>
        <pt x="554" y="780" on="1"/>
        <pt x="633" y="739" on="0"/>
        <pt x="744" y="665" on="0"/>
        <pt x="814" y="585" on="0"/>
        <pt x="846" y="494" on="0"/>
        <pt x="846" y="438" on="1"/>
        <pt x="846" y="344" on="0"/>
        <pt x="767" y="174" on="0"/>
        <pt x="631" y="45" on="0"/>
        <pt x="449" y="-31" on="0"/>
        <pt x="346" y="-31" on="1"/>
        <pt x="304" y="-31" on="0"/>
        <pt x="197" y="-5" on="0"/>
        <pt x="104" y="37" on="0"/>
        <pt x="40" y="91" on="0"/>
        <pt x="40" y="118" on="1"/>
        <pt x="40" y="131" on="0"/>
        <pt x="67" y="183" on="0"/>
        <pt x="104" y="235" on="0"/>
        <pt x="145" y="274" on="0"/>
        <pt x="159" y="274" on="1"/>
        <pt x="168" y="274" on="0"/>
        <pt x="190" y="248" on="0"/>
        <pt x="220" y="210" on="0"/>
        <pt x="259" y="165" on="0"/>
        <pt x="310" y="127" on="0"/>
        <pt x="374" y="101" on="0"/>
        <pt x="415" y="101" on="1"/>
        <pt x="472" y="101" on="0"/>
        <pt x="570" y="139" on="0"/>
        <pt x="643" y="206" on="0"/>
        <pt x="685" y="298" on="0"/>
        <pt x="685" y="353" on="1"/>
        <pt x="685" y="395" on="0"/>
        <pt x="659" y="466" on="0"/>
        <pt x="598" y="534" on="0"/>
        <pt x="496" y="600" on="0"/>
        <pt x="420" y="636" on="1"/>
        <pt x="354" y="667" on="0"/>
        <pt x="268" y="737" on="0"/>
        <pt x="219" y="812" on="0"/>
        <pt x="199" y="889" on="0"/>
        <pt x="199" y="928" on="1"/>
        <pt x="199" y="994" on="0"/>
        <pt x="262" y="1124" on="0"/>
        <pt x="378" y="1226" on="0"/>
        <pt x="541" y="1290" on="0"/>
        <pt x="642" y="1290" on="1"/>
        <pt x="722" y="1290" on="0"/>
        <pt x="854" y="1235" on="0"/>
      </contour>
    </TTGlyph>
    <TTGlyph name="Sacute" xMin="40" yMin="-31" xMax="927" yMax="1716">
      <component glyphName="S" x="0" y="0" flags="0x0"/>
      <component glyphName="acutecomb.LP" x="936" y="320" flags="0x0"/>
    </TTGlyph>
    <TTGlyph name="Scaron" xMin="40" yMin="-31" xMax="925" yMax="1726">
      <component glyphName="S" x="0" y="0" flags="0x0"/>
      <component glyphName="uni030C.LP" x="943" y="320" flags="0x0"/>
    </TTGlyph>
    <TTGlyph name="Scircumflex" xMin="40" yMin="-31" xMax="908" yMax="1697">
      <component glyphName="S" x="0" y="0" flags="0x0"/>
      <component glyphName="uni0302.LP" x="938" y="320" flags="0x0"/>
    </TTGlyph>
    <TTGlyph name="T" xMin="107" yMin="0" xMax="1143" yMax="1260">
      <contour>
        <pt x="709" y="0" on="1"/>
        <pt x="238" y="0" on="1"/>
        <pt x="245" y="53" on="1"/>
        <pt x="288" y="62" on="0"/>
        <pt x="347" y="82" on="0"/>
        <pt x="384" y="101" on="0"/>
        <pt x="401" y="118" on="0"/>
        <pt x="402" y="125" on="1"/>
        <pt x="546" y="1159" on="1"/>
        <pt x="287" y="1159" on="1"/>
        <pt x="273" y="1159" on="0"/>
        <pt x="249" y="1145" on="0"/>
        <pt x="219" y="1105" on="0"/>
        <pt x="181" y="1032" on="0"/>
        <pt x="153" y="974" on="1"/>
        <pt x="107" y="995" on="1"/>
        <pt x="111" y="1022" on="0"/>
        <pt x="126" y="1093" on="0"/>
        <pt x="145" y="1166" on="0"/>
        <pt x="165" y="1235" on="0"/>
        <pt x="174" y="1260" on="1"/>
        <pt x="1119" y="1260" on="1"/>
        <pt x="1143" y="1233" on="1"/>
        <pt x="1139" y="1209" on="0"/>
        <pt x="1125" y="1143" on="0"/>
        <pt x="1108" y="1073" on="0"/>
        <pt x="1090" y="1006" on="0"/>
        <pt x="1081" y="979" on="1"/>
        <pt x="1030" y="979" on="1"/>
        <pt x="1028" y="1028" on="0"/>
        <pt x="1022" y="1097" on="0"/>
        <pt x="1009" y="1140" on="0"/>
        <pt x="985" y="1159" on="0"/>
        <pt x="965" y="1159" on="1"/>
        <pt x="718" y="1159" on="1"/>
        <pt x="577" y="125" on="1"/>
        <pt x="576" y="119" on="0"/>
        <pt x="589" y="102" on="0"/>
        <pt x="621" y="82" on="0"/>
        <pt x="675" y="62" on="0"/>
        <pt x="716" y="53" on="1"/>
      </contour>
    </TTGlyph>
    <TTGlyph name="Tcaron" xMin="107" yMin="0" xMax="1143" yMax="1726">
      <component glyphName="T" x="0" y="0" flags="0x0"/>
      <component glyphName="uni030C.LP" x="1011" y="320" flags="0x0"/>
    </TTGlyph>
    <TTGlyph name="Thorn" xMin="1" yMin="0" xMax="975" yMax="1260">
      <contour>
        <pt x="626" y="1207" on="1"/>
        <pt x="579" y="1198" on="0"/>
        <pt x="516" y="1182" on="0"/>
        <pt x="478" y="1167" on="0"/>
        <pt x="461" y="1152" on="0"/>
        <pt x="460" y="1145" on="1"/>
        <pt x="442" y="1012" on="1"/>
        <pt x="506" y="1023" on="0"/>
        <pt x="581" y="1023" on="1"/>
        <pt x="672" y="1023" on="0"/>
        <pt x="818" y="975" on="0"/>
        <pt x="920" y="888" on="0"/>
        <pt x="975" y="765" on="0"/>
        <pt x="975" y="690" on="1"/>
        <pt x="975" y="603" on="0"/>
        <pt x="908" y="447" on="0"/>
        <pt x="790" y="330" on="0"/>
        <pt x="630" y="262" on="0"/>
        <pt x="536" y="262" on="1"/>
        <pt x="494" y="262" on="0"/>
        <pt x="423" y="278" on="0"/>
        <pt x="395" y="295" on="1"/>
        <pt x="384" y="379" on="1"/>
        <pt x="420" y="360" on="0"/>
        <pt x="488" y="350" on="0"/>
        <pt x="520" y="350" on="1"/>
        <pt x="582" y="350" on="0"/>
        <pt x="686" y="395" on="0"/>
        <pt x="760" y="475" on="0"/>
        <pt x="801" y="586" on="0"/>
        <pt x="801" y="651" on="1"/>
        <pt x="801" y="720" on="0"/>
        <pt x="757" y="825" on="0"/>
        <pt x="681" y="896" on="0"/>
        <pt x="579" y="931" on="0"/>
        <pt x="520" y="931" on="1"/>
        <pt x="497" y="931" on="0"/>
        <pt x="452" y="926" on="0"/>
        <pt x="429" y="921" on="1"/>
        <pt x="320" y="114" on="1"/>
        <pt x="318" y="108" on="0"/>
        <pt x="330" y="94" on="0"/>
        <pt x="364" y="78" on="0"/>
        <pt x="422" y="62" on="0"/>
        <pt x="467" y="53" on="1"/>
        <pt x="460" y="0" on="1"/>
        <pt x="1" y="0" on="1"/>
        <pt x="8" y="53" on="1"/>
        <pt x="71" y="67" on="0"/>
        <pt x="143" y="100" on="0"/>
        <pt x="145" y="114" on="1"/>
        <pt x="287" y="1145" on="1"/>
        <pt x="289" y="1157" on="0"/>
        <pt x="230" y="1193" on="0"/>
        <pt x="167" y="1207" on="1"/>
        <pt x="174" y="1260" on="1"/>
        <pt x="633" y="1260" on="1"/>
      </contour>
    </TTGlyph>
    <TTGlyph name="U" xMin="166" yMin="-31" xMax="1302" yMax="1260">
      <contour>
        <pt x="1295" y="1207" on="1"/>
        <pt x="1232" y="1193" on="0"/>
        <pt x="1165" y="1159" on="0"/>
        <pt x="1163" y="1145" on="1"/>
        <pt x="1074" y="512" on="1"/>
        <pt x="1056" y="381" on="0"/>
        <pt x="967" y="178" on="0"/>
        <pt x="835" y="40" on="0"/>
        <pt x="665" y="-31" on="0"/>
        <pt x="566" y="-31" on="1"/>
        <pt x="484" y="-31" on="0"/>
        <pt x="343" y="19" on="0"/>
        <pt x="240" y="115" on="0"/>
        <pt x="182" y="256" on="0"/>
        <pt x="182" y="348" on="1"/>
        <pt x="182" y="401" on="0"/>
        <pt x="191" y="463" on="1"/>
        <pt x="288" y="1145" on="1"/>
        <pt x="290" y="1157" on="0"/>
        <pt x="231" y="1193" on="0"/>
        <pt x="166" y="1207" on="1"/>
        <pt x="173" y="1260" on="1"/>
        <pt x="607" y="1260" on="1"/>
        <pt x="599" y="1207" on="1"/>
        <pt x="536" y="1193" on="0"/>
        <pt x="462" y="1159" on="0"/>
        <pt x="460" y="1145" on="1"/>
        <pt x="372" y="510" on="1"/>
        <pt x="368" y="481" on="0"/>
        <pt x="365" y="423" on="0"/>
        <pt x="365" y="397" on="1"/>
        <pt x="365" y="327" on="0"/>
        <pt x="398" y="216" on="0"/>
        <pt x="463" y="138" on="0"/>
        <pt x="560" y="96" on="0"/>
        <pt x="624" y="96" on="1"/>
        <pt x="689" y="96" on="0"/>
        <pt x="795" y="157" on="0"/>
        <pt x="875" y="259" on="0"/>
        <pt x="926" y="394" on="0"/>
        <pt x="936" y="469" on="1"/>
        <pt x="1028" y="1145" on="1"/>
        <pt x="1030" y="1157" on="0"/>
        <pt x="976" y="1193" on="0"/>
        <pt x="911" y="1207" on="1"/>
        <pt x="918" y="1260" on="1"/>
        <pt x="1302" y="1260" on="1"/>
      </contour>
    </TTGlyph>
    <TTGlyph name="Uacute" xMin="166" yMin="-31" xMax="1302" yMax="1716">
      <component glyphName="U" x="0" y="0" flags="0x0"/>
      <component glyphName="acutecomb.LP" x="1114" y="320" flags="0x0"/>
    </TTGlyph>
    <TTGlyph name="Ubreve" xMin="166" yMin="-31" xMax="1302" yMax="1708">
      <component glyphName="U" x="0" y="0" flags="0x0"/>
      <component glyphName="uni0306" x="1124" y="320" flags="0x0"/>
    </TTGlyph>
    <TTGlyph name="Ucircumflex" xMin="166" yMin="-31" xMax="1302" yMax="1697">
      <component glyphName="U" x="0" y="0" flags="0x0"/>
      <component glyphName="uni0302.LP" x="1116" y="320" flags="0x0"/>
    </TTGlyph>
    <TTGlyph name="Udieresis" xMin="166" yMin="-31" xMax="1302" yMax="1631">
      <component glyphName="U" x="0" y="0" flags="0x0"/>
      <component glyphName="uni0308.LP" x="1121" y="320" flags="0x0"/>
    </TTGlyph>
    <TTGlyph name="Ugrave" xMin="166" yMin="-31" xMax="1302" yMax="1716">
      <component glyphName="U" x="0" y="0" flags="0x0"/>
      <component glyphName="gravecomb.LP" x="1036" y="320" flags="0x0"/>
    </TTGlyph>
    <TTGlyph name="Uhorn" xMin="166" yMin="-31" xMax="1473" yMax="1503">
      <contour>
        <pt x="1473" y="1418" on="1"/>
        <pt x="1473" y="1367" on="0"/>
        <pt x="1425" y="1275" on="0"/>
        <pt x="1340" y="1195" on="0"/>
        <pt x="1224" y="1126" on="0"/>
        <pt x="1156" y="1099" on="1"/>
        <pt x="1074" y="512" on="1"/>
        <pt x="1056" y="381" on="0"/>
        <pt x="967" y="178" on="0"/>
        <pt x="835" y="40" on="0"/>
        <pt x="665" y="-31" on="0"/>
        <pt x="566" y="-31" on="1"/>
        <pt x="484" y="-31" on="0"/>
        <pt x="343" y="19" on="0"/>
        <pt x="240" y="115" on="0"/>
        <pt x="182" y="256" on="0"/>
        <pt x="182" y="348" on="1"/>
        <pt x="182" y="401" on="0"/>
        <pt x="191" y="463" on="1"/>
        <pt x="288" y="1145" on="1"/>
        <pt x="290" y="1157" on="0"/>
        <pt x="231" y="1193" on="0"/>
        <pt x="166" y="1207" on="1"/>
        <pt x="173" y="1260" on="1"/>
        <pt x="607" y="1260" on="1"/>
        <pt x="599" y="1207" on="1"/>
        <pt x="536" y="1193" on="0"/>
        <pt x="462" y="1159" on="0"/>
        <pt x="460" y="1145" on="1"/>
        <pt x="372" y="510" on="1"/>
        <pt x="368" y="481" on="0"/>
        <pt x="365" y="423" on="0"/>
        <pt x="365" y="397" on="1"/>
        <pt x="365" y="327" on="0"/>
        <pt x="398" y="216" on="0"/>
        <pt x="463" y="138" on="0"/>
        <pt x="560" y="96" on="0"/>
        <pt x="624" y="96" on="1"/>
        <pt x="689" y="96" on="0"/>
        <pt x="795" y="157" on="0"/>
        <pt x="875" y="259" on="0"/>
        <pt x="926" y="394" on="0"/>
        <pt x="936" y="469" on="1"/>
        <pt x="1028" y="1145" on="1"/>
        <pt x="1030" y="1157" on="0"/>
        <pt x="976" y="1193" on="0"/>
        <pt x="911" y="1207" on="1"/>
        <pt x="918" y="1260" on="1"/>
        <pt x="1268" y="1260" on="1"/>
        <pt x="1287" y="1293" on="0"/>
        <pt x="1287" y="1333" on="1"/>
        <pt x="1287" y="1351" on="0"/>
        <pt x="1269" y="1398" on="0"/>
        <pt x="1240" y="1413" on="1"/>
        <pt x="1428" y="1503" on="1"/>
        <pt x="1453" y="1488" on="0"/>
        <pt x="1473" y="1440" on="0"/>
      </contour>
    </TTGlyph>
    <TTGlyph name="Uhungarumlaut" xMin="166" yMin="-31" xMax="1302" yMax="1782">
      <component glyphName="U" x="0" y="0" flags="0x0"/>
      <component glyphName="uni030B" x="1122" y="320" flags="0x0"/>
    </TTGlyph>
    <TTGlyph name="Umacron" xMin="166" yMin="-31" xMax="1302" yMax="1580">
      <component glyphName="U" x="0" y="0" flags="0x0"/>
      <component glyphName="uni0304.LP" x="1126" y="320" flags="0x0"/>
    </TTGlyph>
    <TTGlyph name="Uring" xMin="166" yMin="-31" xMax="1302" yMax="1744">
      <component glyphName="U" x="0" y="0" flags="0x0"/>
      <component glyphName="uni030A" x="1115" y="320" flags="0x0"/>
    </TTGlyph>
    <TTGlyph name="Utilde" xMin="166" yMin="-31" xMax="1302" yMax="1642">
      <component glyphName="U" x="0" y="0" flags="0x0"/>
      <component glyphName="tildecomb.LP" x="1116" y="320" flags="0x0"/>
    </TTGlyph>
    <TTGlyph name="V" xMin="134" yMin="-31" xMax="1321" yMax="1260">
      <contour>
        <pt x="1313" y="1207" on="1"/>
        <pt x="1249" y="1194" on="0"/>
        <pt x="1174" y="1169" on="0"/>
        <pt x="1161" y="1141" on="1"/>
        <pt x="664" y="67" on="1"/>
        <pt x="654" y="45" on="0"/>
        <pt x="612" y="12" on="0"/>
        <pt x="562" y="-12" on="0"/>
        <pt x="514" y="-27" on="0"/>
        <pt x="498" y="-31" on="1"/>
        <pt x="250" y="1141" on="1"/>
        <pt x="245" y="1167" on="0"/>
        <pt x="193" y="1199" on="0"/>
        <pt x="134" y="1207" on="1"/>
        <pt x="141" y="1260" on="1"/>
        <pt x="564" y="1260" on="1"/>
        <pt x="557" y="1207" on="1"/>
        <pt x="485" y="1202" on="0"/>
        <pt x="427" y="1172" on="0"/>
        <pt x="434" y="1142" on="1"/>
        <pt x="622" y="225" on="1"/>
        <pt x="1045" y="1141" on="1"/>
        <pt x="1059" y="1170" on="0"/>
        <pt x="1001" y="1197" on="0"/>
        <pt x="928" y="1207" on="1"/>
        <pt x="935" y="1260" on="1"/>
        <pt x="1321" y="1260" on="1"/>
      </contour>
    </TTGlyph>
    <TTGlyph name="W" xMin="124" yMin="-31" xMax="1682" yMax="1260">
      <contour>
        <pt x="1676" y="1207" on="1"/>
        <pt x="1610" y="1192" on="0"/>
        <pt x="1533" y="1168" on="0"/>
        <pt x="1525" y="1145" on="1"/>
        <pt x="1166" y="59" on="1"/>
        <pt x="1158" y="37" on="0"/>
        <pt x="1122" y="6" on="0"/>
        <pt x="1080" y="-15" on="0"/>
        <pt x="1038" y="-28" on="0"/>
        <pt x="1025" y="-31" on="1"/>
        <pt x="851" y="923" on="1"/>
        <pt x="469" y="59" on="1"/>
        <pt x="459" y="36" on="0"/>
        <pt x="420" y="5" on="0"/>
        <pt x="375" y="-16" on="0"/>
        <pt x="332" y="-28" on="0"/>
        <pt x="318" y="-31" on="1"/>
        <pt x="241" y="1137" on="1"/>
        <pt x="239" y="1162" on="0"/>
        <pt x="189" y="1194" on="0"/>
        <pt x="124" y="1207" on="1"/>
        <pt x="131" y="1260" on="1"/>
        <pt x="543" y="1260" on="1"/>
        <pt x="536" y="1207" on="1"/>
        <pt x="491" y="1202" on="0"/>
        <pt x="438" y="1187" on="0"/>
        <pt x="410" y="1169" on="0"/>
        <pt x="402" y="1148" on="0"/>
        <pt x="403" y="1137" on="1"/>
        <pt x="461" y="298" on="1"/>
        <pt x="883" y="1260" on="1"/>
        <pt x="951" y="1260" on="1"/>
        <pt x="1134" y="298" on="1"/>
        <pt x="1412" y="1145" on="1"/>
        <pt x="1416" y="1157" on="0"/>
        <pt x="1399" y="1175" on="0"/>
        <pt x="1363" y="1189" on="0"/>
        <pt x="1312" y="1201" on="0"/>
        <pt x="1281" y="1207" on="1"/>
        <pt x="1288" y="1260" on="1"/>
        <pt x="1682" y="1260" on="1"/>
      </contour>
    </TTGlyph>
    <TTGlyph name="Wacute" xMin="124" yMin="-31" xMax="1682" yMax="1716">
      <component glyphName="W" x="0" y="0" flags="0x0"/>
      <component glyphName="acutecomb.LP" x="1271" y="320" flags="0x0"/>
    </TTGlyph>
    <TTGlyph name="Wcircumflex" xMin="124" yMin="-31" xMax="1682" yMax="1697">
      <component glyphName="W" x="0" y="0" flags="0x0"/>
      <component glyphName="uni0302.LP" x="1273" y="320" flags="0x0"/>
    </TTGlyph>
    <TTGlyph name="Wdieresis" xMin="124" yMin="-31" xMax="1682" yMax="1631">
      <component glyphName="W" x="0" y="0" flags="0x0"/>
      <component glyphName="uni0308.LP" x="1278" y="320" flags="0x0"/>
    </TTGlyph>
    <TTGlyph name="Wgrave" xMin="124" yMin="-31" xMax="1682" yMax="1716">
      <component glyphName="W" x="0" y="0" flags="0x0"/>
      <component glyphName="gravecomb.LP" x="1193" y="320" flags="0x0"/>
    </TTGlyph>
    <TTGlyph name="X" xMin="-25" yMin="0" xMax="1216" yMax="1260">
      <contour>
        <pt x="1096" y="0" on="1"/>
        <pt x="658" y="0" on="1"/>
        <pt x="665" y="53" on="1"/>
        <pt x="706" y="57" on="0"/>
        <pt x="757" y="70" on="0"/>
        <pt x="783" y="89" on="0"/>
        <pt x="783" y="117" on="0"/>
        <pt x="773" y="137" on="1"/>
        <pt x="577" y="533" on="1"/>
        <pt x="295" y="137" on="1"/>
        <pt x="263" y="93" on="0"/>
        <pt x="312" y="59" on="0"/>
        <pt x="395" y="53" on="1"/>
        <pt x="388" y="0" on="1"/>
        <pt x="-25" y="0" on="1"/>
        <pt x="-18" y="53" on="1"/>
        <pt x="43" y="58" on="0"/>
        <pt x="132" y="96" on="0"/>
        <pt x="161" y="137" on="1"/>
        <pt x="521" y="647" on="1"/>
        <pt x="286" y="1123" on="1"/>
        <pt x="274" y="1145" on="0"/>
        <pt x="252" y="1173" on="0"/>
        <pt x="222" y="1191" on="0"/>
        <pt x="181" y="1202" on="0"/>
        <pt x="151" y="1207" on="1"/>
        <pt x="158" y="1260" on="1"/>
        <pt x="599" y="1260" on="1"/>
        <pt x="592" y="1207" on="1"/>
        <pt x="513" y="1199" on="0"/>
        <pt x="460" y="1167" on="0"/>
        <pt x="482" y="1123" on="1"/>
        <pt x="652" y="779" on="1"/>
        <pt x="895" y="1123" on="1"/>
        <pt x="911" y="1146" on="0"/>
        <pt x="914" y="1175" on="0"/>
        <pt x="888" y="1194" on="0"/>
        <pt x="834" y="1204" on="0"/>
        <pt x="794" y="1207" on="1"/>
        <pt x="802" y="1260" on="1"/>
        <pt x="1216" y="1260" on="1"/>
        <pt x="1208" y="1207" on="1"/>
        <pt x="1175" y="1203" on="0"/>
        <pt x="1122" y="1192" on="0"/>
        <pt x="1079" y="1173" on="0"/>
        <pt x="1044" y="1144" on="0"/>
        <pt x="1029" y="1123" on="1"/>
        <pt x="706" y="670" on="1"/>
        <pt x="971" y="137" on="1"/>
        <pt x="981" y="116" on="0"/>
        <pt x="1006" y="87" on="0"/>
        <pt x="1037" y="68" on="0"/>
        <pt x="1078" y="57" on="0"/>
        <pt x="1104" y="53" on="1"/>
      </contour>
    </TTGlyph>
    <TTGlyph name="Y" xMin="109" yMin="0" xMax="1223" yMax="1275">
      <contour>
        <pt x="756" y="0" on="1"/>
        <pt x="284" y="0" on="1"/>
        <pt x="292" y="53" on="1"/>
        <pt x="335" y="62" on="0"/>
        <pt x="395" y="82" on="0"/>
        <pt x="432" y="101" on="0"/>
        <pt x="449" y="118" on="0"/>
        <pt x="450" y="125" on="1"/>
        <pt x="507" y="544" on="1"/>
        <pt x="488" y="618" on="0"/>
        <pt x="430" y="787" on="0"/>
        <pt x="362" y="950" on="0"/>
        <pt x="291" y="1094" on="0"/>
        <pt x="260" y="1144" on="1"/>
        <pt x="251" y="1158" on="0"/>
        <pt x="230" y="1176" on="0"/>
        <pt x="198" y="1185" on="0"/>
        <pt x="150" y="1186" on="0"/>
        <pt x="114" y="1183" on="1"/>
        <pt x="109" y="1236" on="1"/>
        <pt x="136" y="1242" on="0"/>
        <pt x="204" y="1256" on="0"/>
        <pt x="271" y="1267" on="0"/>
        <pt x="330" y="1275" on="0"/>
        <pt x="349" y="1275" on="1"/>
        <pt x="365" y="1275" on="0"/>
        <pt x="398" y="1253" on="0"/>
        <pt x="411" y="1233" on="1"/>
        <pt x="432" y="1200" on="0"/>
        <pt x="478" y="1112" on="0"/>
        <pt x="523" y="1014" on="0"/>
        <pt x="566" y="909" on="0"/>
        <pt x="604" y="808" on="0"/>
        <pt x="634" y="715" on="0"/>
        <pt x="644" y="678" on="1"/>
        <pt x="943" y="1141" on="1"/>
        <pt x="960" y="1169" on="0"/>
        <pt x="916" y="1197" on="0"/>
        <pt x="847" y="1207" on="1"/>
        <pt x="854" y="1260" on="1"/>
        <pt x="1223" y="1260" on="1"/>
        <pt x="1216" y="1207" on="1"/>
        <pt x="1152" y="1194" on="0"/>
        <pt x="1084" y="1167" on="0"/>
        <pt x="1067" y="1141" on="1"/>
        <pt x="680" y="535" on="1"/>
        <pt x="624" y="125" on="1"/>
        <pt x="623" y="119" on="0"/>
        <pt x="636" y="102" on="0"/>
        <pt x="667" y="82" on="0"/>
        <pt x="722" y="62" on="0"/>
        <pt x="763" y="53" on="1"/>
      </contour>
    </TTGlyph>
    <TTGlyph name="Yacute" xMin="109" yMin="0" xMax="1223" yMax="1716">
      <component glyphName="Y" x="0" y="0" flags="0x0"/>
      <component glyphName="acutecomb.LP" x="1050" y="320" flags="0x0"/>
    </TTGlyph>
    <TTGlyph name="Ycircumflex" xMin="109" yMin="0" xMax="1223" yMax="1697">
      <component glyphName="Y" x="0" y="0" flags="0x0"/>
      <component glyphName="uni0302.LP" x="1052" y="320" flags="0x0"/>
    </TTGlyph>
    <TTGlyph name="Ydieresis" xMin="109" yMin="0" xMax="1223" yMax="1631">
      <component glyphName="Y" x="0" y="0" flags="0x0"/>
      <component glyphName="uni0308.LP" x="1057" y="320" flags="0x0"/>
    </TTGlyph>
    <TTGlyph name="Ygrave" xMin="109" yMin="0" xMax="1223" yMax="1716">
      <component glyphName="Y" x="0" y="0" flags="0x0"/>
      <component glyphName="gravecomb.LP" x="972" y="320" flags="0x0"/>
    </TTGlyph>
    <TTGlyph name="Z" xMin="26" yMin="0" xMax="1043" yMax="1284">
      <contour>
        <pt x="268" y="110" on="1"/>
        <pt x="732" y="110" on="1"/>
        <pt x="752" y="110" on="0"/>
        <pt x="788" y="133" on="0"/>
        <pt x="825" y="186" on="0"/>
        <pt x="867" y="273" on="0"/>
        <pt x="893" y="337" on="1"/>
        <pt x="951" y="321" on="1"/>
        <pt x="945" y="288" on="0"/>
        <pt x="930" y="201" on="0"/>
        <pt x="915" y="112" on="0"/>
        <pt x="901" y="29" on="0"/>
        <pt x="896" y="0" on="1"/>
        <pt x="47" y="0" on="1"/>
        <pt x="26" y="48" on="1"/>
        <pt x="809" y="1155" on="1"/>
        <pt x="406" y="1155" on="1"/>
        <pt x="391" y="1155" on="0"/>
        <pt x="351" y="1129" on="0"/>
        <pt x="308" y="1076" on="0"/>
        <pt x="265" y="996" on="0"/>
        <pt x="247" y="941" on="1"/>
        <pt x="186" y="955" on="1"/>
        <pt x="262" y="1284" on="1"/>
        <pt x="286" y="1275" on="0"/>
        <pt x="327" y="1265" on="0"/>
        <pt x="366" y="1261" on="0"/>
        <pt x="409" y="1260" on="0"/>
        <pt x="435" y="1260" on="1"/>
        <pt x="1023" y="1260" on="1"/>
        <pt x="1043" y="1212" on="1"/>
      </contour>
    </TTGlyph>
    <TTGlyph name="Zacute" xMin="26" yMin="0" xMax="1043" yMax="1716">
      <component glyphName="Z" x="0" y="0" flags="0x0"/>
      <component glyphName="acutecomb.LP" x="997" y="320" flags="0x0"/>
    </TTGlyph>
    <TTGlyph name="Zcaron" xMin="26" yMin="0" xMax="1043" yMax="1726">
      <component glyphName="Z" x="0" y="0" flags="0x0"/>
      <component glyphName="uni030C.LP" x="1004" y="320" flags="0x0"/>
    </TTGlyph>
    <TTGlyph name="Zdotaccent" xMin="26" yMin="0" xMax="1043" yMax="1631">
      <component glyphName="Z" x="0" y="0" flags="0x0"/>
      <component glyphName="uni0307.LP" x="1000" y="320" flags="0x0"/>
    </TTGlyph>
    <TTGlyph name="a" xMin="48" yMin="-41" xMax="927" yMax="936">
      <contour>
        <pt x="597" y="414" on="1"/>
        <pt x="603" y="457" on="0"/>
        <pt x="619" y="553" on="0"/>
        <pt x="635" y="644" on="0"/>
        <pt x="649" y="721" on="0"/>
        <pt x="654" y="747" on="1"/>
        <pt x="639" y="760" on="0"/>
        <pt x="604" y="785" on="0"/>
        <pt x="566" y="806" on="0"/>
        <pt x="526" y="819" on="0"/>
        <pt x="505" y="819" on="1"/>
        <pt x="460" y="819" on="0"/>
        <pt x="383" y="775" on="0"/>
        <pt x="318" y="704" on="0"/>
        <pt x="268" y="612" on="0"/>
        <pt x="233" y="514" on="0"/>
        <pt x="215" y="418" on="0"/>
        <pt x="215" y="379" on="1"/>
        <pt x="215" y="317" on="0"/>
        <pt x="235" y="220" on="0"/>
        <pt x="269" y="152" on="0"/>
        <pt x="316" y="116" on="0"/>
        <pt x="342" y="116" on="1"/>
        <pt x="363" y="116" on="0"/>
        <pt x="425" y="166" on="0"/>
        <pt x="494" y="250" on="0"/>
        <pt x="565" y="357" on="0"/>
      </contour>
      <contour>
        <pt x="927" y="81" on="1"/>
        <pt x="841" y="22" on="0"/>
        <pt x="720" y="-41" on="0"/>
        <pt x="688" y="-41" on="1"/>
        <pt x="670" y="-41" on="0"/>
        <pt x="634" y="-17" on="0"/>
        <pt x="603" y="47" on="0"/>
        <pt x="582" y="159" on="0"/>
        <pt x="581" y="246" on="1"/>
        <pt x="554" y="200" on="0"/>
        <pt x="479" y="99" on="0"/>
        <pt x="395" y="14" on="0"/>
        <pt x="307" y="-41" on="0"/>
        <pt x="266" y="-41" on="1"/>
        <pt x="232" y="-41" on="0"/>
        <pt x="156" y="-3" on="0"/>
        <pt x="91" y="80" on="0"/>
        <pt x="48" y="211" on="0"/>
        <pt x="48" y="305" on="1"/>
        <pt x="48" y="384" on="0"/>
        <pt x="86" y="535" on="0"/>
        <pt x="161" y="673" on="0"/>
        <pt x="269" y="794" on="0"/>
        <pt x="340" y="842" on="1"/>
        <pt x="367" y="860" on="0"/>
        <pt x="432" y="894" on="0"/>
        <pt x="503" y="920" on="0"/>
        <pt x="575" y="936" on="0"/>
        <pt x="610" y="936" on="1"/>
        <pt x="631" y="936" on="0"/>
        <pt x="671" y="925" on="0"/>
        <pt x="709" y="907" on="0"/>
        <pt x="745" y="886" on="0"/>
        <pt x="761" y="876" on="1"/>
        <pt x="787" y="893" on="0"/>
        <pt x="845" y="922" on="0"/>
        <pt x="872" y="936" on="1"/>
        <pt x="896" y="891" on="1"/>
        <pt x="879" y="877" on="0"/>
        <pt x="857" y="855" on="0"/>
        <pt x="840" y="826" on="0"/>
        <pt x="828" y="784" on="0"/>
        <pt x="821" y="750" on="1"/>
        <pt x="806" y="678" on="0"/>
        <pt x="780" y="532" on="0"/>
        <pt x="761" y="406" on="0"/>
        <pt x="751" y="309" on="0"/>
        <pt x="751" y="287" on="1"/>
        <pt x="751" y="187" on="0"/>
        <pt x="779" y="99" on="0"/>
        <pt x="802" y="99" on="1"/>
        <pt x="822" y="99" on="0"/>
        <pt x="874" y="110" on="0"/>
        <pt x="914" y="127" on="1"/>
      </contour>
    </TTGlyph>
    <TTGlyph name="a.SngStory" xMin="48" yMin="-41" xMax="927" yMax="936">
      <contour>
        <pt x="597" y="414" on="1"/>
        <pt x="603" y="457" on="0"/>
        <pt x="619" y="553" on="0"/>
        <pt x="635" y="644" on="0"/>
        <pt x="649" y="721" on="0"/>
        <pt x="654" y="747" on="1"/>
        <pt x="639" y="760" on="0"/>
        <pt x="604" y="785" on="0"/>
        <pt x="566" y="806" on="0"/>
        <pt x="526" y="819" on="0"/>
        <pt x="505" y="819" on="1"/>
        <pt x="460" y="819" on="0"/>
        <pt x="383" y="775" on="0"/>
        <pt x="318" y="704" on="0"/>
        <pt x="268" y="612" on="0"/>
        <pt x="233" y="514" on="0"/>
        <pt x="215" y="418" on="0"/>
        <pt x="215" y="379" on="1"/>
        <pt x="215" y="317" on="0"/>
        <pt x="235" y="220" on="0"/>
        <pt x="269" y="152" on="0"/>
        <pt x="316" y="116" on="0"/>
        <pt x="342" y="116" on="1"/>
        <pt x="363" y="116" on="0"/>
        <pt x="425" y="166" on="0"/>
        <pt x="494" y="250" on="0"/>
        <pt x="565" y="357" on="0"/>
      </contour>
      <contour>
        <pt x="927" y="81" on="1"/>
        <pt x="841" y="22" on="0"/>
        <pt x="720" y="-41" on="0"/>
        <pt x="688" y="-41" on="1"/>
        <pt x="670" y="-41" on="0"/>
        <pt x="634" y="-17" on="0"/>
        <pt x="603" y="47" on="0"/>
        <pt x="582" y="159" on="0"/>
        <pt x="581" y="246" on="1"/>
        <pt x="554" y="200" on="0"/>
        <pt x="479" y="99" on="0"/>
        <pt x="395" y="14" on="0"/>
        <pt x="307" y="-41" on="0"/>
        <pt x="266" y="-41" on="1"/>
        <pt x="232" y="-41" on="0"/>
        <pt x="156" y="-3" on="0"/>
        <pt x="91" y="80" on="0"/>
        <pt x="48" y="211" on="0"/>
        <pt x="48" y="305" on="1"/>
        <pt x="48" y="384" on="0"/>
        <pt x="86" y="535" on="0"/>
        <pt x="161" y="673" on="0"/>
        <pt x="269" y="794" on="0"/>
        <pt x="340" y="842" on="1"/>
        <pt x="367" y="860" on="0"/>
        <pt x="432" y="894" on="0"/>
        <pt x="503" y="920" on="0"/>
        <pt x="575" y="936" on="0"/>
        <pt x="610" y="936" on="1"/>
        <pt x="631" y="936" on="0"/>
        <pt x="671" y="925" on="0"/>
        <pt x="709" y="907" on="0"/>
        <pt x="745" y="886" on="0"/>
        <pt x="761" y="876" on="1"/>
        <pt x="787" y="893" on="0"/>
        <pt x="845" y="922" on="0"/>
        <pt x="872" y="936" on="1"/>
        <pt x="896" y="891" on="1"/>
        <pt x="879" y="877" on="0"/>
        <pt x="857" y="855" on="0"/>
        <pt x="840" y="826" on="0"/>
        <pt x="828" y="784" on="0"/>
        <pt x="821" y="750" on="1"/>
        <pt x="806" y="678" on="0"/>
        <pt x="780" y="532" on="0"/>
        <pt x="761" y="406" on="0"/>
        <pt x="751" y="309" on="0"/>
        <pt x="751" y="287" on="1"/>
        <pt x="751" y="187" on="0"/>
        <pt x="779" y="99" on="0"/>
        <pt x="802" y="99" on="1"/>
        <pt x="822" y="99" on="0"/>
        <pt x="874" y="110" on="0"/>
        <pt x="914" y="127" on="1"/>
      </contour>
    </TTGlyph>
    <TTGlyph name="aacute" xMin="48" yMin="-41" xMax="927" yMax="1462">
      <component glyphName="a" x="0" y="0" flags="0x0"/>
      <component glyphName="acutecomb" x="914" y="0" flags="0x0"/>
    </TTGlyph>
    <TTGlyph name="aacute.SngStory" xMin="48" yMin="-41" xMax="927" yMax="1462">
      <component glyphName="a.SngStory" x="0" y="0" flags="0x0"/>
      <component glyphName="acutecomb" x="914" y="0" flags="0x0"/>
    </TTGlyph>
    <TTGlyph name="abreve" xMin="48" yMin="-41" xMax="927" yMax="1388">
      <component glyphName="a" x="0" y="0" flags="0x0"/>
      <component glyphName="uni0306" x="924" y="0" flags="0x0"/>
    </TTGlyph>
    <TTGlyph name="abreve.SngStory" xMin="48" yMin="-41" xMax="927" yMax="1388">
      <component glyphName="a.SngStory" x="0" y="0" flags="0x0"/>
      <component glyphName="uni0306" x="924" y="0" flags="0x0"/>
    </TTGlyph>
    <TTGlyph name="acircumflex" xMin="48" yMin="-41" xMax="927" yMax="1447">
      <component glyphName="a" x="0" y="0" flags="0x0"/>
      <component glyphName="uni0302" x="918" y="0" flags="0x0"/>
    </TTGlyph>
    <TTGlyph name="acircumflex.SngStory" xMin="48" yMin="-41" xMax="927" yMax="1447">
      <component glyphName="a.SngStory" x="0" y="0" flags="0x0"/>
      <component glyphName="uni0302" x="918" y="0" flags="0x0"/>
    </TTGlyph>
    <TTGlyph name="acute" xMin="169" yMin="1024" xMax="584" yMax="1462">
      <contour>
        <pt x="584" y="1372" on="1"/>
        <pt x="221" y="1024" on="1"/>
        <pt x="205" y="1028" on="0"/>
        <pt x="183" y="1047" on="0"/>
        <pt x="169" y="1064" on="1"/>
        <pt x="428" y="1462" on="1"/>
        <pt x="438" y="1460" on="0"/>
        <pt x="477" y="1450" on="0"/>
        <pt x="520" y="1438" on="0"/>
        <pt x="557" y="1426" on="0"/>
        <pt x="566" y="1422" on="1"/>
      </contour>
    </TTGlyph>
    <TTGlyph name="acutecomb" xMin="-413" yMin="1024" xMax="2" yMax="1462">
      <contour>
        <pt x="2" y="1372" on="1"/>
        <pt x="-361" y="1024" on="1"/>
        <pt x="-377" y="1028" on="0"/>
        <pt x="-399" y="1047" on="0"/>
        <pt x="-413" y="1064" on="1"/>
        <pt x="-154" y="1462" on="1"/>
        <pt x="-144" y="1460" on="0"/>
        <pt x="-104" y="1450" on="0"/>
        <pt x="-62" y="1438" on="0"/>
        <pt x="-24" y="1426" on="0"/>
        <pt x="-16" y="1422" on="1"/>
      </contour>
    </TTGlyph>
    <TTGlyph name="acutecomb.LP" xMin="-507" yMin="1024" xMax="-9" yMax="1396">
      <contour>
        <pt x="-9" y="1265" on="1"/>
        <pt x="-469" y="1024" on="1"/>
        <pt x="-483" y="1033" on="0"/>
        <pt x="-498" y="1058" on="0"/>
        <pt x="-507" y="1078" on="1"/>
        <pt x="-128" y="1396" on="1"/>
        <pt x="-116" y="1388" on="0"/>
        <pt x="-82" y="1368" on="0"/>
        <pt x="-48" y="1346" on="0"/>
        <pt x="-17" y="1325" on="0"/>
        <pt x="-9" y="1317" on="1"/>
      </contour>
    </TTGlyph>
    <TTGlyph name="adieresis" xMin="48" yMin="-41" xMax="927" yMax="1346">
      <component glyphName="a" x="0" y="0" flags="0x0"/>
      <component glyphName="uni0308" x="924" y="0" flags="0x0"/>
    </TTGlyph>
    <TTGlyph name="adieresis.SngStory" xMin="48" yMin="-41" xMax="927" yMax="1346">
      <component glyphName="a.SngStory" x="0" y="0" flags="0x0"/>
      <component glyphName="uni0308" x="924" y="0" flags="0x0"/>
    </TTGlyph>
    <TTGlyph name="ae" xMin="38" yMin="-41" xMax="1285" yMax="936">
      <contour>
        <pt x="905" y="767" on="1"/>
        <pt x="873" y="737" on="0"/>
        <pt x="817" y="658" on="0"/>
        <pt x="774" y="565" on="0"/>
        <pt x="745" y="465" on="0"/>
        <pt x="741" y="414" on="1"/>
        <pt x="862" y="462" on="0"/>
        <pt x="1003" y="542" on="0"/>
        <pt x="1077" y="613" on="0"/>
        <pt x="1098" y="680" on="0"/>
        <pt x="1098" y="715" on="1"/>
        <pt x="1098" y="743" on="0"/>
        <pt x="1083" y="783" on="0"/>
        <pt x="1059" y="809" on="0"/>
        <pt x="1028" y="821" on="0"/>
        <pt x="1012" y="821" on="1"/>
        <pt x="995" y="821" on="0"/>
        <pt x="934" y="794" on="0"/>
      </contour>
      <contour>
        <pt x="588" y="433" on="1"/>
        <pt x="594" y="475" on="0"/>
        <pt x="608" y="568" on="0"/>
        <pt x="622" y="654" on="0"/>
        <pt x="633" y="726" on="0"/>
        <pt x="637" y="747" on="1"/>
        <pt x="621" y="760" on="0"/>
        <pt x="586" y="785" on="0"/>
        <pt x="548" y="806" on="0"/>
        <pt x="508" y="819" on="0"/>
        <pt x="487" y="819" on="1"/>
        <pt x="443" y="819" on="0"/>
        <pt x="366" y="776" on="0"/>
        <pt x="303" y="704" on="0"/>
        <pt x="254" y="612" on="0"/>
        <pt x="220" y="514" on="0"/>
        <pt x="203" y="418" on="0"/>
        <pt x="203" y="379" on="1"/>
        <pt x="203" y="316" on="0"/>
        <pt x="223" y="219" on="0"/>
        <pt x="256" y="151" on="0"/>
        <pt x="301" y="116" on="0"/>
        <pt x="327" y="116" on="1"/>
        <pt x="348" y="116" on="0"/>
        <pt x="410" y="167" on="0"/>
        <pt x="479" y="251" on="0"/>
        <pt x="551" y="359" on="0"/>
        <pt x="584" y="416" on="1"/>
        <pt x="586" y="426" on="0"/>
      </contour>
      <contour>
        <pt x="865" y="899" on="1"/>
        <pt x="850" y="887" on="0"/>
        <pt x="829" y="868" on="0"/>
        <pt x="813" y="846" on="0"/>
        <pt x="800" y="816" on="0"/>
        <pt x="794" y="794" on="1"/>
        <pt x="808" y="808" on="0"/>
        <pt x="839" y="833" on="0"/>
        <pt x="855" y="846" on="1"/>
        <pt x="879" y="864" on="0"/>
        <pt x="939" y="897" on="0"/>
        <pt x="1004" y="922" on="0"/>
        <pt x="1071" y="936" on="0"/>
        <pt x="1102" y="936" on="1"/>
        <pt x="1148" y="936" on="0"/>
        <pt x="1217" y="905" on="0"/>
        <pt x="1262" y="855" on="0"/>
        <pt x="1285" y="792" on="0"/>
        <pt x="1285" y="760" on="1"/>
        <pt x="1285" y="732" on="0"/>
        <pt x="1272" y="670" on="0"/>
        <pt x="1232" y="603" on="0"/>
        <pt x="1159" y="531" on="0"/>
        <pt x="1038" y="453" on="0"/>
        <pt x="864" y="369" on="0"/>
        <pt x="742" y="324" on="1"/>
        <pt x="748" y="270" on="0"/>
        <pt x="782" y="183" on="0"/>
        <pt x="828" y="122" on="0"/>
        <pt x="880" y="89" on="0"/>
        <pt x="905" y="89" on="1"/>
        <pt x="926" y="89" on="0"/>
        <pt x="987" y="101" on="0"/>
        <pt x="1066" y="135" on="0"/>
        <pt x="1166" y="196" on="0"/>
        <pt x="1227" y="244" on="1"/>
        <pt x="1232" y="241" on="0"/>
        <pt x="1243" y="227" on="0"/>
        <pt x="1252" y="211" on="0"/>
        <pt x="1260" y="197" on="0"/>
        <pt x="1262" y="193" on="1"/>
        <pt x="1179" y="122" on="0"/>
        <pt x="1050" y="31" on="0"/>
        <pt x="946" y="-21" on="0"/>
        <pt x="862" y="-41" on="0"/>
        <pt x="825" y="-41" on="1"/>
        <pt x="793" y="-41" on="0"/>
        <pt x="714" y="-10" on="0"/>
        <pt x="640" y="59" on="0"/>
        <pt x="584" y="170" on="0"/>
        <pt x="576" y="249" on="1"/>
        <pt x="547" y="201" on="0"/>
        <pt x="468" y="98" on="0"/>
        <pt x="381" y="14" on="0"/>
        <pt x="292" y="-41" on="0"/>
        <pt x="252" y="-41" on="1"/>
        <pt x="218" y="-41" on="0"/>
        <pt x="143" y="-3" on="0"/>
        <pt x="80" y="80" on="0"/>
        <pt x="38" y="211" on="0"/>
        <pt x="38" y="305" on="1"/>
        <pt x="38" y="384" on="0"/>
        <pt x="75" y="535" on="0"/>
        <pt x="147" y="673" on="0"/>
        <pt x="255" y="794" on="0"/>
        <pt x="327" y="842" on="1"/>
        <pt x="354" y="860" on="0"/>
        <pt x="418" y="894" on="0"/>
        <pt x="486" y="920" on="0"/>
        <pt x="557" y="936" on="0"/>
        <pt x="592" y="936" on="1"/>
        <pt x="634" y="936" on="0"/>
        <pt x="706" y="900" on="0"/>
        <pt x="736" y="880" on="1"/>
        <pt x="780" y="912" on="0"/>
        <pt x="837" y="936" on="1"/>
      </contour>
    </TTGlyph>
    <TTGlyph name="aeacute" xMin="38" yMin="-41" xMax="1285" yMax="1462">
      <component glyphName="ae" x="0" y="0" flags="0x0"/>
      <component glyphName="acutecomb" x="1103" y="0" flags="0x0"/>
    </TTGlyph>
    <TTGlyph name="agrave" xMin="48" yMin="-41" xMax="927" yMax="1462">
      <component glyphName="a" x="0" y="0" flags="0x0"/>
      <component glyphName="gravecomb" x="836" y="0" flags="0x0"/>
    </TTGlyph>
    <TTGlyph name="agrave.SngStory" xMin="48" yMin="-41" xMax="927" yMax="1462">
      <component glyphName="a.SngStory" x="0" y="0" flags="0x0"/>
      <component glyphName="gravecomb" x="836" y="0" flags="0x0"/>
    </TTGlyph>
    <TTGlyph name="amacron" xMin="48" yMin="-41" xMax="941" yMax="1293">
      <component glyphName="a" x="0" y="0" flags="0x0"/>
      <component glyphName="uni0304" x="926" y="0" flags="0x0"/>
    </TTGlyph>
    <TTGlyph name="amacron.SngStory" xMin="48" yMin="-41" xMax="941" yMax="1293">
      <component glyphName="a.SngStory" x="0" y="0" flags="0x0"/>
      <component glyphName="uni0304" x="926" y="0" flags="0x0"/>
    </TTGlyph>
    <TTGlyph name="ampersand" xMin="55" yMin="-31" xMax="1306" yMax="1450">
      <contour>
        <pt x="536" y="1130" on="1"/>
        <pt x="528" y="1074" on="0"/>
        <pt x="540" y="954" on="0"/>
        <pt x="557" y="890" on="1"/>
        <pt x="617" y="926" on="0"/>
        <pt x="700" y="997" on="0"/>
        <pt x="753" y="1066" on="0"/>
        <pt x="780" y="1132" on="0"/>
        <pt x="785" y="1164" on="1"/>
        <pt x="792" y="1200" on="0"/>
        <pt x="787" y="1263" on="0"/>
        <pt x="762" y="1310" on="0"/>
        <pt x="718" y="1336" on="0"/>
        <pt x="686" y="1336" on="1"/>
        <pt x="653" y="1336" on="0"/>
        <pt x="602" y="1301" on="0"/>
        <pt x="565" y="1244" on="0"/>
        <pt x="541" y="1169" on="0"/>
      </contour>
      <contour>
        <pt x="466" y="94" on="1"/>
        <pt x="537" y="94" on="0"/>
        <pt x="663" y="138" on="0"/>
        <pt x="717" y="176" on="1"/>
        <pt x="679" y="226" on="0"/>
        <pt x="601" y="343" on="0"/>
        <pt x="527" y="473" on="0"/>
        <pt x="462" y="611" on="0"/>
        <pt x="437" y="682" on="1"/>
        <pt x="345" y="604" on="0"/>
        <pt x="258" y="461" on="0"/>
        <pt x="247" y="381" on="1"/>
        <pt x="238" y="311" on="0"/>
        <pt x="269" y="204" on="0"/>
        <pt x="332" y="131" on="0"/>
        <pt x="419" y="94" on="0"/>
      </contour>
      <contour>
        <pt x="1306" y="748" on="1"/>
        <pt x="1280" y="717" on="0"/>
        <pt x="1223" y="664" on="0"/>
        <pt x="1199" y="647" on="1"/>
        <pt x="1167" y="664" on="0"/>
        <pt x="1084" y="688" on="0"/>
        <pt x="1052" y="690" on="1"/>
        <pt x="1066" y="657" on="0"/>
        <pt x="1069" y="585" on="0"/>
        <pt x="1062" y="527" on="1"/>
        <pt x="1052" y="459" on="0"/>
        <pt x="978" y="309" on="0"/>
        <pt x="920" y="237" on="1"/>
        <pt x="962" y="186" on="0"/>
        <pt x="1001" y="147" on="1"/>
        <pt x="1067" y="77" on="0"/>
        <pt x="1172" y="103" on="1"/>
        <pt x="1175" y="50" on="1"/>
        <pt x="1133" y="31" on="0"/>
        <pt x="1055" y="1" on="0"/>
        <pt x="992" y="-20" on="0"/>
        <pt x="946" y="-31" on="0"/>
        <pt x="936" y="-31" on="1"/>
        <pt x="916" y="-31" on="0"/>
        <pt x="832" y="39" on="0"/>
        <pt x="778" y="101" on="1"/>
        <pt x="699" y="41" on="0"/>
        <pt x="514" y="-31" on="0"/>
        <pt x="413" y="-31" on="1"/>
        <pt x="325" y="-31" on="0"/>
        <pt x="185" y="21" on="0"/>
        <pt x="93" y="121" on="0"/>
        <pt x="55" y="266" on="0"/>
        <pt x="68" y="360" on="1"/>
        <pt x="82" y="471" on="0"/>
        <pt x="255" y="690" on="0"/>
        <pt x="403" y="794" on="1"/>
        <pt x="386" y="866" on="0"/>
        <pt x="373" y="1007" on="0"/>
        <pt x="382" y="1073" on="1"/>
        <pt x="393" y="1154" on="0"/>
        <pt x="462" y="1292" on="0"/>
        <pt x="563" y="1393" on="0"/>
        <pt x="687" y="1450" on="0"/>
        <pt x="752" y="1450" on="1"/>
        <pt x="813" y="1450" on="0"/>
        <pt x="895" y="1408" on="0"/>
        <pt x="941" y="1338" on="0"/>
        <pt x="955" y="1246" on="0"/>
        <pt x="948" y="1197" on="1"/>
        <pt x="940" y="1146" on="0"/>
        <pt x="887" y="1046" on="0"/>
        <pt x="806" y="952" on="0"/>
        <pt x="702" y="866" on="0"/>
        <pt x="644" y="829" on="1"/>
        <pt x="588" y="793" on="1"/>
        <pt x="635" y="666" on="0"/>
        <pt x="779" y="420" on="0"/>
        <pt x="856" y="317" on="1"/>
        <pt x="914" y="403" on="0"/>
        <pt x="928" y="486" on="1"/>
        <pt x="935" y="532" on="0"/>
        <pt x="920" y="610" on="0"/>
        <pt x="887" y="667" on="0"/>
        <pt x="839" y="698" on="0"/>
        <pt x="812" y="698" on="1"/>
        <pt x="793" y="728" on="1"/>
        <pt x="799" y="734" on="0"/>
        <pt x="818" y="752" on="0"/>
        <pt x="840" y="769" on="0"/>
        <pt x="863" y="783" on="0"/>
        <pt x="873" y="787" on="1"/>
        <pt x="1287" y="787" on="1"/>
      </contour>
    </TTGlyph>
    <TTGlyph name="approxequal" xMin="51" yMin="303" xMax="824" yMax="826">
      <contour>
        <pt x="785" y="470" on="1"/>
        <pt x="728" y="390" on="0"/>
        <pt x="603" y="306" on="0"/>
        <pt x="540" y="306" on="1"/>
        <pt x="503" y="306" on="0"/>
        <pt x="431" y="336" on="0"/>
        <pt x="361" y="373" on="0"/>
        <pt x="290" y="403" on="0"/>
        <pt x="254" y="403" on="1"/>
        <pt x="213" y="403" on="0"/>
        <pt x="140" y="350" on="0"/>
        <pt x="94" y="303" on="1"/>
        <pt x="51" y="365" on="1"/>
        <pt x="107" y="446" on="0"/>
        <pt x="230" y="530" on="0"/>
        <pt x="292" y="530" on="1"/>
        <pt x="332" y="530" on="0"/>
        <pt x="411" y="500" on="0"/>
        <pt x="483" y="463" on="0"/>
        <pt x="549" y="433" on="0"/>
        <pt x="577" y="433" on="1"/>
        <pt x="597" y="433" on="0"/>
        <pt x="641" y="450" on="0"/>
        <pt x="683" y="478" on="0"/>
        <pt x="722" y="515" on="0"/>
        <pt x="738" y="535" on="1"/>
      </contour>
      <contour>
        <pt x="824" y="761" on="1"/>
        <pt x="767" y="681" on="0"/>
        <pt x="642" y="597" on="0"/>
        <pt x="579" y="597" on="1"/>
        <pt x="542" y="597" on="0"/>
        <pt x="471" y="627" on="0"/>
        <pt x="400" y="663" on="0"/>
        <pt x="330" y="693" on="0"/>
        <pt x="294" y="693" on="1"/>
        <pt x="252" y="693" on="0"/>
        <pt x="179" y="642" on="0"/>
        <pt x="133" y="594" on="1"/>
        <pt x="89" y="655" on="1"/>
        <pt x="146" y="736" on="0"/>
        <pt x="269" y="821" on="0"/>
        <pt x="332" y="821" on="1"/>
        <pt x="372" y="821" on="0"/>
        <pt x="449" y="791" on="0"/>
        <pt x="521" y="755" on="0"/>
        <pt x="587" y="725" on="0"/>
        <pt x="615" y="725" on="1"/>
        <pt x="636" y="725" on="0"/>
        <pt x="679" y="741" on="0"/>
        <pt x="722" y="769" on="0"/>
        <pt x="761" y="806" on="0"/>
        <pt x="777" y="826" on="1"/>
      </contour>
    </TTGlyph>
    <TTGlyph name="aring" xMin="48" yMin="-41" xMax="927" yMax="1424">
      <component glyphName="a" x="0" y="0" flags="0x0"/>
      <component glyphName="uni030A" x="915" y="0" flags="0x0"/>
    </TTGlyph>
    <TTGlyph name="aring.SngStory" xMin="48" yMin="-41" xMax="927" yMax="1424">
      <component glyphName="a.SngStory" x="0" y="0" flags="0x0"/>
      <component glyphName="uni030A" x="915" y="0" flags="0x0"/>
    </TTGlyph>
    <TTGlyph name="aringacute" xMin="48" yMin="-41" xMax="971" yMax="1897">
      <component glyphName="a" x="0" y="0" flags="0x0"/>
      <component glyphName="uni030A" x="915" y="0" flags="0x0"/>
      <component glyphName="acutecomb" x="969" y="435" flags="0x0"/>
    </TTGlyph>
    <TTGlyph name="aringacute.SngStory" xMin="48" yMin="-41" xMax="971" yMax="1897">
      <component glyphName="a.SngStory" x="0" y="0" flags="0x0"/>
      <component glyphName="uni030A" x="915" y="0" flags="0x0"/>
      <component glyphName="acutecomb" x="969" y="435" flags="0x0"/>
    </TTGlyph>
    <TTGlyph name="asciicircum" xMin="94" yMin="565" xMax="854" yMax="1550">
      <contour>
        <pt x="854" y="635" on="1"/>
        <pt x="826" y="612" on="0"/>
        <pt x="777" y="581" on="0"/>
        <pt x="743" y="565" on="1"/>
        <pt x="713" y="592" on="1"/>
        <pt x="553" y="1315" on="1"/>
        <pt x="223" y="635" on="1"/>
        <pt x="212" y="625" on="0"/>
        <pt x="182" y="604" on="0"/>
        <pt x="151" y="585" on="0"/>
        <pt x="123" y="570" on="0"/>
        <pt x="113" y="565" on="1"/>
        <pt x="94" y="592" on="1"/>
        <pt x="516" y="1462" on="1"/>
        <pt x="529" y="1474" on="0"/>
        <pt x="565" y="1499" on="0"/>
        <pt x="603" y="1523" on="0"/>
        <pt x="639" y="1543" on="0"/>
        <pt x="653" y="1550" on="1"/>
      </contour>
    </TTGlyph>
    <TTGlyph name="asciitilde" xMin="85" yMin="475" xMax="959" yMax="799">
      <contour>
        <pt x="959" y="774" on="1"/>
        <pt x="933" y="725" on="0"/>
        <pt x="859" y="620" on="0"/>
        <pt x="773" y="533" on="0"/>
        <pt x="682" y="477" on="0"/>
        <pt x="638" y="477" on="1"/>
        <pt x="598" y="477" on="0"/>
        <pt x="517" y="527" on="0"/>
        <pt x="436" y="587" on="0"/>
        <pt x="354" y="637" on="0"/>
        <pt x="314" y="637" on="1"/>
        <pt x="268" y="637" on="0"/>
        <pt x="180" y="559" on="0"/>
        <pt x="130" y="475" on="1"/>
        <pt x="85" y="502" on="1"/>
        <pt x="111" y="551" on="0"/>
        <pt x="185" y="656" on="0"/>
        <pt x="271" y="743" on="0"/>
        <pt x="362" y="799" on="0"/>
        <pt x="406" y="799" on="1"/>
        <pt x="449" y="799" on="0"/>
        <pt x="532" y="749" on="0"/>
        <pt x="613" y="689" on="0"/>
        <pt x="690" y="639" on="0"/>
        <pt x="728" y="639" on="1"/>
        <pt x="773" y="639" on="0"/>
        <pt x="863" y="717" on="0"/>
        <pt x="914" y="799" on="1"/>
      </contour>
    </TTGlyph>
    <TTGlyph name="asterisk" xMin="-6" yMin="709" xMax="769" yMax="1561">
      <contour>
        <pt x="425" y="1199" on="1"/>
        <pt x="681" y="1391" on="1"/>
        <pt x="690" y="1384" on="0"/>
        <pt x="715" y="1364" on="0"/>
        <pt x="741" y="1341" on="0"/>
        <pt x="764" y="1319" on="0"/>
        <pt x="769" y="1311" on="1"/>
        <pt x="762" y="1265" on="1"/>
        <pt x="451" y="1135" on="1"/>
        <pt x="704" y="1017" on="1"/>
        <pt x="702" y="1005" on="0"/>
        <pt x="694" y="969" on="0"/>
        <pt x="685" y="930" on="0"/>
        <pt x="675" y="895" on="0"/>
        <pt x="671" y="884" on="1"/>
        <pt x="629" y="862" on="1"/>
        <pt x="409" y="1070" on="1"/>
        <pt x="405" y="761" on="1"/>
        <pt x="394" y="755" on="0"/>
        <pt x="361" y="738" on="0"/>
        <pt x="326" y="723" on="0"/>
        <pt x="293" y="711" on="0"/>
        <pt x="283" y="709" on="1"/>
        <pt x="251" y="732" on="1"/>
        <pt x="339" y="1069" on="1"/>
        <pt x="83" y="877" on="1"/>
        <pt x="74" y="884" on="0"/>
        <pt x="48" y="905" on="0"/>
        <pt x="22" y="927" on="0"/>
        <pt x="0" y="949" on="0"/>
        <pt x="-6" y="957" on="1"/>
        <pt x="4" y="1004" on="1"/>
        <pt x="313" y="1133" on="1"/>
        <pt x="59" y="1251" on="1"/>
        <pt x="62" y="1263" on="0"/>
        <pt x="70" y="1300" on="0"/>
        <pt x="79" y="1338" on="0"/>
        <pt x="88" y="1373" on="0"/>
        <pt x="93" y="1383" on="1"/>
        <pt x="135" y="1405" on="1"/>
        <pt x="354" y="1198" on="1"/>
        <pt x="359" y="1508" on="1"/>
        <pt x="369" y="1514" on="0"/>
        <pt x="402" y="1530" on="0"/>
        <pt x="437" y="1545" on="0"/>
        <pt x="470" y="1558" on="0"/>
        <pt x="481" y="1561" on="1"/>
        <pt x="515" y="1535" on="1"/>
      </contour>
    </TTGlyph>
    <TTGlyph name="at" xMin="50" yMin="-375" xMax="1559" yMax="1333">
      <contour>
        <pt x="1541" y="549" on="1"/>
        <pt x="1529" y="462" on="0"/>
        <pt x="1468" y="308" on="0"/>
        <pt x="1384" y="177" on="0"/>
        <pt x="1283" y="72" on="0"/>
        <pt x="1180" y="-2" on="0"/>
        <pt x="1083" y="-41" on="0"/>
        <pt x="1043" y="-41" on="1"/>
        <pt x="1026" y="-41" on="0"/>
        <pt x="989" y="-18" on="0"/>
        <pt x="956" y="44" on="0"/>
        <pt x="933" y="154" on="0"/>
        <pt x="931" y="241" on="1"/>
        <pt x="906" y="196" on="0"/>
        <pt x="840" y="97" on="0"/>
        <pt x="765" y="13" on="0"/>
        <pt x="686" y="-41" on="0"/>
        <pt x="647" y="-41" on="1"/>
        <pt x="613" y="-41" on="0"/>
        <pt x="537" y="-3" on="0"/>
        <pt x="472" y="80" on="0"/>
        <pt x="429" y="211" on="0"/>
        <pt x="429" y="305" on="1"/>
        <pt x="429" y="384" on="0"/>
        <pt x="462" y="535" on="0"/>
        <pt x="530" y="673" on="0"/>
        <pt x="633" y="794" on="0"/>
        <pt x="704" y="842" on="1"/>
        <pt x="731" y="860" on="0"/>
        <pt x="798" y="894" on="0"/>
        <pt x="869" y="920" on="0"/>
        <pt x="940" y="936" on="0"/>
        <pt x="972" y="936" on="1"/>
        <pt x="1012" y="936" on="0"/>
        <pt x="1084" y="899" on="0"/>
        <pt x="1115" y="879" on="1"/>
        <pt x="1141" y="895" on="0"/>
        <pt x="1169" y="909" on="1"/>
        <pt x="1223" y="936" on="1"/>
        <pt x="1247" y="891" on="1"/>
        <pt x="1230" y="877" on="0"/>
        <pt x="1207" y="855" on="0"/>
        <pt x="1191" y="826" on="0"/>
        <pt x="1178" y="784" on="0"/>
        <pt x="1171" y="750" on="1"/>
        <pt x="1156" y="678" on="0"/>
        <pt x="1131" y="532" on="0"/>
        <pt x="1113" y="406" on="0"/>
        <pt x="1103" y="309" on="0"/>
        <pt x="1103" y="287" on="1"/>
        <pt x="1103" y="236" on="0"/>
        <pt x="1113" y="171" on="0"/>
        <pt x="1129" y="132" on="0"/>
        <pt x="1151" y="117" on="0"/>
        <pt x="1163" y="117" on="1"/>
        <pt x="1188" y="117" on="0"/>
        <pt x="1257" y="176" on="0"/>
        <pt x="1324" y="281" on="0"/>
        <pt x="1379" y="425" on="0"/>
        <pt x="1392" y="510" on="1"/>
        <pt x="1417" y="679" on="0"/>
        <pt x="1359" y="938" on="0"/>
        <pt x="1224" y="1114" on="0"/>
        <pt x="1030" y="1204" on="0"/>
        <pt x="919" y="1204" on="1"/>
        <pt x="830" y="1204" on="0"/>
        <pt x="669" y="1150" on="0"/>
        <pt x="530" y="1055" on="0"/>
        <pt x="414" y="923" on="0"/>
        <pt x="326" y="768" on="0"/>
        <pt x="267" y="594" on="0"/>
        <pt x="254" y="504" on="1"/>
        <pt x="229" y="322" on="0"/>
        <pt x="301" y="43" on="0"/>
        <pt x="461" y="-146" on="0"/>
        <pt x="689" y="-244" on="0"/>
        <pt x="820" y="-244" on="1"/>
        <pt x="897" y="-244" on="0"/>
        <pt x="1048" y="-206" on="0"/>
        <pt x="1181" y="-151" on="0"/>
        <pt x="1287" y="-88" on="0"/>
        <pt x="1319" y="-62" on="1"/>
        <pt x="1340" y="-130" on="1"/>
        <pt x="1302" y="-168" on="0"/>
        <pt x="1184" y="-254" on="0"/>
        <pt x="1033" y="-327" on="0"/>
        <pt x="852" y="-375" on="0"/>
        <pt x="751" y="-375" on="1"/>
        <pt x="583" y="-375" on="0"/>
        <pt x="311" y="-257" on="0"/>
        <pt x="128" y="-38" on="0"/>
        <pt x="50" y="273" on="0"/>
        <pt x="77" y="465" on="1"/>
        <pt x="93" y="577" on="0"/>
        <pt x="175" y="794" on="0"/>
        <pt x="300" y="986" on="0"/>
        <pt x="462" y="1149" on="0"/>
        <pt x="653" y="1267" on="0"/>
        <pt x="867" y="1333" on="0"/>
        <pt x="981" y="1333" on="1"/>
        <pt x="1071" y="1333" on="0"/>
        <pt x="1234" y="1286" on="0"/>
        <pt x="1371" y="1195" on="0"/>
        <pt x="1476" y="1062" on="0"/>
        <pt x="1540" y="887" on="0"/>
        <pt x="1559" y="674" on="0"/>
      </contour>
      <contour>
        <pt x="944" y="403" on="1"/>
        <pt x="950" y="448" on="0"/>
        <pt x="967" y="550" on="0"/>
        <pt x="984" y="647" on="0"/>
        <pt x="998" y="730" on="0"/>
        <pt x="1003" y="755" on="1"/>
        <pt x="974" y="779" on="0"/>
        <pt x="906" y="819" on="0"/>
        <pt x="867" y="819" on="1"/>
        <pt x="823" y="819" on="0"/>
        <pt x="750" y="776" on="0"/>
        <pt x="689" y="704" on="0"/>
        <pt x="643" y="612" on="0"/>
        <pt x="612" y="514" on="0"/>
        <pt x="596" y="418" on="0"/>
        <pt x="596" y="379" on="1"/>
        <pt x="596" y="317" on="0"/>
        <pt x="616" y="220" on="0"/>
        <pt x="649" y="152" on="0"/>
        <pt x="693" y="116" on="0"/>
        <pt x="717" y="116" on="1"/>
        <pt x="739" y="116" on="0"/>
        <pt x="793" y="164" on="0"/>
        <pt x="853" y="244" on="0"/>
        <pt x="915" y="347" on="0"/>
      </contour>
    </TTGlyph>
    <TTGlyph name="atilde" xMin="48" yMin="-41" xMax="930" yMax="1355">
      <component glyphName="a" x="0" y="0" flags="0x0"/>
      <component glyphName="tildecomb" x="916" y="0" flags="0x0"/>
    </TTGlyph>
    <TTGlyph name="atilde.SngStory" xMin="48" yMin="-41" xMax="930" yMax="1355">
      <component glyphName="a.SngStory" x="0" y="0" flags="0x0"/>
      <component glyphName="tildecomb" x="916" y="0" flags="0x0"/>
    </TTGlyph>
    <TTGlyph name="b" xMin="101" yMin="-41" xMax="912" yMax="1520">
      <contour>
        <pt x="610" y="788" on="1"/>
        <pt x="593" y="788" on="0"/>
        <pt x="529" y="746" on="0"/>
        <pt x="450" y="667" on="0"/>
        <pt x="365" y="555" on="0"/>
        <pt x="326" y="485" on="1"/>
        <pt x="316" y="413" on="0"/>
        <pt x="304" y="302" on="0"/>
        <pt x="304" y="271" on="1"/>
        <pt x="304" y="245" on="0"/>
        <pt x="335" y="187" on="0"/>
        <pt x="384" y="138" on="0"/>
        <pt x="445" y="106" on="0"/>
        <pt x="475" y="106" on="1"/>
        <pt x="507" y="106" on="0"/>
        <pt x="563" y="127" on="0"/>
        <pt x="610" y="163" on="0"/>
        <pt x="649" y="208" on="0"/>
        <pt x="664" y="232" on="1"/>
        <pt x="686" y="266" on="0"/>
        <pt x="714" y="342" on="0"/>
        <pt x="731" y="420" on="0"/>
        <pt x="737" y="496" on="0"/>
        <pt x="737" y="530" on="1"/>
        <pt x="737" y="593" on="0"/>
        <pt x="715" y="690" on="0"/>
        <pt x="680" y="755" on="0"/>
        <pt x="634" y="788" on="0"/>
      </contour>
      <contour>
        <pt x="911" y="610" on="1"/>
        <pt x="909" y="504" on="0"/>
        <pt x="842" y="288" on="0"/>
        <pt x="768" y="188" on="1"/>
        <pt x="734" y="143" on="0"/>
        <pt x="650" y="60" on="0"/>
        <pt x="550" y="-3" on="0"/>
        <pt x="436" y="-41" on="0"/>
        <pt x="373" y="-41" on="1"/>
        <pt x="352" y="-41" on="0"/>
        <pt x="298" y="-20" on="0"/>
        <pt x="242" y="18" on="0"/>
        <pt x="188" y="69" on="0"/>
        <pt x="146" y="128" on="0"/>
        <pt x="120" y="193" on="0"/>
        <pt x="120" y="225" on="1"/>
        <pt x="120" y="251" on="0"/>
        <pt x="133" y="361" on="0"/>
        <pt x="153" y="506" on="0"/>
        <pt x="179" y="678" on="0"/>
        <pt x="207" y="856" on="0"/>
        <pt x="233" y="1030" on="0"/>
        <pt x="253" y="1180" on="0"/>
        <pt x="266" y="1295" on="0"/>
        <pt x="266" y="1326" on="1"/>
        <pt x="266" y="1349" on="0"/>
        <pt x="256" y="1376" on="0"/>
        <pt x="240" y="1389" on="0"/>
        <pt x="222" y="1393" on="0"/>
        <pt x="213" y="1393" on="1"/>
        <pt x="204" y="1393" on="0"/>
        <pt x="171" y="1384" on="0"/>
        <pt x="155" y="1379" on="1"/>
        <pt x="136" y="1373" on="0"/>
        <pt x="115" y="1366" on="1"/>
        <pt x="101" y="1415" on="1"/>
        <pt x="144" y="1435" on="0"/>
        <pt x="240" y="1473" on="0"/>
        <pt x="326" y="1502" on="0"/>
        <pt x="393" y="1520" on="0"/>
        <pt x="407" y="1520" on="1"/>
        <pt x="436" y="1520" on="0"/>
        <pt x="458" y="1484" on="0"/>
        <pt x="458" y="1438" on="1"/>
        <pt x="458" y="1408" on="0"/>
        <pt x="448" y="1311" on="0"/>
        <pt x="432" y="1187" on="0"/>
        <pt x="411" y="1043" on="0"/>
        <pt x="387" y="890" on="0"/>
        <pt x="362" y="734" on="0"/>
        <pt x="351" y="660" on="1"/>
        <pt x="402" y="739" on="0"/>
        <pt x="506" y="845" on="0"/>
        <pt x="601" y="909" on="0"/>
        <pt x="683" y="936" on="0"/>
        <pt x="713" y="936" on="1"/>
        <pt x="755" y="936" on="0"/>
        <pt x="828" y="894" on="0"/>
        <pt x="882" y="811" on="0"/>
        <pt x="912" y="689" on="0"/>
      </contour>
    </TTGlyph>
    <TTGlyph name="backslash" xMin="143" yMin="-336" xMax="697" yMax="1599">
      <contour>
        <pt x="660" y="-336" on="1"/>
        <pt x="649" y="-332" on="0"/>
        <pt x="612" y="-319" on="0"/>
        <pt x="573" y="-303" on="0"/>
        <pt x="539" y="-287" on="0"/>
        <pt x="532" y="-280" on="1"/>
        <pt x="143" y="1575" on="1"/>
        <pt x="182" y="1599" on="1"/>
        <pt x="196" y="1595" on="0"/>
        <pt x="230" y="1584" on="0"/>
        <pt x="266" y="1570" on="0"/>
        <pt x="299" y="1554" on="0"/>
        <pt x="311" y="1545" on="1"/>
        <pt x="697" y="-309" on="1"/>
      </contour>
    </TTGlyph>
    <TTGlyph name="bar" xMin="38" yMin="-336" xMax="443" yMax="1599">
      <contour>
        <pt x="182" y="-281" on="1"/>
        <pt x="172" y="-288" on="0"/>
        <pt x="144" y="-304" on="0"/>
        <pt x="113" y="-319" on="0"/>
        <pt x="82" y="-332" on="0"/>
        <pt x="70" y="-336" on="1"/>
        <pt x="38" y="-309" on="1"/>
        <pt x="300" y="1546" on="1"/>
        <pt x="328" y="1563" on="0"/>
        <pt x="382" y="1591" on="0"/>
        <pt x="411" y="1599" on="1"/>
        <pt x="443" y="1575" on="1"/>
      </contour>
    </TTGlyph>
    <TTGlyph name="braceleft" xMin="102" yMin="-315" xMax="757" yMax="1599">
      <contour>
        <pt x="757" y="1542" on="1"/>
        <pt x="717" y="1518" on="0"/>
        <pt x="647" y="1458" on="0"/>
        <pt x="592" y="1386" on="0"/>
        <pt x="554" y="1303" on="0"/>
        <pt x="547" y="1256" on="1"/>
        <pt x="542" y="1218" on="0"/>
        <pt x="540" y="1161" on="0"/>
        <pt x="541" y="1111" on="0"/>
        <pt x="545" y="1067" on="0"/>
        <pt x="546" y="1017" on="0"/>
        <pt x="543" y="959" on="0"/>
        <pt x="538" y="922" on="1"/>
        <pt x="532" y="880" on="0"/>
        <pt x="497" y="800" on="0"/>
        <pt x="443" y="729" on="0"/>
        <pt x="371" y="671" on="0"/>
        <pt x="329" y="653" on="1"/>
        <pt x="420" y="635" on="0"/>
        <pt x="479" y="495" on="0"/>
        <pt x="463" y="385" on="1"/>
        <pt x="455" y="327" on="0"/>
        <pt x="431" y="240" on="0"/>
        <pt x="406" y="163" on="0"/>
        <pt x="384" y="86" on="0"/>
        <pt x="377" y="38" on="1"/>
        <pt x="370" y="-13" on="0"/>
        <pt x="372" y="-91" on="0"/>
        <pt x="398" y="-157" on="0"/>
        <pt x="452" y="-215" on="0"/>
        <pt x="497" y="-244" on="1"/>
        <pt x="463" y="-315" on="1"/>
        <pt x="387" y="-281" on="0"/>
        <pt x="278" y="-208" on="0"/>
        <pt x="212" y="-118" on="0"/>
        <pt x="189" y="-5" on="0"/>
        <pt x="199" y="67" on="1"/>
        <pt x="207" y="124" on="0"/>
        <pt x="230" y="204" on="0"/>
        <pt x="255" y="278" on="0"/>
        <pt x="278" y="362" on="0"/>
        <pt x="287" y="422" on="1"/>
        <pt x="298" y="503" on="0"/>
        <pt x="237" y="581" on="0"/>
        <pt x="171" y="581" on="1"/>
        <pt x="152" y="581" on="1"/>
        <pt x="146" y="581" on="0"/>
        <pt x="136" y="580" on="0"/>
        <pt x="123" y="577" on="0"/>
        <pt x="110" y="575" on="1"/>
        <pt x="102" y="638" on="1"/>
        <pt x="215" y="669" on="0"/>
        <pt x="337" y="787" on="0"/>
        <pt x="348" y="862" on="1"/>
        <pt x="353" y="901" on="0"/>
        <pt x="356" y="960" on="0"/>
        <pt x="354" y="1008" on="0"/>
        <pt x="351" y="1051" on="0"/>
        <pt x="349" y="1100" on="0"/>
        <pt x="352" y="1159" on="0"/>
        <pt x="358" y="1199" on="1"/>
        <pt x="367" y="1266" on="0"/>
        <pt x="430" y="1383" on="0"/>
        <pt x="528" y="1482" on="0"/>
        <pt x="659" y="1565" on="0"/>
        <pt x="736" y="1599" on="1"/>
      </contour>
    </TTGlyph>
    <TTGlyph name="braceright" xMin="-82" yMin="-315" xMax="572" yMax="1599">
      <contour>
        <pt x="572" y="646" on="1"/>
        <pt x="460" y="615" on="0"/>
        <pt x="337" y="498" on="0"/>
        <pt x="326" y="422" on="1"/>
        <pt x="321" y="383" on="0"/>
        <pt x="318" y="325" on="0"/>
        <pt x="320" y="276" on="0"/>
        <pt x="324" y="233" on="0"/>
        <pt x="326" y="185" on="0"/>
        <pt x="323" y="126" on="0"/>
        <pt x="318" y="86" on="1"/>
        <pt x="308" y="18" on="0"/>
        <pt x="244" y="-98" on="0"/>
        <pt x="145" y="-198" on="0"/>
        <pt x="15" y="-281" on="0"/>
        <pt x="-61" y="-315" on="1"/>
        <pt x="-82" y="-257" on="1"/>
        <pt x="-42" y="-233" on="0"/>
        <pt x="28" y="-173" on="0"/>
        <pt x="83" y="-101" on="0"/>
        <pt x="120" y="-18" on="0"/>
        <pt x="126" y="29" on="1"/>
        <pt x="134" y="85" on="0"/>
        <pt x="134" y="161" on="0"/>
        <pt x="130" y="230" on="0"/>
        <pt x="128" y="307" on="0"/>
        <pt x="136" y="364" on="1"/>
        <pt x="142" y="405" on="0"/>
        <pt x="178" y="485" on="0"/>
        <pt x="232" y="556" on="0"/>
        <pt x="304" y="613" on="0"/>
        <pt x="346" y="631" on="1"/>
        <pt x="255" y="651" on="0"/>
        <pt x="197" y="789" on="0"/>
        <pt x="212" y="901" on="1"/>
        <pt x="220" y="958" on="0"/>
        <pt x="244" y="1045" on="0"/>
        <pt x="268" y="1122" on="0"/>
        <pt x="290" y="1199" on="0"/>
        <pt x="296" y="1246" on="1"/>
        <pt x="304" y="1297" on="0"/>
        <pt x="302" y="1377" on="0"/>
        <pt x="276" y="1443" on="0"/>
        <pt x="221" y="1499" on="0"/>
        <pt x="176" y="1528" on="1"/>
        <pt x="213" y="1599" on="1"/>
        <pt x="289" y="1566" on="0"/>
        <pt x="398" y="1493" on="0"/>
        <pt x="463" y="1403" on="0"/>
        <pt x="486" y="1291" on="0"/>
        <pt x="476" y="1219" on="1"/>
        <pt x="468" y="1162" on="0"/>
        <pt x="445" y="1082" on="0"/>
        <pt x="420" y="1007" on="0"/>
        <pt x="397" y="924" on="0"/>
        <pt x="389" y="864" on="1"/>
        <pt x="377" y="783" on="0"/>
        <pt x="438" y="705" on="0"/>
        <pt x="504" y="705" on="1"/>
        <pt x="533" y="705" on="1"/>
        <pt x="538" y="705" on="0"/>
        <pt x="551" y="708" on="0"/>
        <pt x="566" y="711" on="1"/>
      </contour>
    </TTGlyph>
    <TTGlyph name="bracketleft" xMin="18" yMin="-336" xMax="732" yMax="1599">
      <contour>
        <pt x="732" y="1571" on="1"/>
        <pt x="729" y="1559" on="0"/>
        <pt x="718" y="1531" on="0"/>
        <pt x="706" y="1505" on="0"/>
        <pt x="694" y="1483" on="0"/>
        <pt x="690" y="1477" on="1"/>
        <pt x="428" y="1477" on="1"/>
        <pt x="193" y="-211" on="1"/>
        <pt x="449" y="-211" on="1"/>
        <pt x="480" y="-243" on="1"/>
        <pt x="477" y="-253" on="0"/>
        <pt x="467" y="-278" on="0"/>
        <pt x="456" y="-303" on="0"/>
        <pt x="444" y="-327" on="0"/>
        <pt x="439" y="-336" on="1"/>
        <pt x="18" y="-336" on="1"/>
        <pt x="290" y="1599" on="1"/>
        <pt x="703" y="1599" on="1"/>
      </contour>
    </TTGlyph>
    <TTGlyph name="bracketright" xMin="-86" yMin="-336" xMax="628" yMax="1599">
      <contour>
        <pt x="358" y="-336" on="1"/>
        <pt x="-55" y="-336" on="1"/>
        <pt x="-86" y="-305" on="1"/>
        <pt x="-82" y="-293" on="0"/>
        <pt x="-71" y="-266" on="0"/>
        <pt x="-60" y="-240" on="0"/>
        <pt x="-49" y="-217" on="0"/>
        <pt x="-45" y="-211" on="1"/>
        <pt x="217" y="-211" on="1"/>
        <pt x="455" y="1477" on="1"/>
        <pt x="201" y="1477" on="1"/>
        <pt x="169" y="1506" on="1"/>
        <pt x="175" y="1528" on="0"/>
        <pt x="201" y="1582" on="0"/>
        <pt x="210" y="1599" on="1"/>
        <pt x="628" y="1599" on="1"/>
      </contour>
    </TTGlyph>
    <TTGlyph name="breve" xMin="118" yMin="1048" xMax="721" yMax="1388">
      <contour>
        <pt x="721" y="1335" on="1"/>
        <pt x="684" y="1254" on="0"/>
        <pt x="599" y="1145" on="0"/>
        <pt x="510" y="1077" on="0"/>
        <pt x="423" y="1048" on="0"/>
        <pt x="383" y="1048" on="1"/>
        <pt x="339" y="1048" on="0"/>
        <pt x="258" y="1078" on="0"/>
        <pt x="189" y="1145" on="0"/>
        <pt x="135" y="1255" on="0"/>
        <pt x="118" y="1335" on="1"/>
        <pt x="132" y="1352" on="0"/>
        <pt x="166" y="1380" on="0"/>
        <pt x="181" y="1388" on="1"/>
        <pt x="195" y="1335" on="0"/>
        <pt x="244" y="1262" on="0"/>
        <pt x="303" y="1217" on="0"/>
        <pt x="366" y="1197" on="0"/>
        <pt x="395" y="1197" on="1"/>
        <pt x="426" y="1197" on="0"/>
        <pt x="500" y="1217" on="0"/>
        <pt x="573" y="1262" on="0"/>
        <pt x="643" y="1335" on="0"/>
        <pt x="671" y="1388" on="1"/>
        <pt x="685" y="1380" on="0"/>
        <pt x="711" y="1354" on="0"/>
      </contour>
    </TTGlyph>
    <TTGlyph name="brokenbar" xMin="38" yMin="-336" xMax="451" yMax="1599">
      <contour>
        <pt x="189" y="-283" on="1"/>
        <pt x="180" y="-290" on="0"/>
        <pt x="149" y="-305" on="0"/>
        <pt x="114" y="-320" on="0"/>
        <pt x="80" y="-332" on="0"/>
        <pt x="69" y="-336" on="1"/>
        <pt x="38" y="-309" on="1"/>
        <pt x="150" y="487" on="1"/>
        <pt x="177" y="504" on="0"/>
        <pt x="239" y="531" on="0"/>
        <pt x="268" y="541" on="1"/>
        <pt x="304" y="514" on="1"/>
      </contour>
      <contour>
        <pt x="339" y="769" on="1"/>
        <pt x="329" y="761" on="0"/>
        <pt x="297" y="745" on="0"/>
        <pt x="262" y="731" on="0"/>
        <pt x="228" y="719" on="0"/>
        <pt x="216" y="715" on="1"/>
        <pt x="183" y="740" on="1"/>
        <pt x="297" y="1548" on="1"/>
        <pt x="357" y="1583" on="0"/>
        <pt x="418" y="1599" on="1"/>
        <pt x="451" y="1575" on="1"/>
      </contour>
    </TTGlyph>
    <TTGlyph name="bullet" xMin="66" yMin="389" xMax="479" yMax="885">
      <contour>
        <pt x="479" y="713" on="1"/>
        <pt x="479" y="657" on="0"/>
        <pt x="444" y="541" on="0"/>
        <pt x="377" y="448" on="0"/>
        <pt x="279" y="389" on="0"/>
        <pt x="215" y="389" on="1"/>
        <pt x="177" y="389" on="0"/>
        <pt x="121" y="415" on="0"/>
        <pt x="84" y="461" on="0"/>
        <pt x="66" y="523" on="0"/>
        <pt x="66" y="559" on="1"/>
        <pt x="66" y="615" on="0"/>
        <pt x="102" y="731" on="0"/>
        <pt x="171" y="825" on="0"/>
        <pt x="270" y="885" on="0"/>
        <pt x="332" y="885" on="1"/>
        <pt x="370" y="885" on="0"/>
        <pt x="426" y="858" on="0"/>
        <pt x="462" y="811" on="0"/>
        <pt x="479" y="748" on="0"/>
      </contour>
    </TTGlyph>
    <TTGlyph name="c" xMin="59" yMin="-41" xMax="844" yMax="936">
      <contour>
        <pt x="844" y="818" on="1"/>
        <pt x="823" y="801" on="0"/>
        <pt x="772" y="761" on="0"/>
        <pt x="723" y="727" on="0"/>
        <pt x="679" y="704" on="0"/>
        <pt x="665" y="704" on="1"/>
        <pt x="653" y="704" on="0"/>
        <pt x="620" y="740" on="0"/>
        <pt x="578" y="783" on="0"/>
        <pt x="527" y="819" on="0"/>
        <pt x="496" y="819" on="1"/>
        <pt x="453" y="819" on="0"/>
        <pt x="382" y="778" on="0"/>
        <pt x="324" y="709" on="0"/>
        <pt x="280" y="618" on="0"/>
        <pt x="250" y="518" on="0"/>
        <pt x="235" y="415" on="0"/>
        <pt x="235" y="368" on="1"/>
        <pt x="235" y="303" on="0"/>
        <pt x="262" y="200" on="0"/>
        <pt x="309" y="128" on="0"/>
        <pt x="375" y="89" on="0"/>
        <pt x="414" y="89" on="1"/>
        <pt x="435" y="89" on="0"/>
        <pt x="493" y="104" on="0"/>
        <pt x="568" y="139" on="0"/>
        <pt x="658" y="197" on="0"/>
        <pt x="712" y="241" on="1"/>
        <pt x="720" y="230" on="0"/>
        <pt x="744" y="198" on="0"/>
        <pt x="749" y="190" on="1"/>
        <pt x="671" y="119" on="0"/>
        <pt x="545" y="29" on="0"/>
        <pt x="441" y="-22" on="0"/>
        <pt x="355" y="-41" on="0"/>
        <pt x="316" y="-41" on="1"/>
        <pt x="279" y="-41" on="0"/>
        <pt x="190" y="-7" on="0"/>
        <pt x="112" y="77" on="0"/>
        <pt x="59" y="217" on="0"/>
        <pt x="59" y="322" on="1"/>
        <pt x="59" y="389" on="0"/>
        <pt x="87" y="530" on="0"/>
        <pt x="150" y="665" on="0"/>
        <pt x="251" y="788" on="0"/>
        <pt x="325" y="837" on="1"/>
        <pt x="353" y="855" on="0"/>
        <pt x="423" y="891" on="0"/>
        <pt x="499" y="919" on="0"/>
        <pt x="576" y="936" on="0"/>
        <pt x="611" y="936" on="1"/>
        <pt x="655" y="936" on="0"/>
        <pt x="724" y="904" on="0"/>
        <pt x="780" y="863" on="0"/>
        <pt x="825" y="824" on="0"/>
      </contour>
    </TTGlyph>
    <TTGlyph name="cacute" xMin="59" yMin="-41" xMax="904" yMax="1462">
      <component glyphName="c" x="0" y="0" flags="0x0"/>
      <component glyphName="acutecomb" x="902" y="0" flags="0x0"/>
    </TTGlyph>
    <TTGlyph name="caron" xMin="136" yMin="1048" xMax="720" yMax="1456">
      <contour>
        <pt x="435" y="1048" on="1"/>
        <pt x="328" y="1048" on="1"/>
        <pt x="136" y="1406" on="1"/>
        <pt x="150" y="1425" on="0"/>
        <pt x="173" y="1444" on="0"/>
        <pt x="188" y="1456" on="1"/>
        <pt x="402" y="1220" on="1"/>
        <pt x="680" y="1456" on="1"/>
        <pt x="692" y="1445" on="0"/>
        <pt x="710" y="1425" on="0"/>
        <pt x="720" y="1406" on="1"/>
      </contour>
    </TTGlyph>
    <TTGlyph name="ccaron" xMin="59" yMin="-41" xMax="899" yMax="1456">
      <component glyphName="c" x="0" y="0" flags="0x0"/>
      <component glyphName="uni030C" x="914" y="0" flags="0x0"/>
    </TTGlyph>
    <TTGlyph name="ccedilla" xMin="59" yMin="-411" xMax="844" yMax="936">
      <contour>
        <pt x="504" y="-221" on="1"/>
        <pt x="504" y="-274" on="0"/>
        <pt x="440" y="-362" on="0"/>
        <pt x="337" y="-411" on="0"/>
        <pt x="207" y="-411" on="0"/>
        <pt x="142" y="-375" on="1"/>
        <pt x="140" y="-326" on="1"/>
        <pt x="189" y="-348" on="0"/>
        <pt x="266" y="-352" on="0"/>
        <pt x="320" y="-329" on="0"/>
        <pt x="349" y="-289" on="0"/>
        <pt x="349" y="-266" on="1"/>
        <pt x="349" y="-241" on="0"/>
        <pt x="305" y="-213" on="0"/>
        <pt x="264" y="-215" on="1"/>
        <pt x="278" y="-179" on="0"/>
        <pt x="299" y="-123" on="0"/>
        <pt x="315" y="-72" on="0"/>
        <pt x="321" y="-48" on="1"/>
        <pt x="323" y="-41" on="1"/>
        <pt x="316" y="-41" on="1"/>
        <pt x="279" y="-41" on="0"/>
        <pt x="190" y="-7" on="0"/>
        <pt x="112" y="77" on="0"/>
        <pt x="59" y="217" on="0"/>
        <pt x="59" y="322" on="1"/>
        <pt x="59" y="389" on="0"/>
        <pt x="87" y="530" on="0"/>
        <pt x="150" y="665" on="0"/>
        <pt x="251" y="788" on="0"/>
        <pt x="325" y="837" on="1"/>
        <pt x="353" y="855" on="0"/>
        <pt x="423" y="891" on="0"/>
        <pt x="499" y="919" on="0"/>
        <pt x="576" y="936" on="0"/>
        <pt x="611" y="936" on="1"/>
        <pt x="655" y="936" on="0"/>
        <pt x="724" y="904" on="0"/>
        <pt x="780" y="863" on="0"/>
        <pt x="825" y="824" on="0"/>
        <pt x="844" y="818" on="1"/>
        <pt x="823" y="801" on="0"/>
        <pt x="772" y="761" on="0"/>
        <pt x="723" y="727" on="0"/>
        <pt x="679" y="704" on="0"/>
        <pt x="665" y="704" on="1"/>
        <pt x="653" y="704" on="0"/>
        <pt x="620" y="740" on="0"/>
        <pt x="578" y="783" on="0"/>
        <pt x="527" y="819" on="0"/>
        <pt x="496" y="819" on="1"/>
        <pt x="453" y="819" on="0"/>
        <pt x="382" y="778" on="0"/>
        <pt x="324" y="709" on="0"/>
        <pt x="280" y="618" on="0"/>
        <pt x="250" y="518" on="0"/>
        <pt x="235" y="415" on="0"/>
        <pt x="235" y="368" on="1"/>
        <pt x="235" y="303" on="0"/>
        <pt x="262" y="200" on="0"/>
        <pt x="309" y="128" on="0"/>
        <pt x="375" y="89" on="0"/>
        <pt x="414" y="89" on="1"/>
        <pt x="435" y="89" on="0"/>
        <pt x="493" y="104" on="0"/>
        <pt x="568" y="139" on="0"/>
        <pt x="658" y="197" on="0"/>
        <pt x="712" y="241" on="1"/>
        <pt x="720" y="230" on="0"/>
        <pt x="744" y="198" on="0"/>
        <pt x="749" y="190" on="1"/>
        <pt x="671" y="119" on="0"/>
        <pt x="545" y="29" on="0"/>
        <pt x="493" y="3" on="1"/>
        <pt x="445" y="-20" on="0"/>
        <pt x="405" y="-30" on="1"/>
        <pt x="401" y="-47" on="0"/>
        <pt x="398" y="-61" on="1"/>
        <pt x="392" y="-87" on="0"/>
        <pt x="386" y="-108" on="1"/>
        <pt x="441" y="-110" on="0"/>
        <pt x="504" y="-172" on="0"/>
      </contour>
    </TTGlyph>
    <TTGlyph name="ccircumflex" xMin="59" yMin="-41" xMax="855" yMax="1447">
      <component glyphName="c" x="0" y="0" flags="0x0"/>
      <component glyphName="uni0302" x="906" y="0" flags="0x0"/>
    </TTGlyph>
    <TTGlyph name="cdotaccent" xMin="59" yMin="-41" xMax="844" yMax="1346">
      <component glyphName="c" x="0" y="0" flags="0x0"/>
      <component glyphName="uni0307" x="905" y="0" flags="0x0"/>
    </TTGlyph>
    <TTGlyph name="cedilla" xMin="-139" yMin="-411" xMax="225" yMax="4">
      <contour>
        <pt x="225" y="-221" on="1"/>
        <pt x="225" y="-274" on="0"/>
        <pt x="161" y="-362" on="0"/>
        <pt x="58" y="-411" on="0"/>
        <pt x="-72" y="-411" on="0"/>
        <pt x="-137" y="-375" on="1"/>
        <pt x="-139" y="-326" on="1"/>
        <pt x="-90" y="-348" on="0"/>
        <pt x="-13" y="-352" on="0"/>
        <pt x="41" y="-329" on="0"/>
        <pt x="70" y="-289" on="0"/>
        <pt x="70" y="-266" on="1"/>
        <pt x="70" y="-241" on="0"/>
        <pt x="26" y="-213" on="0"/>
        <pt x="-16" y="-215" on="1"/>
        <pt x="-1" y="-179" on="0"/>
        <pt x="20" y="-123" on="0"/>
        <pt x="36" y="-72" on="0"/>
        <pt x="48" y="-24" on="0"/>
        <pt x="54" y="4" on="1"/>
        <pt x="132" y="2" on="1"/>
        <pt x="125" y="-35" on="0"/>
        <pt x="113" y="-87" on="0"/>
        <pt x="106" y="-108" on="1"/>
        <pt x="161" y="-110" on="0"/>
        <pt x="225" y="-172" on="0"/>
      </contour>
    </TTGlyph>
    <TTGlyph name="cent" xMin="99" yMin="-49" xMax="894" yMax="1217">
      <contour>
        <pt x="273" y="510" on="1"/>
        <pt x="273" y="410" on="0"/>
        <pt x="348" y="280" on="0"/>
        <pt x="403" y="254" on="1"/>
        <pt x="496" y="934" on="1"/>
        <pt x="443" y="917" on="0"/>
        <pt x="360" y="827" on="0"/>
        <pt x="303" y="707" on="0"/>
        <pt x="273" y="571" on="0"/>
      </contour>
      <contour>
        <pt x="602" y="1052" on="1"/>
        <pt x="627" y="1055" on="0"/>
        <pt x="651" y="1055" on="1"/>
        <pt x="696" y="1055" on="0"/>
        <pt x="770" y="1022" on="0"/>
        <pt x="830" y="980" on="0"/>
        <pt x="877" y="941" on="0"/>
        <pt x="894" y="936" on="1"/>
        <pt x="874" y="921" on="0"/>
        <pt x="828" y="876" on="0"/>
        <pt x="784" y="835" on="0"/>
        <pt x="744" y="806" on="0"/>
        <pt x="731" y="806" on="1"/>
        <pt x="720" y="806" on="0"/>
        <pt x="697" y="840" on="0"/>
        <pt x="665" y="884" on="0"/>
        <pt x="619" y="927" on="0"/>
        <pt x="586" y="936" on="1"/>
        <pt x="491" y="238" on="1"/>
        <pt x="513" y="240" on="0"/>
        <pt x="564" y="259" on="0"/>
        <pt x="628" y="296" on="0"/>
        <pt x="707" y="353" on="0"/>
        <pt x="756" y="394" on="1"/>
        <pt x="764" y="381" on="0"/>
        <pt x="788" y="350" on="0"/>
        <pt x="793" y="341" on="1"/>
        <pt x="737" y="290" on="0"/>
        <pt x="647" y="216" on="0"/>
        <pt x="570" y="165" on="0"/>
        <pt x="505" y="133" on="0"/>
        <pt x="475" y="124" on="1"/>
        <pt x="457" y="-11" on="1"/>
        <pt x="439" y="-27" on="0"/>
        <pt x="407" y="-41" on="0"/>
        <pt x="384" y="-49" on="1"/>
        <pt x="365" y="-27" on="1"/>
        <pt x="384" y="111" on="1"/>
        <pt x="377" y="111" on="1"/>
        <pt x="352" y="111" on="0"/>
        <pt x="292" y="125" on="0"/>
        <pt x="230" y="158" on="0"/>
        <pt x="172" y="213" on="0"/>
        <pt x="127" y="293" on="0"/>
        <pt x="99" y="401" on="0"/>
        <pt x="99" y="471" on="1"/>
        <pt x="99" y="538" on="0"/>
        <pt x="130" y="675" on="0"/>
        <pt x="197" y="805" on="0"/>
        <pt x="302" y="924" on="0"/>
        <pt x="376" y="973" on="1"/>
        <pt x="433" y="1010" on="0"/>
        <pt x="510" y="1033" on="1"/>
        <pt x="530" y="1179" on="1"/>
        <pt x="543" y="1188" on="0"/>
        <pt x="558" y="1199" on="0"/>
        <pt x="572" y="1207" on="0"/>
        <pt x="588" y="1213" on="0"/>
        <pt x="602" y="1217" on="1"/>
        <pt x="622" y="1194" on="1"/>
      </contour>
    </TTGlyph>
    <TTGlyph name="circumflex" xMin="105" yMin="1024" xMax="689" yMax="1447">
      <contour>
        <pt x="689" y="1074" on="1"/>
        <pt x="675" y="1054" on="0"/>
        <pt x="652" y="1032" on="0"/>
        <pt x="636" y="1024" on="1"/>
        <pt x="423" y="1276" on="1"/>
        <pt x="145" y="1024" on="1"/>
        <pt x="136" y="1030" on="0"/>
        <pt x="115" y="1054" on="0"/>
        <pt x="105" y="1074" on="1"/>
        <pt x="394" y="1447" on="1"/>
        <pt x="501" y="1447" on="1"/>
      </contour>
    </TTGlyph>
    <TTGlyph name="colon" xMin="49" yMin="-31" xMax="404" yMax="961">
      <contour>
        <pt x="404" y="861" on="1"/>
        <pt x="404" y="830" on="0"/>
        <pt x="382" y="764" on="0"/>
        <pt x="341" y="710" on="0"/>
        <pt x="281" y="676" on="0"/>
        <pt x="244" y="676" on="1"/>
        <pt x="196" y="676" on="0"/>
        <pt x="148" y="732" on="0"/>
        <pt x="148" y="779" on="1"/>
        <pt x="148" y="809" on="0"/>
        <pt x="172" y="873" on="0"/>
        <pt x="215" y="926" on="0"/>
        <pt x="274" y="961" on="0"/>
        <pt x="309" y="961" on="1"/>
        <pt x="354" y="961" on="0"/>
        <pt x="404" y="906" on="0"/>
      </contour>
      <contour>
        <pt x="306" y="157" on="1"/>
        <pt x="306" y="125" on="0"/>
        <pt x="284" y="59" on="0"/>
        <pt x="242" y="4" on="0"/>
        <pt x="182" y="-31" on="0"/>
        <pt x="145" y="-31" on="1"/>
        <pt x="97" y="-31" on="0"/>
        <pt x="49" y="26" on="0"/>
        <pt x="49" y="73" on="1"/>
        <pt x="49" y="103" on="0"/>
        <pt x="73" y="168" on="0"/>
        <pt x="116" y="221" on="0"/>
        <pt x="176" y="256" on="0"/>
        <pt x="211" y="256" on="1"/>
        <pt x="256" y="256" on="0"/>
        <pt x="306" y="201" on="0"/>
      </contour>
    </TTGlyph>
    <TTGlyph name="comma" xMin="-16" yMin="-328" xMax="327" yMax="239">
      <contour>
        <pt x="327" y="107" on="1"/>
        <pt x="327" y="76" on="0"/>
        <pt x="302" y="0" on="0"/>
        <pt x="258" y="-83" on="0"/>
        <pt x="200" y="-167" on="0"/>
        <pt x="133" y="-243" on="0"/>
        <pt x="61" y="-307" on="0"/>
        <pt x="26" y="-328" on="1"/>
        <pt x="-16" y="-288" on="1"/>
        <pt x="61" y="-207" on="0"/>
        <pt x="137" y="-64" on="0"/>
        <pt x="137" y="-8" on="1"/>
        <pt x="137" y="11" on="0"/>
        <pt x="126" y="46" on="0"/>
        <pt x="100" y="72" on="0"/>
        <pt x="58" y="85" on="0"/>
        <pt x="28" y="81" on="1"/>
        <pt x="20" y="137" on="1"/>
        <pt x="33" y="149" on="0"/>
        <pt x="97" y="185" on="0"/>
        <pt x="172" y="217" on="0"/>
        <pt x="242" y="239" on="0"/>
        <pt x="260" y="239" on="1"/>
        <pt x="278" y="229" on="0"/>
        <pt x="303" y="209" on="0"/>
        <pt x="319" y="179" on="0"/>
        <pt x="327" y="138" on="0"/>
      </contour>
    </TTGlyph>
    <TTGlyph name="copyright" xMin="89" yMin="-36" xMax="1285" yMax="1295">
      <contour>
        <pt x="1024" y="942" on="1"/>
        <pt x="1006" y="930" on="0"/>
        <pt x="966" y="901" on="0"/>
        <pt x="928" y="876" on="0"/>
        <pt x="894" y="860" on="0"/>
        <pt x="883" y="860" on="1"/>
        <pt x="872" y="860" on="0"/>
        <pt x="843" y="891" on="0"/>
        <pt x="806" y="927" on="0"/>
        <pt x="757" y="958" on="0"/>
        <pt x="725" y="958" on="1"/>
        <pt x="685" y="958" on="0"/>
        <pt x="617" y="921" on="0"/>
        <pt x="561" y="858" on="0"/>
        <pt x="518" y="776" on="0"/>
        <pt x="489" y="687" on="0"/>
        <pt x="474" y="598" on="0"/>
        <pt x="474" y="559" on="1"/>
        <pt x="474" y="504" on="0"/>
        <pt x="507" y="418" on="0"/>
        <pt x="563" y="359" on="0"/>
        <pt x="636" y="328" on="0"/>
        <pt x="677" y="328" on="1"/>
        <pt x="695" y="328" on="0"/>
        <pt x="742" y="341" on="0"/>
        <pt x="802" y="371" on="0"/>
        <pt x="878" y="421" on="0"/>
        <pt x="926" y="459" on="1"/>
        <pt x="934" y="448" on="0"/>
        <pt x="954" y="424" on="0"/>
        <pt x="959" y="416" on="1"/>
        <pt x="889" y="356" on="0"/>
        <pt x="782" y="280" on="0"/>
        <pt x="695" y="238" on="0"/>
        <pt x="622" y="223" on="0"/>
        <pt x="585" y="223" on="1"/>
        <pt x="550" y="223" on="0"/>
        <pt x="462" y="252" on="0"/>
        <pt x="383" y="321" on="0"/>
        <pt x="329" y="438" on="0"/>
        <pt x="329" y="526" on="1"/>
        <pt x="329" y="580" on="0"/>
        <pt x="350" y="693" on="0"/>
        <pt x="401" y="804" on="0"/>
        <pt x="486" y="911" on="0"/>
        <pt x="551" y="960" on="1"/>
        <pt x="574" y="978" on="0"/>
        <pt x="636" y="1009" on="0"/>
        <pt x="705" y="1032" on="0"/>
        <pt x="776" y="1044" on="0"/>
        <pt x="809" y="1044" on="1"/>
        <pt x="852" y="1044" on="0"/>
        <pt x="919" y="1015" on="0"/>
        <pt x="971" y="979" on="0"/>
        <pt x="1009" y="946" on="0"/>
      </contour>
      <contour>
        <pt x="1195" y="719" on="1"/>
        <pt x="1195" y="820" on="0"/>
        <pt x="1135" y="996" on="0"/>
        <pt x="1024" y="1125" on="0"/>
        <pt x="866" y="1199" on="0"/>
        <pt x="768" y="1199" on="1"/>
        <pt x="684" y="1199" on="0"/>
        <pt x="531" y="1147" on="0"/>
        <pt x="399" y="1055" on="0"/>
        <pt x="293" y="930" on="0"/>
        <pt x="218" y="785" on="0"/>
        <pt x="177" y="625" on="0"/>
        <pt x="177" y="545" on="1"/>
        <pt x="177" y="443" on="0"/>
        <pt x="237" y="266" on="0"/>
        <pt x="349" y="135" on="0"/>
        <pt x="508" y="60" on="0"/>
        <pt x="607" y="60" on="1"/>
        <pt x="692" y="60" on="0"/>
        <pt x="845" y="113" on="0"/>
        <pt x="975" y="205" on="0"/>
        <pt x="1081" y="331" on="0"/>
        <pt x="1155" y="477" on="0"/>
        <pt x="1195" y="638" on="0"/>
      </contour>
      <contour>
        <pt x="1285" y="752" on="1"/>
        <pt x="1285" y="657" on="0"/>
        <pt x="1241" y="466" on="0"/>
        <pt x="1156" y="291" on="0"/>
        <pt x="1035" y="139" on="0"/>
        <pt x="882" y="28" on="0"/>
        <pt x="698" y="-36" on="0"/>
        <pt x="594" y="-36" on="1"/>
        <pt x="478" y="-36" on="0"/>
        <pt x="291" y="52" on="0"/>
        <pt x="160" y="204" on="0"/>
        <pt x="89" y="409" on="0"/>
        <pt x="89" y="526" on="1"/>
        <pt x="89" y="619" on="0"/>
        <pt x="135" y="806" on="0"/>
        <pt x="222" y="977" on="0"/>
        <pt x="345" y="1124" on="0"/>
        <pt x="498" y="1233" on="0"/>
        <pt x="679" y="1295" on="0"/>
        <pt x="779" y="1295" on="1"/>
        <pt x="894" y="1295" on="0"/>
        <pt x="1081" y="1212" on="0"/>
        <pt x="1213" y="1066" on="0"/>
        <pt x="1285" y="867" on="0"/>
      </contour>
    </TTGlyph>
    <TTGlyph name="currency" xMin="86" yMin="248" xMax="799" yMax="956">
      <contour>
        <pt x="471" y="787" on="1"/>
        <pt x="433" y="787" on="0"/>
        <pt x="367" y="757" on="0"/>
        <pt x="316" y="706" on="0"/>
        <pt x="282" y="639" on="0"/>
        <pt x="278" y="601" on="1"/>
        <pt x="274" y="567" on="0"/>
        <pt x="290" y="501" on="0"/>
        <pt x="327" y="449" on="0"/>
        <pt x="383" y="417" on="0"/>
        <pt x="420" y="417" on="1"/>
        <pt x="457" y="417" on="0"/>
        <pt x="523" y="447" on="0"/>
        <pt x="573" y="498" on="0"/>
        <pt x="606" y="565" on="0"/>
        <pt x="611" y="602" on="1"/>
        <pt x="616" y="636" on="0"/>
        <pt x="601" y="702" on="0"/>
        <pt x="564" y="754" on="0"/>
        <pt x="507" y="786" on="0"/>
      </contour>
      <contour>
        <pt x="649" y="248" on="1"/>
        <pt x="561" y="363" on="1"/>
        <pt x="527" y="340" on="0"/>
        <pt x="449" y="313" on="0"/>
        <pt x="406" y="313" on="1"/>
        <pt x="362" y="313" on="0"/>
        <pt x="290" y="341" on="0"/>
        <pt x="262" y="365" on="1"/>
        <pt x="140" y="248" on="1"/>
        <pt x="108" y="251" on="1"/>
        <pt x="103" y="265" on="0"/>
        <pt x="91" y="302" on="0"/>
        <pt x="86" y="319" on="1"/>
        <pt x="209" y="437" on="1"/>
        <pt x="172" y="511" on="0"/>
        <pt x="184" y="600" on="1"/>
        <pt x="190" y="651" on="0"/>
        <pt x="227" y="735" on="0"/>
        <pt x="253" y="769" on="1"/>
        <pt x="159" y="891" on="1"/>
        <pt x="166" y="928" on="1"/>
        <pt x="180" y="936" on="0"/>
        <pt x="221" y="948" on="0"/>
        <pt x="238" y="956" on="1"/>
        <pt x="327" y="839" on="1"/>
        <pt x="365" y="865" on="0"/>
        <pt x="448" y="893" on="0"/>
        <pt x="486" y="893" on="1"/>
        <pt x="528" y="893" on="0"/>
        <pt x="598" y="864" on="0"/>
        <pt x="626" y="838" on="1"/>
        <pt x="746" y="954" on="1"/>
        <pt x="779" y="955" on="1"/>
        <pt x="799" y="882" on="1"/>
        <pt x="679" y="766" on="1"/>
        <pt x="697" y="728" on="0"/>
        <pt x="710" y="643" on="0"/>
        <pt x="705" y="600" on="1"/>
        <pt x="698" y="554" on="0"/>
        <pt x="663" y="469" on="0"/>
        <pt x="635" y="434" on="1"/>
        <pt x="729" y="312" on="1"/>
        <pt x="725" y="274" on="1"/>
      </contour>
    </TTGlyph>
    <TTGlyph name="d" xMin="48" yMin="-41" xMax="945" yMax="1520">
      <contour>
        <pt x="611" y="411" on="1"/>
        <pt x="619" y="473" on="0"/>
        <pt x="646" y="631" on="0"/>
        <pt x="660" y="719" on="1"/>
        <pt x="643" y="737" on="0"/>
        <pt x="607" y="772" on="0"/>
        <pt x="566" y="801" on="0"/>
        <pt x="521" y="819" on="0"/>
        <pt x="497" y="819" on="1"/>
        <pt x="453" y="819" on="0"/>
        <pt x="377" y="776" on="0"/>
        <pt x="314" y="704" on="0"/>
        <pt x="265" y="612" on="0"/>
        <pt x="232" y="514" on="0"/>
        <pt x="215" y="418" on="0"/>
        <pt x="215" y="379" on="1"/>
        <pt x="215" y="317" on="0"/>
        <pt x="238" y="220" on="0"/>
        <pt x="277" y="152" on="0"/>
        <pt x="327" y="116" on="0"/>
        <pt x="354" y="116" on="1"/>
        <pt x="377" y="116" on="0"/>
        <pt x="435" y="158" on="0"/>
        <pt x="501" y="235" on="0"/>
        <pt x="573" y="344" on="0"/>
      </contour>
      <contour>
        <pt x="945" y="80" on="1"/>
        <pt x="860" y="23" on="0"/>
        <pt x="737" y="-41" on="0"/>
        <pt x="701" y="-41" on="1"/>
        <pt x="683" y="-41" on="0"/>
        <pt x="647" y="-12" on="0"/>
        <pt x="619" y="57" on="0"/>
        <pt x="600" y="169" on="0"/>
        <pt x="598" y="253" on="1"/>
        <pt x="562" y="191" on="0"/>
        <pt x="482" y="84" on="0"/>
        <pt x="399" y="5" on="0"/>
        <pt x="314" y="-41" on="0"/>
        <pt x="274" y="-41" on="1"/>
        <pt x="238" y="-41" on="0"/>
        <pt x="159" y="0" on="0"/>
        <pt x="92" y="87" on="0"/>
        <pt x="48" y="222" on="0"/>
        <pt x="48" y="315" on="1"/>
        <pt x="48" y="394" on="0"/>
        <pt x="84" y="543" on="0"/>
        <pt x="155" y="678" on="0"/>
        <pt x="261" y="795" on="0"/>
        <pt x="332" y="842" on="1"/>
        <pt x="360" y="860" on="0"/>
        <pt x="426" y="893" on="0"/>
        <pt x="496" y="920" on="0"/>
        <pt x="567" y="936" on="0"/>
        <pt x="600" y="936" on="1"/>
        <pt x="620" y="936" on="0"/>
        <pt x="665" y="912" on="0"/>
        <pt x="688" y="895" on="1"/>
        <pt x="699" y="963" on="0"/>
        <pt x="718" y="1093" on="0"/>
        <pt x="733" y="1206" on="0"/>
        <pt x="742" y="1297" on="0"/>
        <pt x="742" y="1326" on="1"/>
        <pt x="742" y="1349" on="0"/>
        <pt x="735" y="1376" on="0"/>
        <pt x="722" y="1389" on="0"/>
        <pt x="706" y="1393" on="0"/>
        <pt x="697" y="1393" on="1"/>
        <pt x="688" y="1393" on="0"/>
        <pt x="653" y="1384" on="0"/>
        <pt x="636" y="1379" on="1"/>
        <pt x="616" y="1373" on="0"/>
        <pt x="592" y="1366" on="1"/>
        <pt x="579" y="1415" on="1"/>
        <pt x="624" y="1436" on="0"/>
        <pt x="716" y="1474" on="0"/>
        <pt x="797" y="1503" on="0"/>
        <pt x="859" y="1520" on="0"/>
        <pt x="873" y="1520" on="1"/>
        <pt x="903" y="1520" on="0"/>
        <pt x="933" y="1484" on="0"/>
        <pt x="933" y="1438" on="1"/>
        <pt x="933" y="1399" on="0"/>
        <pt x="919" y="1275" on="0"/>
        <pt x="896" y="1122" on="0"/>
        <pt x="867" y="949" on="0"/>
        <pt x="836" y="773" on="0"/>
        <pt x="807" y="602" on="0"/>
        <pt x="784" y="454" on="0"/>
        <pt x="770" y="338" on="0"/>
        <pt x="770" y="304" on="1"/>
        <pt x="770" y="198" on="0"/>
        <pt x="795" y="101" on="0"/>
        <pt x="818" y="101" on="1"/>
        <pt x="844" y="101" on="0"/>
        <pt x="896" y="112" on="0"/>
        <pt x="931" y="127" on="1"/>
      </contour>
    </TTGlyph>
    <TTGlyph name="dagger" xMin="148" yMin="-40" xMax="938" yMax="1480">
      <contour>
        <pt x="938" y="1087" on="1"/>
        <pt x="929" y="1070" on="0"/>
        <pt x="902" y="1022" on="0"/>
        <pt x="871" y="971" on="0"/>
        <pt x="839" y="921" on="0"/>
        <pt x="825" y="902" on="1"/>
        <pt x="768" y="931" on="0"/>
        <pt x="654" y="960" on="0"/>
        <pt x="580" y="965" on="1"/>
        <pt x="572" y="896" on="0"/>
        <pt x="574" y="749" on="0"/>
        <pt x="585" y="680" on="1"/>
        <pt x="547" y="569" on="0"/>
        <pt x="497" y="354" on="0"/>
        <pt x="483" y="258" on="1"/>
        <pt x="475" y="200" on="0"/>
        <pt x="469" y="73" on="0"/>
        <pt x="472" y="12" on="1"/>
        <pt x="463" y="5" on="0"/>
        <pt x="433" y="-10" on="0"/>
        <pt x="400" y="-24" on="0"/>
        <pt x="383" y="-30" on="1"/>
        <pt x="356" y="-40" on="1"/>
        <pt x="331" y="-17" on="1"/>
        <pt x="351" y="51" on="0"/>
        <pt x="384" y="197" on="0"/>
        <pt x="392" y="258" on="1"/>
        <pt x="404" y="357" on="0"/>
        <pt x="413" y="570" on="0"/>
        <pt x="405" y="680" on="1"/>
        <pt x="436" y="749" on="0"/>
        <pt x="476" y="896" on="0"/>
        <pt x="488" y="965" on="1"/>
        <pt x="404" y="960" on="0"/>
        <pt x="251" y="929" on="0"/>
        <pt x="166" y="902" on="1"/>
        <pt x="148" y="948" on="1"/>
        <pt x="157" y="965" on="0"/>
        <pt x="184" y="1012" on="0"/>
        <pt x="215" y="1063" on="0"/>
        <pt x="247" y="1113" on="0"/>
        <pt x="261" y="1132" on="1"/>
        <pt x="317" y="1104" on="0"/>
        <pt x="430" y="1076" on="0"/>
        <pt x="502" y="1071" on="1"/>
        <pt x="510" y="1158" on="0"/>
        <pt x="504" y="1313" on="0"/>
        <pt x="487" y="1386" on="1"/>
        <pt x="506" y="1398" on="0"/>
        <pt x="555" y="1425" on="0"/>
        <pt x="604" y="1451" on="0"/>
        <pt x="650" y="1473" on="0"/>
        <pt x="666" y="1480" on="1"/>
        <pt x="703" y="1453" on="1"/>
        <pt x="665" y="1360" on="0"/>
        <pt x="612" y="1165" on="0"/>
        <pt x="595" y="1071" on="1"/>
        <pt x="680" y="1076" on="0"/>
        <pt x="834" y="1105" on="0"/>
        <pt x="920" y="1132" on="1"/>
      </contour>
    </TTGlyph>
    <TTGlyph name="daggerdbl" xMin="67" yMin="-40" xMax="938" yMax="1480">
      <contour>
        <pt x="938" y="1087" on="1"/>
        <pt x="929" y="1070" on="0"/>
        <pt x="902" y="1022" on="0"/>
        <pt x="871" y="971" on="0"/>
        <pt x="839" y="921" on="0"/>
        <pt x="825" y="902" on="1"/>
        <pt x="768" y="928" on="0"/>
        <pt x="654" y="959" on="0"/>
        <pt x="581" y="964" on="1"/>
        <pt x="576" y="903" on="0"/>
        <pt x="581" y="787" on="0"/>
        <pt x="592" y="720" on="1"/>
        <pt x="563" y="655" on="0"/>
        <pt x="527" y="533" on="0"/>
        <pt x="516" y="476" on="1"/>
        <pt x="600" y="481" on="0"/>
        <pt x="754" y="511" on="0"/>
        <pt x="839" y="538" on="1"/>
        <pt x="857" y="493" on="1"/>
        <pt x="848" y="476" on="0"/>
        <pt x="821" y="428" on="0"/>
        <pt x="790" y="377" on="0"/>
        <pt x="758" y="327" on="0"/>
        <pt x="744" y="308" on="1"/>
        <pt x="687" y="331" on="0"/>
        <pt x="573" y="364" on="0"/>
        <pt x="499" y="370" on="1"/>
        <pt x="494" y="323" on="0"/>
        <pt x="490" y="241" on="0"/>
        <pt x="494" y="165" on="0"/>
        <pt x="506" y="92" on="0"/>
        <pt x="515" y="55" on="1"/>
        <pt x="496" y="43" on="0"/>
        <pt x="448" y="15" on="0"/>
        <pt x="398" y="-11" on="0"/>
        <pt x="352" y="-33" on="0"/>
        <pt x="336" y="-40" on="1"/>
        <pt x="299" y="-13" on="1"/>
        <pt x="337" y="83" on="0"/>
        <pt x="392" y="270" on="0"/>
        <pt x="409" y="370" on="1"/>
        <pt x="325" y="365" on="0"/>
        <pt x="170" y="334" on="0"/>
        <pt x="85" y="308" on="1"/>
        <pt x="67" y="354" on="1"/>
        <pt x="76" y="371" on="0"/>
        <pt x="103" y="418" on="0"/>
        <pt x="134" y="469" on="0"/>
        <pt x="165" y="519" on="0"/>
        <pt x="179" y="538" on="1"/>
        <pt x="235" y="509" on="0"/>
        <pt x="350" y="480" on="0"/>
        <pt x="422" y="476" on="1"/>
        <pt x="427" y="533" on="0"/>
        <pt x="423" y="656" on="0"/>
        <pt x="412" y="720" on="1"/>
        <pt x="442" y="788" on="0"/>
        <pt x="478" y="904" on="0"/>
        <pt x="489" y="965" on="1"/>
        <pt x="404" y="959" on="0"/>
        <pt x="251" y="928" on="0"/>
        <pt x="166" y="902" on="1"/>
        <pt x="148" y="948" on="1"/>
        <pt x="157" y="965" on="0"/>
        <pt x="184" y="1012" on="0"/>
        <pt x="215" y="1063" on="0"/>
        <pt x="247" y="1113" on="0"/>
        <pt x="261" y="1132" on="1"/>
        <pt x="317" y="1103" on="0"/>
        <pt x="432" y="1075" on="0"/>
        <pt x="504" y="1071" on="1"/>
        <pt x="513" y="1162" on="0"/>
        <pt x="504" y="1312" on="0"/>
        <pt x="489" y="1386" on="1"/>
        <pt x="508" y="1398" on="0"/>
        <pt x="557" y="1425" on="0"/>
        <pt x="606" y="1451" on="0"/>
        <pt x="651" y="1473" on="0"/>
        <pt x="667" y="1480" on="1"/>
        <pt x="705" y="1453" on="1"/>
        <pt x="670" y="1359" on="0"/>
        <pt x="615" y="1169" on="0"/>
        <pt x="597" y="1071" on="1"/>
        <pt x="681" y="1075" on="0"/>
        <pt x="835" y="1105" on="0"/>
        <pt x="920" y="1132" on="1"/>
      </contour>
    </TTGlyph>
    <TTGlyph name="dcroat" xMin="48" yMin="-41" xMax="1067" yMax="1520">
      <contour>
        <pt x="611" y="411" on="1"/>
        <pt x="619" y="473" on="0"/>
        <pt x="646" y="631" on="0"/>
        <pt x="660" y="719" on="1"/>
        <pt x="643" y="737" on="0"/>
        <pt x="607" y="772" on="0"/>
        <pt x="566" y="801" on="0"/>
        <pt x="521" y="819" on="0"/>
        <pt x="497" y="819" on="1"/>
        <pt x="453" y="819" on="0"/>
        <pt x="377" y="776" on="0"/>
        <pt x="314" y="704" on="0"/>
        <pt x="265" y="612" on="0"/>
        <pt x="232" y="514" on="0"/>
        <pt x="215" y="418" on="0"/>
        <pt x="215" y="379" on="1"/>
        <pt x="215" y="317" on="0"/>
        <pt x="238" y="220" on="0"/>
        <pt x="277" y="152" on="0"/>
        <pt x="327" y="116" on="0"/>
        <pt x="354" y="116" on="1"/>
        <pt x="377" y="116" on="0"/>
        <pt x="435" y="158" on="0"/>
        <pt x="501" y="235" on="0"/>
        <pt x="573" y="344" on="0"/>
      </contour>
      <contour>
        <pt x="945" y="80" on="1"/>
        <pt x="860" y="23" on="0"/>
        <pt x="737" y="-41" on="0"/>
        <pt x="701" y="-41" on="1"/>
        <pt x="683" y="-41" on="0"/>
        <pt x="647" y="-12" on="0"/>
        <pt x="619" y="57" on="0"/>
        <pt x="600" y="169" on="0"/>
        <pt x="598" y="253" on="1"/>
        <pt x="562" y="191" on="0"/>
        <pt x="482" y="84" on="0"/>
        <pt x="399" y="5" on="0"/>
        <pt x="314" y="-41" on="0"/>
        <pt x="274" y="-41" on="1"/>
        <pt x="238" y="-41" on="0"/>
        <pt x="159" y="0" on="0"/>
        <pt x="92" y="87" on="0"/>
        <pt x="48" y="222" on="0"/>
        <pt x="48" y="315" on="1"/>
        <pt x="48" y="394" on="0"/>
        <pt x="84" y="543" on="0"/>
        <pt x="155" y="678" on="0"/>
        <pt x="261" y="795" on="0"/>
        <pt x="332" y="842" on="1"/>
        <pt x="360" y="860" on="0"/>
        <pt x="426" y="893" on="0"/>
        <pt x="496" y="919" on="0"/>
        <pt x="567" y="935" on="0"/>
        <pt x="600" y="935" on="1"/>
        <pt x="620" y="935" on="0"/>
        <pt x="665" y="911" on="0"/>
        <pt x="688" y="894" on="1"/>
        <pt x="696" y="949" on="0"/>
        <pt x="712" y="1054" on="0"/>
        <pt x="719" y="1102" on="1"/>
        <pt x="448" y="1102" on="1"/>
        <pt x="426" y="1128" on="1"/>
        <pt x="432" y="1144" on="0"/>
        <pt x="454" y="1188" on="0"/>
        <pt x="463" y="1202" on="1"/>
        <pt x="732" y="1202" on="1"/>
        <pt x="737" y="1240" on="0"/>
        <pt x="742" y="1303" on="0"/>
        <pt x="742" y="1326" on="1"/>
        <pt x="742" y="1349" on="0"/>
        <pt x="735" y="1376" on="0"/>
        <pt x="722" y="1389" on="0"/>
        <pt x="706" y="1393" on="0"/>
        <pt x="697" y="1393" on="1"/>
        <pt x="688" y="1393" on="0"/>
        <pt x="653" y="1384" on="0"/>
        <pt x="636" y="1379" on="1"/>
        <pt x="616" y="1373" on="0"/>
        <pt x="592" y="1366" on="1"/>
        <pt x="579" y="1415" on="1"/>
        <pt x="624" y="1436" on="0"/>
        <pt x="716" y="1474" on="0"/>
        <pt x="797" y="1503" on="0"/>
        <pt x="859" y="1520" on="0"/>
        <pt x="873" y="1520" on="1"/>
        <pt x="903" y="1520" on="0"/>
        <pt x="933" y="1484" on="0"/>
        <pt x="933" y="1438" on="1"/>
        <pt x="933" y="1400" on="0"/>
        <pt x="919" y="1277" on="0"/>
        <pt x="908" y="1202" on="1"/>
        <pt x="1046" y="1202" on="1"/>
        <pt x="1067" y="1176" on="1"/>
        <pt x="1030" y="1102" on="1"/>
        <pt x="892" y="1102" on="1"/>
        <pt x="880" y="1027" on="0"/>
        <pt x="853" y="868" on="0"/>
        <pt x="825" y="711" on="0"/>
        <pt x="801" y="562" on="0"/>
        <pt x="781" y="435" on="0"/>
        <pt x="770" y="334" on="0"/>
        <pt x="770" y="304" on="1"/>
        <pt x="770" y="198" on="0"/>
        <pt x="795" y="101" on="0"/>
        <pt x="818" y="101" on="1"/>
        <pt x="844" y="101" on="0"/>
        <pt x="896" y="112" on="0"/>
        <pt x="931" y="127" on="1"/>
      </contour>
    </TTGlyph>
    <TTGlyph name="degree" xMin="181" yMin="752" xMax="632" yMax="1243">
      <contour>
        <pt x="377" y="859" on="1"/>
        <pt x="409" y="859" on="0"/>
        <pt x="460" y="891" on="0"/>
        <pt x="495" y="940" on="0"/>
        <pt x="514" y="999" on="0"/>
        <pt x="514" y="1026" on="1"/>
        <pt x="514" y="1048" on="0"/>
        <pt x="504" y="1088" on="0"/>
        <pt x="484" y="1118" on="0"/>
        <pt x="454" y="1135" on="0"/>
        <pt x="435" y="1135" on="1"/>
        <pt x="410" y="1135" on="0"/>
        <pt x="362" y="1109" on="0"/>
        <pt x="323" y="1064" on="0"/>
        <pt x="299" y="1003" on="0"/>
        <pt x="299" y="969" on="1"/>
        <pt x="299" y="922" on="0"/>
        <pt x="341" y="859" on="0"/>
      </contour>
      <contour>
        <pt x="632" y="1073" on="1"/>
        <pt x="632" y="1002" on="0"/>
        <pt x="570" y="884" on="0"/>
        <pt x="479" y="799" on="0"/>
        <pt x="376" y="752" on="0"/>
        <pt x="335" y="752" on="1"/>
        <pt x="298" y="752" on="0"/>
        <pt x="240" y="779" on="0"/>
        <pt x="201" y="824" on="0"/>
        <pt x="181" y="885" on="0"/>
        <pt x="181" y="918" on="1"/>
        <pt x="181" y="962" on="0"/>
        <pt x="208" y="1045" on="0"/>
        <pt x="253" y="1117" on="0"/>
        <pt x="312" y="1177" on="0"/>
        <pt x="378" y="1220" on="0"/>
        <pt x="446" y="1243" on="0"/>
        <pt x="477" y="1243" on="1"/>
        <pt x="511" y="1243" on="0"/>
        <pt x="569" y="1216" on="0"/>
        <pt x="609" y="1170" on="0"/>
        <pt x="632" y="1108" on="0"/>
      </contour>
    </TTGlyph>
    <TTGlyph name="dieresis" xMin="308" yMin="1099" xMax="899" yMax="1346">
      <contour>
        <pt x="521" y="1265" on="1"/>
        <pt x="521" y="1236" on="0"/>
        <pt x="502" y="1177" on="0"/>
        <pt x="467" y="1129" on="0"/>
        <pt x="416" y="1099" on="0"/>
        <pt x="385" y="1099" on="1"/>
        <pt x="347" y="1099" on="0"/>
        <pt x="308" y="1143" on="0"/>
        <pt x="308" y="1179" on="1"/>
        <pt x="308" y="1206" on="0"/>
        <pt x="328" y="1265" on="0"/>
        <pt x="364" y="1314" on="0"/>
        <pt x="415" y="1346" on="0"/>
        <pt x="446" y="1346" on="1"/>
        <pt x="482" y="1346" on="0"/>
        <pt x="521" y="1300" on="0"/>
      </contour>
      <contour>
        <pt x="899" y="1265" on="1"/>
        <pt x="899" y="1236" on="0"/>
        <pt x="880" y="1177" on="0"/>
        <pt x="844" y="1129" on="0"/>
        <pt x="793" y="1099" on="0"/>
        <pt x="761" y="1099" on="1"/>
        <pt x="725" y="1099" on="0"/>
        <pt x="686" y="1143" on="0"/>
        <pt x="686" y="1179" on="1"/>
        <pt x="686" y="1206" on="0"/>
        <pt x="705" y="1265" on="0"/>
        <pt x="741" y="1314" on="0"/>
        <pt x="791" y="1346" on="0"/>
        <pt x="822" y="1346" on="1"/>
        <pt x="859" y="1346" on="0"/>
        <pt x="899" y="1300" on="0"/>
      </contour>
    </TTGlyph>
    <TTGlyph name="divide" xMin="65" yMin="214" xMax="731" yMax="911">
      <contour>
        <pt x="731" y="599" on="1"/>
        <pt x="728" y="588" on="0"/>
        <pt x="717" y="561" on="0"/>
        <pt x="703" y="533" on="0"/>
        <pt x="690" y="508" on="0"/>
        <pt x="686" y="500" on="1"/>
        <pt x="86" y="500" on="1"/>
        <pt x="65" y="527" on="1"/>
        <pt x="69" y="537" on="0"/>
        <pt x="80" y="563" on="0"/>
        <pt x="93" y="590" on="0"/>
        <pt x="106" y="615" on="0"/>
        <pt x="111" y="625" on="1"/>
        <pt x="711" y="625" on="1"/>
      </contour>
      <contour>
        <pt x="446" y="334" on="1"/>
        <pt x="443" y="310" on="0"/>
        <pt x="423" y="266" on="0"/>
        <pt x="394" y="233" on="0"/>
        <pt x="357" y="214" on="0"/>
        <pt x="338" y="214" on="1"/>
        <pt x="303" y="214" on="0"/>
        <pt x="278" y="258" on="0"/>
        <pt x="283" y="299" on="1"/>
        <pt x="287" y="324" on="0"/>
        <pt x="307" y="367" on="0"/>
        <pt x="336" y="399" on="0"/>
        <pt x="372" y="418" on="0"/>
        <pt x="391" y="418" on="1"/>
        <pt x="458" y="418" on="0"/>
      </contour>
      <contour>
        <pt x="514" y="828" on="1"/>
        <pt x="511" y="804" on="0"/>
        <pt x="490" y="760" on="0"/>
        <pt x="461" y="727" on="0"/>
        <pt x="425" y="708" on="0"/>
        <pt x="406" y="708" on="1"/>
        <pt x="371" y="708" on="0"/>
        <pt x="346" y="751" on="0"/>
        <pt x="352" y="792" on="1"/>
        <pt x="355" y="817" on="0"/>
        <pt x="376" y="860" on="0"/>
        <pt x="405" y="892" on="0"/>
        <pt x="440" y="911" on="0"/>
        <pt x="459" y="911" on="1"/>
        <pt x="526" y="911" on="0"/>
      </contour>
    </TTGlyph>
</ttFont>
